<svg width="28px" height="32px" viewBox="0 0 28 32" version="1.1" xmlns="http://www.w3.org/2000/svg" xmlns:xlink="http://www.w3.org/1999/xlink">
  <g stroke="none" stroke-width="1" fill="none" fill-rule="evenodd">
    <g transform="translate(-430.000000, -982.000000)">
      <g transform="translate(428.000000, 704.000000)">
        <path d="M14,282 L18,282 L18,280 L14,280 L14,282 Z M20,282 L20,280 C20,278.895 19.105,278 18,278 L14,278 C12.895,278 12,278.895 12,280 L12,282 L8,282 L8,286 L24,286 L24,282 L20,282 Z M14,304 L24,304 L24,300 L14,300 L14,304 Z M8,304 L12,304 L12,300 L8,300 L8,304 Z M14,298 L24,298 L24,294 L14,294 L14,298 Z M8,298 L12,298 L12,294 L8,294 L8,298 Z M14,292 L24,292 L24,288 L14,288 L14,292 Z M8,292 L12,292 L12,288 L8,288 L8,292 Z M25.993,282 L26,282.007 L26,305.993 L25.993,306 L6.007,306 C6.004,305.998 6.002,305.995 6,305.993 L6,282.007 C6.002,282.004 6.005,282.002 6.007,282 L2,282 L2,306 C2,308.2 3.8,310 6,310 L26,310 C28.2,310 30,308.2 30,306 L30,282 L25.993,282 Z"></path>
      </g>
    </g>
  </g>
</svg>