<svg id="icons" xmlns="http://www.w3.org/2000/svg" width="37.29px" height="37.32px" viewBox="0 0 37.29 37.32"><path fill="#bebfc6" d="M2271.35,7576l0.17,0.1-0.26-.25a19,19,0,0,0-2.69-3.4,18.68,18.68,0,0,0-31.76,13.11,18.82,18.82,0,0,0,17,18.73c0.56,0.05,1.12.08,1.68,0.08a19.14,19.14,0,0,0,12.83-5,18.5,18.5,0,0,0,5.81-13.48A18.26,18.26,0,0,0,2271.35,7576Zm-5.5-2.58c3.61,2.38,4.79,4.08,5.14,5.08a16.32,16.32,0,0,1,.54,4.67,2.06,2.06,0,0,1-1.05,1,5.78,5.78,0,0,0-.93.66c-0.31-.27-0.62-0.54-0.92-0.81a12.47,12.47,0,0,0-3.6-2.52,16.51,16.51,0,0,0-1.44-6.33A16.78,16.78,0,0,1,2265.85,7573.43Zm-10.61-.55v0.46h0v-0.46Zm0,0.46a19.26,19.26,0,0,1,6.55,2.08l0.2,0.09a17,17,0,0,1,1,2.77l0.12,0.49a7,7,0,0,1,.33,2.87,5.28,5.28,0,0,1-1.75,1.92l-0.57.49a30.13,30.13,0,0,1-2.6,2.12c-1-.33-2.08-0.71-3.08-1.07-1.19-.43-2.41-0.87-3.69-1.26l-0.19-.61c-0.38-1.24-.78-2.53-1.1-3.87,0-.17-0.09-0.36-0.15-0.56a4.09,4.09,0,0,1-.2-0.92c0.07-.54,1.07-1.38,1.73-1.94l0.49-.42a13.39,13.39,0,0,1,2.74-2A0.81,0.81,0,0,0,2255.29,7573.34Zm-11.82,1.12a4.29,4.29,0,0,1,1.06-1.25c0.21-.2.41-0.39,0.57-0.56l0.47-.53a5.76,5.76,0,0,1,1.26-1.21c1.52-.91,3.62-1,5.46-1.17l1.35-.1,0.21,0.82c0.15,0.54.29,1.09,0.42,1.64a17.48,17.48,0,0,0-5.2,4.61,7.25,7.25,0,0,0-2.16-.29,11.21,11.21,0,0,0-3.2.48c0-.26-0.09-0.52-0.15-0.76A3.38,3.38,0,0,1,2243.47,7574.46Zm-4.93,11.76a11.52,11.52,0,0,1,.63-5.71,11.21,11.21,0,0,1,2.71-4.83l0.11,0.45a6.1,6.1,0,0,1,.29,1.75,5.38,5.38,0,0,1-.65,1.75,9.33,9.33,0,0,0-.71,1.72,8.79,8.79,0,0,0-.21,1.67,4.87,4.87,0,0,1-.22,1.46,4.69,4.69,0,0,1-1.39,1.31Zm6.91,11.38-0.45.42c-3.24-1.12-5.47-4.33-5.72-8.27,0-.23,0-0.46-0.07-0.69a3.52,3.52,0,0,1,0-1,2.59,2.59,0,0,1,1.17-1.3,8.8,8.8,0,0,0,.73-0.58,21.82,21.82,0,0,0,3.89,3.41,26.65,26.65,0,0,0,1.82,6.56A7.58,7.58,0,0,1,2245.46,7597.6Zm9.2,0.4a10.75,10.75,0,0,1-3.31-.82l-0.21-.08a12.91,12.91,0,0,1-2.89-1.43,16.36,16.36,0,0,1-.75-2.35l-0.18-.66c-0.09-.33-0.22-0.69-0.34-1a5,5,0,0,1-.47-2.15,6,6,0,0,1,1.7-1.75l0.42-.35c0.66-.56,1.23-1,1.78-1.4l0.93-.71c1.59,0.58,3.23,1.15,4.81,1.71l1.94,0.68,0.25,0.88c0.48,1.64,1,3.33,1.37,5.08a7.41,7.41,0,0,1-1.72,1.74l-0.65.54c-0.17.14-.36,0.33-0.58,0.54A5.9,5.9,0,0,1,2254.65,7598Zm12.58-1.08c-0.13.77-1.58,2-2.13,2.46l-0.14.12c-1.16,1-2.75,2.34-4.45,2.51a8.49,8.49,0,0,1-3.18-.44l-0.93-.24a12.42,12.42,0,0,1-.7-2.19,23.89,23.89,0,0,0,4.89-4.08l0.32-.32a17.38,17.38,0,0,0,5.7-.4A4.38,4.38,0,0,1,2267.23,7596.91Zm2.24-1.45a2.56,2.56,0,0,1-.65.39,5.79,5.79,0,0,0-.41-1.17,2.86,2.86,0,0,1-.35-1.23,6.65,6.65,0,0,1,.69-1.7,10.77,10.77,0,0,0,.66-1.48,20.62,20.62,0,0,0,.73-3.75c0.43-.39.89-0.77,1.33-1.14l0.69-.58a3.88,3.88,0,0,1,.36,2.38C2272.34,7589.93,2271,7594.05,2269.47,7595.46Z" transform="translate(-2236.81 -7567.06)"/></svg>