<svg xmlns="http://www.w3.org/2000/svg" width="39.86px" height="33.59px" viewBox="0 0 39.86 33.59"><path fill="#bebfc6" d="M39.37,30.37H38.26v-.58H36.41v-1h1.32V26.57H32.82v2.26h1.32v1h-2v.58H27.46l.05,0-5.18-16.2,3.25-2.69,9,6.46.07,0V25.3h1.08V17.87l.71-.59a.89.89,0,0,0,.22-1.09L31.2,4.85a3,3,0,0,0-.91-1.05L24,.16a.88.88,0,0,0-1.11.07L21.31,1.68a1,1,0,0,0-.22,1.13l2.29,6.07L7.42,22.09H7.2a2.69,2.69,0,0,0-2,4.55v2.13h-.5a2.73,2.73,0,0,0-2.49,1.61H.49a.49.49,0,0,0-.49.49V33.1a.49.49,0,0,0,.49.49H39.37a.49.49,0,0,0,.49-.49V30.85A.49.49,0,0,0,39.37,30.37ZM18.21,20.81l2.57,1.34-3.12,2.22Zm3.86,2.95,1.77,5.53-5.46-2.9Zm-1.25-3.9-2.28-1.19.25-1.58.9-.75ZM6.39,24.78a.81.81,0,1,1,1.46.49l0,0a.81.81,0,0,1-1.44-.51Zm.81,2.7a2.69,2.69,0,0,0,.71-.1v1.72H6.49V27.38A2.69,2.69,0,0,0,7.2,27.48Zm2-.85a2.68,2.68,0,0,0,.74-1.85,2.71,2.71,0,0,0,0-.31l5.21-4.31L13.5,30.37H9.16Zm7.56,3.74L17.08,28l4.4,2.34Z"/></svg>