<svg xmlns="http://www.w3.org/2000/svg" width="35.57px" height="32.77px" viewBox="0 0 35.57 32.77"><path fill="#bebfc6" d="M35.54,8.29h0L32.66,0,29.74,8.29h0V26.78h0v4.39a1.59,1.59,0,0,0,1.59,1.59H34a1.59,1.59,0,0,0,1.59-1.59V26.78h0ZM33.44,4l1.17,3.32c-.18,0-.44-.1-.78-.49a1.3,1.3,0,0,1-2.32,0c-.38.4-.63.5-.81.47L31.87,4ZM31.1,26.39V8.88a.29.29,0,1,1,.59,0V26.39a.29.29,0,1,1-.59,0Zm2.54,0V9a.29.29,0,1,1,.59,0V26.39a.29.29,0,1,1-.59,0ZM34,31.94H31.36a.77.77,0,0,1-.77-.77V27.63h4.13v3.55A.77.77,0,0,1,34,31.94Z"/><path fill="#bebfc6" d="M23.5,0h-22V3.86h-1a.51.51,0,1,0,0,1h1V7.94h-1a.51.51,0,1,0,0,1h1V12h-1a.51.51,0,1,0,0,1h1v3.07h-1a.51.51,0,1,0,0,1h1v3.07h-1a.51.51,0,1,0,0,1h1v3.07h-1a.51.51,0,1,0,0,1h1v3h-1a.51.51,0,1,0,0,1h1v3.55h22A2.53,2.53,0,0,0,26,30.24V2.53A2.53,2.53,0,0,0,23.5,0Zm.84,30.24a.84.84,0,0,1-.84.84H3.2V29.22H4.26a.94.94,0,1,0-.06-1h-1v-3h1a.94.94,0,1,0,.07-1h-1V21.18h1a.94.94,0,1,0,0-1h-1V17.1h1a.94.94,0,1,0,0-1h-1V13h1a.94.94,0,1,0,0-1h-1V8.95H4.27a.94.94,0,1,0-.08-1h-1V4.87H4.26a.94.94,0,1,0-.06-1h-1V1.69H23.5a.84.84,0,0,1,.84.84Z"/><rect fill="#bebfc6" x="8.03" y="5.52" width="13.82" height="10.25"/><rect fill="#bebfc6" x="8.03" y="18.63" width="13.82" height="1.35"/><rect fill="#bebfc6" x="8.03" y="22.54" width="13.82" height="1.35"/><rect fill="#bebfc6" x="8.03" y="26.45" width="13.82" height="1.35"/></svg>