<!-- Generator: Adobe Illustrator 18.1.1, SVG Export Plug-In  -->
<svg version="1.1"
   xmlns="http://www.w3.org/2000/svg" xmlns:xlink="http://www.w3.org/1999/xlink" xmlns:a="http://ns.adobe.com/AdobeSVGViewerExtensions/3.0/"
   x="0px" y="0px" width="20px" height="16px" viewBox="0 0 20 16" enable-background="new 0 0 20 16" xml:space="preserve">
<defs>
</defs>
<path fill="#BEBFC6" d="M10.1,0C3.6,0,0,4.3,0,7.4c0,4.8,4.3,7.4,7.8,8.3c3.6,0.9,4.9-0.7,4.8-2.6c-0.1-2.3,1.1-2.3,1.9-2.2
  C15.3,11,20,12.1,20,8.5C20,4,16.5,0,10.1,0z M8.8,1.2c0.7,0,1.2,0.6,1.2,1.2S9.4,3.8,8.8,3.8S7.5,3.2,7.5,2.5S8.1,1.2,8.8,1.2z
   M3.1,8.8c-0.4,0-0.6-0.3-0.6-0.6s0.3-0.6,0.6-0.6c0.4,0,0.6,0.3,0.6,0.6S3.5,8.8,3.1,8.8z M5,6.2C4.3,6.2,3.8,5.7,3.8,5
  S4.3,3.8,5,3.8S6.2,4.3,6.2,5S5.7,6.2,5,6.2z M10,11.2c-1.4,0-2.5-0.8-2.5-1.9S8.6,7.5,10,7.5s2.5,0.8,2.5,1.9S11.4,11.2,10,11.2z
   M14.4,6.2c-1,0-1.9-0.8-1.9-1.9s0.8-1.9,1.9-1.9c1,0,1.9,0.8,1.9,1.9S15.4,6.2,14.4,6.2z"/>
</svg>
