<svg xmlns="http://www.w3.org/2000/svg" viewBox="0 0 25 25"><path d="M24.86 20.94l-10-10 7.9-7.8a.48.48 0 1 0-.76-.73l-7.9 7.81-2.75-2.79a5.74 5.74 0 0 0 .24-1.63A5.8 5.8 0 0 0 5.8 0a5.74 5.74 0 0 0-2.34.49.48.48 0 0 0-.15.78l3 3-.42 1.81-1.49.3-3.1-3.11a.49.49 0 0 0-.43-.14.48.48 0 0 0-.35.28 5.79 5.79 0 0 0 5.28 8.18 5.72 5.72 0 0 0 1.62-.24l1.44 1.45-8.17 7.59a.48.48 0 0 0-.14.48l.67 2.52a.48.48 0 0 0 .3.33l2.48.9h.16a.48.48 0 0 0 .35-.16l7.65-8.34 8.71 8.71a.48.48 0 0 0 .68 0l3.25-3.25a.48.48 0 0 0 .06-.64zM4.07 23.6l-2-.71-.53-2 8-7.41.71.71-7.34 7.22.67.69 7.35-7.22.6.6zm17.2.24L7.89 10.47a.48.48 0 0 0-.34-.14h-.16A4.82 4.82 0 0 1 1 5.8a4.76 4.76 0 0 1 .19-1.32l2.72 2.76a.47.47 0 0 0 .43.13L6.39 7a.48.48 0 0 0 .38-.37l.51-2.45a.48.48 0 0 0-.13-.44L4.53 1.13A4.77 4.77 0 0 1 5.8 1a4.82 4.82 0 0 1 4.55 6.4.48.48 0 0 0 .11.5l3.33 3.33 10 10z"/></svg>