<!-- Generator: Adobe Illustrator 18.1.1, SVG Export Plug-In  -->
<svg version="1.1"
   xmlns="http://www.w3.org/2000/svg" xmlns:xlink="http://www.w3.org/1999/xlink" xmlns:a="http://ns.adobe.com/AdobeSVGViewerExtensions/3.0/"
   x="0px" y="0px" width="20px" height="18.8px" viewBox="0 0 20 18.8" enable-background="new 0 0 20 18.8" xml:space="preserve">
<defs>
</defs>
<path fill="#BEBFC6" d="M17.5,3.8h-3.8V1.2c0-0.7-0.6-1.2-1.2-1.2h-5C6.8,0,6.2,0.6,6.2,1.2v2.5H2.5C1.1,3.8,0,4.9,0,6.2v10
  c0,1.4,1.1,2.5,2.5,2.5h15c1.4,0,2.5-1.1,2.5-2.5v-10C20,4.9,18.9,3.8,17.5,3.8z M7.5,1.2h5v2.5h-5V1.2z M15,12.5h-3.8v3.8H8.8v-3.8
  H5V10h3.8V6.2h2.5V10H15V12.5z"/>
</svg>
