<svg xmlns="http://www.w3.org/2000/svg" width="33.08px" height="38.5px" viewBox="0 0 33.08 38.5"><path fill="#bebfc6" d="M15.28,0V9.13H0V38.5H21.59l.68-1H26.8l.73,1h5.55V2.58ZM13.47,35.34H2V33.26H13.47Zm0-3.44H2V29.81H13.47Zm0-3.44H2V26.37H13.47Zm0-3.44H2V22.93H13.47Zm7.93,1H17.8V21.91h3.6Zm0-5.64H17.8V16.28h3.6Zm0-5.64H17.8V10.64h3.6Zm0-5.64H17.8V5h3.6ZM22.68,5h3.6V9.13h-3.6Zm0,5.64h3.6v4.13h-3.6Zm0,5.64h3.6v4.13h-3.6Zm0,5.64h3.6V26h-3.6ZM26.8,36.36H22.27V28.29H26.8ZM31.15,26h-3.6V21.91h3.6Zm0-5.64h-3.6V16.28h3.6Zm0-5.64h-3.6V10.64h3.6Zm0-5.64h-3.6V5h3.6Z"/></svg>