<!-- Generator: Adobe Illustrator 18.1.1, SVG Export Plug-In  -->
<svg version="1.1"
   xmlns="http://www.w3.org/2000/svg" xmlns:xlink="http://www.w3.org/1999/xlink" xmlns:a="http://ns.adobe.com/AdobeSVGViewerExtensions/3.0/"
   x="0px" y="0px" width="22px" height="22.4px" viewBox="0 0 22 22.4" enable-background="new 0 0 22 22.4"
   xml:space="preserve">
<defs>
</defs>
<g>
  <path fill="#BEBFC6" d="M18.9,15.6c0,0.8,0.5,1.5,1.1,1.8v0.3c-0.2,0-0.4,0-0.6,0c-1.2,0-2.2-0.5-3-1.3c-0.5,0.1-0.9,0.2-1.4,0.2
    c-2.8,0-5-2-5-4.4c0-2.5,2.2-4.4,5-4.4s5,2,5,4.4c0,1-0.3,1.9-0.9,2.6C19,15.1,18.9,15.3,18.9,15.6z M4,3.8C2.9,4.8,2.2,6,2.2,7.2
    c0,0.7,0.2,1.4,0.6,2c0.4,0.7,1,1.3,1.7,1.7c0.5,0.3,0.9,0.9,1,1.5c0,0.2,0,0.4,0.1,0.6c0.1-0.1,0.3-0.2,0.4-0.3
    c0.4-0.4,1-0.7,1.6-0.7c0.1,0,0.2,0,0.3,0c0.4,0,0.7,0.1,1.1,0.1v2.2c-0.5,0-0.9,0-1.4-0.1c-1.9,1.9-4.2,2.3-6.4,2.3v-0.5
    c1.2-0.6,2.2-1.6,2.2-2.9c0-0.2,0-0.3,0-0.5C1.3,11.5,0,9.5,0,7.2C0,3.2,4,0,8.9,0c4.8,0,8.8,3.1,8.9,7c-0.7-0.3-1.5-0.5-2.3-0.6
    c-0.2-1-0.8-1.9-1.7-2.6c-0.6-0.5-1.3-0.9-2.1-1.2c-0.9-0.3-1.8-0.4-2.7-0.4S7,2.4,6.2,2.7C5.3,2.9,4.6,3.3,4,3.8z"/>
</g>
</svg>
