<svg xmlns="http://www.w3.org/2000/svg" viewBox="0 0 30.9 25.5"><path fill="#D6555C" d="M21 1c1.7 0 3.2.7 4.3 1.9 1.3-.3 2.6-.8 3.8-1.4-.4 1.4-1.4 2.5-2.6 3.3 1.2-.1 2.3-.5 3.4-.9-.8 1.2-1.8 2.2-3 3.1v.8c0 7.8-6 16.8-16.8 16.8-3.4 0-6.5-1-9.1-2.7.5.1.9.1 1.4.1 2.8 0 5.3-.9 7.4-2.5-2.6-.1-4.8-1.8-5.5-4.1.4.1.7.1 1.1.1.5 0 1.1-.1 1.6-.2-2.7-.6-4.7-2.9-4.7-5.8v-.1c.7.3 1.6.6 2.5.6-1.5-1.1-2.6-2.9-2.6-4.9 0-1.1.3-2.1.8-3C5.9 5.7 10.3 8 15.2 8.3c-.1-.4-.1-.9-.1-1.4C15.1 3.7 17.7 1 21 1m0-1c-3.8 0-6.9 3.1-6.9 6.9v.3c-4-.5-7.7-2.6-10.3-5.7-.2-.3-.5-.4-.8-.4h-.1c-.3 0-.6.2-.8.5-.6 1-.9 2.2-.9 3.5 0 1.1.3 2.2.8 3.2-.1 0-.2.1-.3.1-.3.2-.5.5-.5.8v.1c0 2 .9 3.9 2.4 5.2l-.1.1c-.2.3-.3.6-.2 1 .6 2 2.1 3.5 3.9 4.3-1.5.7-3.1 1.1-4.8 1.1-.5 0-.9 0-1.3-.1H1c-.4 0-.8.3-.9.7-.2.4 0 .9.4 1.2 2.9 1.8 6.2 2.8 9.6 2.8 11.2 0 17.8-9.1 17.8-17.8v-.3c1.1-.8 2-1.8 2.8-3 .3-.5.2-1 0-1.3-.2-.2-.5-.4-.8-.4h-.3c.2-.3.3-.7.5-1.1.1-.4 0-.8-.3-1.1-.2-.1-.4-.2-.6-.2-.2 0-.4 0-.5.1-.9.5-1.9.9-2.9 1.2C24.4.6 22.7 0 21 0z"/></svg>