<?xml version="1.0" encoding="UTF-8"?>
<svg width="40px" height="38px" viewBox="0 0 40 38" version="1.1" xmlns="http://www.w3.org/2000/svg" xmlns:xlink="http://www.w3.org/1999/xlink">
    <!-- Generator: Sketch 46.2 (44496) - http://www.bohemiancoding.com/sketch -->
    <title>Coin Stack</title>
    <g id="Page-1" stroke="none" stroke-width="1" fill="none" fill-rule="evenodd">
        <g id="Careers-Page-desktop" transform="translate(-249.000000, -4645.000000)" fill="#06CF74">
            <path d="M276.5,4672.86667 L279,4672.86667 L279,4670.33333 L276.5,4670.33333 L276.5,4672.86667 Z M271.5,4667.8 L274,4667.8 L274,4665.26667 L271.5,4665.26667 L271.5,4667.8 Z M276.5,4660.2 L274,4660.2 L274,4662.73333 L269,4662.73333 L269,4670.33333 L274,4670.33333 L274,4672.86667 L269,4672.86667 L269,4675.4 L274,4675.4 L274,4677.93333 L276.5,4677.93333 L276.5,4675.4 L281.5,4675.4 L281.5,4667.8 L276.5,4667.8 L276.5,4665.26667 L281.5,4665.26667 L281.5,4662.73333 L276.5,4662.73333 L276.5,4660.2 Z M275.1975,4680.45653 C268.96125,4680.45653 263.905,4675.33287 263.905,4669.01347 C263.905,4662.69407 268.96125,4657.5704 275.1975,4657.5704 C281.43375,4657.5704 286.49,4662.69407 286.49,4669.01347 C286.49,4675.33413 281.435,4680.45653 275.1975,4680.45653 L275.1975,4680.45653 Z M261.5,4661.46667 C259.3525,4661.46667 257.30125,4661.2412 255.51125,4660.81813 C254.65,4660.6142 253.8475,4660.36467 253.12625,4660.07333 C251.3775,4659.36527 250.25,4658.42033 250.25,4657.66667 C250.25,4657.1068 250.8725,4656.44307 251.90625,4655.849 C254.2,4656.95987 257.64625,4657.66667 261.5,4657.66667 C264.07625,4657.66667 266.46625,4657.35 268.455,4656.80913 C266.5025,4657.91873 264.84375,4659.49573 263.62625,4661.39067 C262.9325,4661.44007 262.2225,4661.46667 261.5,4661.46667 L261.5,4661.46667 Z M261.5,4676.66667 C258.31625,4676.66667 255.3425,4676.1714 253.125,4675.27333 C251.3775,4674.56527 250.25,4673.62033 250.25,4672.86667 C250.25,4672.3068 250.8725,4671.64307 251.90625,4671.049 C254.2,4672.15987 257.64625,4672.86667 261.5,4672.86667 C261.6425,4672.86667 261.78375,4672.8654 261.925,4672.86287 C262.30125,4674.1992 262.87,4675.4532 263.59625,4676.5932 C262.9125,4676.6426 262.21,4676.66667 261.5,4676.66667 L261.5,4676.66667 Z M250.25,4665.26667 C250.25,4664.7068 250.8725,4664.04307 251.90625,4663.449 C254.2,4664.55987 257.64625,4665.26667 261.5,4665.26667 C261.63375,4665.26667 261.76625,4665.2654 261.8975,4665.26287 C261.57125,4666.45733 261.39625,4667.71387 261.39625,4669.01347 C261.39625,4669.0312 261.39625,4669.04767 261.3975,4669.0654 C259.2875,4669.0578 257.2725,4668.8336 255.51125,4668.41813 C254.65,4668.2142 253.8475,4667.96467 253.12625,4667.67333 C251.3775,4666.96527 250.25,4666.02033 250.25,4665.26667 L250.25,4665.26667 Z M250.25,4650.06667 C250.25,4649.313 251.3775,4648.36807 253.125,4647.66 C255.3425,4646.76193 258.31625,4646.26667 261.5,4646.26667 C264.68375,4646.26667 267.6575,4646.76193 269.875,4647.66 C271.6225,4648.36807 272.75,4649.313 272.75,4650.06667 C272.75,4650.82033 271.6225,4651.76527 269.875,4652.47333 C269.15375,4652.76593 268.3525,4653.01547 267.49,4653.21813 C265.69875,4653.6412 263.6475,4653.86667 261.5,4653.86667 C259.3525,4653.86667 257.30125,4653.6412 255.51125,4653.21813 C254.65,4653.0142 253.8475,4652.76467 253.12625,4652.47333 C251.3775,4651.76527 250.25,4650.82033 250.25,4650.06667 L250.25,4650.06667 Z M275.1975,4655.0282 C274.2875,4655.0282 273.4,4655.11813 272.5375,4655.28913 C272.46875,4655.2372 272.40125,4655.18527 272.3275,4655.1346 C273.3925,4654.3898 274,4653.52593 274,4652.60127 L274,4650.06667 C274,4647.2686 268.40375,4645 261.5,4645 C254.59625,4645 249,4647.2686 249,4650.06667 L249,4652.6 C249,4653.5234 249.60875,4654.38853 250.6725,4655.13333 C249.60875,4655.87813 249,4656.74453 249,4657.66667 L249,4660.2 C249,4661.1234 249.60875,4661.98853 250.6725,4662.73333 C249.60875,4663.47813 249,4664.34453 249,4665.26667 L249,4667.8 C249,4668.7234 249.60875,4669.58853 250.6725,4670.33333 C249.60875,4671.07813 249,4671.94453 249,4672.86667 L249,4675.4 C249,4678.19807 254.59625,4680.46667 261.5,4680.46667 C263.34625,4680.46667 265.095,4680.30327 266.67375,4680.0132 C269.02,4681.88407 271.98,4683 275.1975,4683 C282.82125,4683 289,4676.7376 289,4669.01347 C289,4661.28933 282.82125,4655.0282 275.1975,4655.0282 L275.1975,4655.0282 Z" id="Page-1"></path>
        </g>
    </g>
</svg>