<svg id="icons" xmlns="http://www.w3.org/2000/svg" width="44.06px" height="44.06px" viewBox="0 0 44.06 44.06"><path fill="#bebfc6" d="M458.21,7310.63c0.52,2,1.75,3.9,3.74,3.9s3.24-1.87,3.75-3.93a1.87,1.87,0,0,0,.84-1.79A0.83,0.83,0,0,0,466,7308c-0.12-2.54-1.68-4.55-4-4.55s-3.89,2-4,4.52a0.84,0.84,0,0,0-.68.8A1.78,1.78,0,0,0,458.21,7310.63Z" transform="translate(-439.58 -7293.4)"/><path fill="#bebfc6" d="M469.56,7317a32,32,0,0,0-4.69-1.78l-0.07,0-0.05,0c-0.09,1-1.12,9.52-1.12,9.52s-1.13-7.28-1.14-7.29,0.48-1.12.48-1.12l-0.78-.73h-0.54l-0.78.73,0.47,1.12-1.06,7.29s-1.11-8.57-1.2-9.52h0l-0.08,0a31.8,31.8,0,0,0-4.69,1.78c-0.46.47-1.3,1.29-1.53,4.1,0,0.08,0,1,0,2.39,0.14,0.15.27,0.31,0.41,0.45a12.13,12.13,0,0,0,3.12,2.24c0-2.06,0-3.83,0-4a3.77,3.77,0,0,1,.19-1.47v5.58a12,12,0,0,0,10.93-.26v-5.32a3,3,0,0,1,.23,1.47c0,0.18,0,1.79,0,3.71a11.44,11.44,0,0,0,3.52-3.06c0-1,0-1.64,0-1.7C470.86,7318.29,470,7317.47,469.56,7317Z" transform="translate(-439.58 -7293.4)"/><path fill="#bebfc6" d="M483.36,7319a21.94,21.94,0,0,0,0-7.26h-3.71a18.21,18.21,0,0,0-2.73-6.51l2.62-2.62a21.93,21.93,0,0,0-5.15-5.12l-2.63,2.62a18.17,18.17,0,0,0-6.5-2.68v-3.71a21.94,21.94,0,0,0-7.26,0v3.71a18.3,18.3,0,0,0-6.5,2.69l-2.62-2.63a21.72,21.72,0,0,0-5.14,5.13l2.62,2.62a18.24,18.24,0,0,0-2.73,6.51H439.9a21.86,21.86,0,0,0,0,7.26h3.71a18.36,18.36,0,0,0,2.7,6.58l-2.62,2.62a21.59,21.59,0,0,0,5.12,5.15l2.62-2.62a18.33,18.33,0,0,0,6.59,2.74v3.71a21.84,21.84,0,0,0,7.26,0v-3.71a18.3,18.3,0,0,0,6.59-2.74l2.62,2.61a21.77,21.77,0,0,0,5.12-5.14l-2.62-2.63a18.38,18.38,0,0,0,2.7-6.57h3.71Zm-12.15,6a13.57,13.57,0,1,1,4-9.6A13.53,13.53,0,0,1,471.21,7325Z" transform="translate(-439.58 -7293.4)"/></svg>