<svg xmlns="http://www.w3.org/2000/svg" viewBox="0 0 25 25"><path d="M24.73 11.06l-12-6a.48.48 0 0 0-.43 0l-12 6a.48.48 0 0 0 0 .86l1.7.87v7.32a1.48 1.48 0 0 0-1 1.4 6.1 6.1 0 0 0 1.09 2.28l.4.57.4-.57A6.1 6.1 0 0 0 4 21.51a1.48 1.48 0 0 0-1-1.4v-6.84l2 1V16c0 1.29 4.69 1.48 7.49 1.48S20 17.29 20 16v-1.71l4.74-2.37a.48.48 0 0 0-.01-.86zM3 21.51a3.84 3.84 0 0 1-.52 1.11A3.83 3.83 0 0 1 2 21.51a.52.52 0 1 1 1 0zm9.5-5A26.86 26.86 0 0 1 6.4 16a26.87 26.87 0 0 1 6.1-.52 26.87 26.87 0 0 1 6.1.52 26.87 26.87 0 0 1-6.1.52zm6.5-1.35a24.56 24.56 0 0 0-6.53-.64 24.56 24.56 0 0 0-6.47.64v-2.51c.46-.26 2.66-.65 6.5-.65s6 .42 6.53.67v2.51zm1-1.94v-.73C20 11.2 15.3 11 12.5 11S5 11.2 5 12.49v.72l-3.44-1.72L12.5 6l10.94 5.47z"/></svg>