<svg id="icons" xmlns="http://www.w3.org/2000/svg" width="36.24px" height="32.22px" viewBox="0 0 36.24 32.22"><path fill="#bebfc6" d="M476.22,7838.08H442.27a1.15,1.15,0,0,0-1.15,1.15v29.92a1.15,1.15,0,0,0,1.15,1.15h33.94a1.15,1.15,0,0,0,1.15-1.15v-29.92A1.15,1.15,0,0,0,476.22,7838.08Zm-7.19,2.49a1.53,1.53,0,1,1-1.54,1.53A1.53,1.53,0,0,1,469,7840.57Zm-4.51,0a1.53,1.53,0,1,1-1.53,1.53A1.53,1.53,0,0,1,464.52,7840.57ZM475.06,7868H445.27l7.38-9.45,8.06,4.92,8.83-10.48,1.35,1.35v-4.6h-4.6l1.57,1.56-0.24-.2-7.47,8.87-8.14-5-8.58,11v-19.86h31.64V7868Zm-1.53-24.36a1.53,1.53,0,1,1,1.53-1.53A1.53,1.53,0,0,1,473.53,7843.64Z" transform="translate(-441.12 -7838.08)"/></svg>