<svg xmlns="http://www.w3.org/2000/svg" viewBox="0 0 25 25"><circle cx="20.34" cy="21.02" r="1.24"/><path d="M23.39 10.35A2.87 2.87 0 0 0 22 5a4.56 4.56 0 0 0 0-.55 4.37 4.37 0 0 0-8.49-1.53A2.15 2.15 0 0 0 12 2.25a2.18 2.18 0 0 0-2.15 2.18v.09A3.09 3.09 0 0 0 9 4.9a.49.49 0 0 0-.17 0h-5a1 1 0 0 0-.93.76L0 17.6a.49.49 0 0 0 .14.46v6.12a.52.52 0 0 0 .52.53h23.7a.52.52 0 0 0 .52-.53v-6a.61.61 0 0 0 .11-.5zM10.12 5.48l.75-.21v-.84A1.19 1.19 0 0 1 12 3.24a1.16 1.16 0 0 1 .83.35l1.1 1.11.54-1.46a3.38 3.38 0 0 1 6.57 1.19 3.57 3.57 0 0 1 0 .43L20.89 6h1.16a1.89 1.89 0 0 1 .66 3.63h-.12a.62.62 0 0 0-.23.1 1.83 1.83 0 0 1-.34 0H10.69a2.17 2.17 0 0 1-.57-4.25zm-6.24.37h4.2a3.14 3.14 0 0 0 2.61 4.86h11.49l1.44 6.6H1.11zm20 17.87H1.14v-5.44h22.74v5.44z"/></svg>