<svg id="icons" xmlns="http://www.w3.org/2000/svg" width="32.29" height="40.8" viewBox="0 0 32.29 40.8"><path fill="#bebfc6" d="M1649.76,7465.59v22.61a7.2,7.2,0,0,0-2.72-.52c-3.51,0-6.35,2.44-6.35,5.45s2.84,5.45,6.35,5.45,6.35-2.29,6.35-6v-14.81l16,5v10.49a7.2,7.2,0,0,0-2.72-.53c-3.51,0-6.35,2.44-6.35,5.45s2.84,5.45,6.35,5.45c3.08,0,6.28-1.89,6.35-5.48v-27a2.46,2.46,0,0,0-1.92-2.64l-17.76-5.56a2.61,2.61,0,0,0-3.53,2.59h0Zm3.63,6.51v-3.38l16,5v3.38Z" transform="translate(-1640.69 -7462.86)"/></svg>