<svg xmlns="http://www.w3.org/2000/svg" viewBox="0 0 25 25"><path d="M24 .19a1.46 1.46 0 0 0-1.89.35l-4.28 8.07a3.37 3.37 0 0 0-4.58 1.83c-2.61 6.65-9.64 6.46-9.72 6.46a.5.5 0 0 0-.47.25.48.48 0 0 0 .05.53A20.22 20.22 0 0 0 17.18 25a.48.48 0 0 0 .26-.07c.14-.09 3.1-2 5.22-7.48a.47.47 0 0 0 .15-.38c.24-.66.48-1.35.69-2.11a.46.46 0 0 0 0-.12 3.46 3.46 0 0 0-1.67-4.42L25 1.75a1.4 1.4 0 0 0-1-1.56zm-2 16.43a2.35 2.35 0 0 1-2-.85.48.48 0 0 0-.59-.23 1.59 1.59 0 0 1-1.16-.16 1.26 1.26 0 0 1-.67-.67.48.48 0 0 0-.26-.3.49.49 0 0 0-.39 0 1.56 1.56 0 0 1-1.12-.2 1 1 0 0 1-.57-.59.48.48 0 0 0-.24-.33.48.48 0 0 0-.38-.06 1.46 1.46 0 0 1-1.43-.52 11.33 11.33 0 0 0 .68-1.27 2.87 2.87 0 0 0 1.48.63 2.16 2.16 0 0 0 .62.54 3.77 3.77 0 0 0 1.73.56 2.6 2.6 0 0 0 1 .81 2.42 2.42 0 0 0 1.38.29 3.27 3.27 0 0 0 2.34 1c-.17.49-.32.94-.42 1.35zM17.06 24a18.11 18.11 0 0 1-3.37-.62 12.5 12.5 0 0 0 3.51-3.58.48.48 0 1 0-.8-.54 10.16 10.16 0 0 1-4 3.72 20 20 0 0 1-3.7-1.69 9.61 9.61 0 0 0 4.19-2.91.48.48 0 1 0-.72-.64c-2.32 2.6-4.46 2.8-4.48 2.8h-.12a18.1 18.1 0 0 1-3.08-2.7 11.68 11.68 0 0 0 8.12-4.35 2.41 2.41 0 0 0 1.81.72 2.2 2.2 0 0 0 .89.82 2.88 2.88 0 0 0 1.5.35 2.44 2.44 0 0 0 1 .84 2.66 2.66 0 0 0 1.54.3 3.27 3.27 0 0 0 2.26 1A15.42 15.42 0 0 1 17.06 24zm5.61-11.4a2.57 2.57 0 0 1 0 1.73c-.64 0-1.73-.23-1.93-.82a.48.48 0 0 0-.67-.28 1.16 1.16 0 0 1-.93-.12 1.39 1.39 0 0 1-.69-.58.48.48 0 0 0-.24-.34.49.49 0 0 0-.41 0 2.66 2.66 0 0 1-1.7-.65.48.48 0 0 0-.52-.43 1.88 1.88 0 0 1-1.32-.57 2.45 2.45 0 0 1 3.33-1h.13l.08.06a.47.47 0 0 0 .2.05c.64.27 1.84.81 2.49 1.11l.51.3h.06l.18.08a2.56 2.56 0 0 1 1.42 1.49zM21 10h-.06l-2.21-1 4.22-8a.65.65 0 0 1 .67 0 .69.69 0 0 1 .43.39zM4 6a2 2 0 1 0-2 2 2 2 0 0 0 2-2zM2 7a1 1 0 1 1 1-1 1 1 0 0 1-1 1z"/><circle cx="6.49" cy="6.48" r="1.48"/><path d="M5.74 14.48A2.74 2.74 0 1 0 3 11.74a2.74 2.74 0 0 0 2.74 2.74zm0-4.51A1.77 1.77 0 1 1 4 11.74 1.77 1.77 0 0 1 5.74 10z"/></svg>