<?xml version="1.0" encoding="UTF-8"?>
<svg width="12px" height="16px" viewBox="0 0 12 16" version="1.1" xmlns="http://www.w3.org/2000/svg" xmlns:xlink="http://www.w3.org/1999/xlink">
    <g id="Page-1" stroke="none" stroke-width="1" fill="none" fill-rule="evenodd">
        <g id="Desktop" transform="translate(-359.000000, -1453.000000)" fill="#56B78B">
            <g id="Group-2" transform="translate(260.000000, 1065.000000)">
                <g id="Group" transform="translate(0.000000, 352.000000)">
                    <g id="Group-4" transform="translate(67.000000, 36.000000)">
                        <path d="M41.1428571,9.14285714 L41.1428571,11.4285714 L38.8571429,11.4285714 L38.8571429,9.14285714 L41.1428571,9.14285714 Z M34.2857143,6.85714286 L36.5714286,6.85714286 L36.5714286,4.57142857 L34.2857143,4.57142857 L34.2857143,6.85714286 Z M38.8571429,0 L36.5714286,0 L36.5714286,2.28571429 L32,2.28571429 L32,9.14285714 L36.5714286,9.14285714 L36.5714286,11.4285714 L32,11.4285714 L32,13.7142857 L36.5714286,13.7142857 L36.5714286,16 L38.8571429,16 L38.8571429,13.7142857 L43.4285714,13.7142857 L43.4285714,6.85714286 L38.8571429,6.85714286 L38.8571429,4.57142857 L43.4285714,4.57142857 L43.4285714,2.28571429 L38.8571429,2.28571429 L38.8571429,0 Z" id="Fill-26"></path>
                    </g>
                </g>
            </g>
        </g>
    </g>
</svg>