<svg xmlns="http://www.w3.org/2000/svg" viewBox="0 0 25 25"><path d="M12.5 22.59a10 10 0 0 1-1.84-.22.48.48 0 0 1-.38-.56.49.49 0 0 1 .56-.38 9.06 9.06 0 0 0 1.66.2 8.2 8.2 0 0 0 8-8.33 8.2 8.2 0 0 0-8-8.3 6 6 0 0 0-1.62.19.48.48 0 0 1-.26-.93A6.93 6.93 0 0 1 12.5 4a9.16 9.16 0 0 1 9 9.3 9.16 9.16 0 0 1-9 9.29z"/><path d="M16 22.59a10 10 0 0 1-1.84-.22.48.48 0 0 1-.38-.56.49.49 0 0 1 .56-.38 9.07 9.07 0 0 0 1.66.2 8.2 8.2 0 0 0 8-8.33A8.2 8.2 0 0 0 16 5a6 6 0 0 0-1.62.19.48.48 0 0 1-.26-.93A6.93 6.93 0 0 1 16 4a9.16 9.16 0 0 1 9 9.3 9.16 9.16 0 0 1-9 9.29z"/><path d="M9 22.59a9.16 9.16 0 0 1-9-9.29A9.16 9.16 0 0 1 9 4a9.16 9.16 0 0 1 9 9.3 9.16 9.16 0 0 1-9 9.29zM9 5a8.2 8.2 0 0 0-8 8.3 8.2 8.2 0 0 0 8 8.33 8.2 8.2 0 0 0 8-8.33A8.2 8.2 0 0 0 9 5z"/><path d="M12 15.11c0-1.65-1.35-2.1-2.65-2.4-1.05-.25-2-.5-2-1.55A1.45 1.45 0 0 1 9 9.71a1.62 1.62 0 0 1 1.7 1.45h1A2.75 2.75 0 0 0 9.5 8.8V7.65h-1v1.1a2.54 2.54 0 0 0-2.25 2.5c0 3.21 4.66 1.55 4.66 4 0 .8-.35 1.55-1.9 1.55a1.87 1.87 0 0 1-2-1.85H6a2.81 2.81 0 0 0 2.5 2.8v1h1v-1a2.59 2.59 0 0 0 2.5-2.64z"/></svg>