<svg id="icons" xmlns="http://www.w3.org/2000/svg" width="42.62px" height="28.86px" viewBox="0 0 42.62 28.86"><path fill="#bebfc6" d="M1671.81,7746.09l8.85,16.12H1638l8.85-16.12h24.92Zm1.47,13.53a0.58,0.58,0,0,0-.63-0.49h-26.58a0.73,0.73,0,0,0-.45.14,0.44,0.44,0,0,0-.19.35,0.58,0.58,0,0,0,.63.49h26.58A0.58,0.58,0,0,0,1673.28,7759.62Zm-1.53-2.79a0.53,0.53,0,0,0-.56-0.49h-23.65a0.61,0.61,0,0,0-.4.14,0.47,0.47,0,0,0-.16.35,0.53,0.53,0,0,0,.56.49h23.65A0.53,0.53,0,0,0,1671.75,7756.83Zm-1-2.73a0.51,0.51,0,0,0-.52-0.49h-21.82a0.53,0.53,0,0,0-.37.14,0.48,0.48,0,0,0-.15.35,0.51,0.51,0,0,0,.52.49h21.82A0.51,0.51,0,0,0,1670.79,7754.1Zm-1.81-2.38a0.49,0.49,0,0,0,0-1h-19.23a0.44,0.44,0,0,0-.32.14,0.51,0.51,0,0,0-.13.35,0.48,0.48,0,0,0,.46.49H1669Zm-0.19-3.13a0.46,0.46,0,0,0-.43-0.49h-18a0.41,0.41,0,0,0-.31.14,0.53,0.53,0,0,0-.13.35,0.46,0.46,0,0,0,.43.49h18A0.46,0.46,0,0,0,1668.78,7748.58Z" transform="translate(-1638.04 -7746.09)"/><polygon fill="#bebfc6" points="40.27 18.23 42.62 22.5 31.9 22.5 10.72 22.5 0 22.5 2.35 18.23 40.27 18.23"/><polygon fill="#bebfc6" points="40.27 24.58 42.62 28.86 31.9 28.86 10.72 28.86 0 28.86 2.35 24.58 40.27 24.58"/></svg>