<svg xmlns="http://www.w3.org/2000/svg" viewBox="0 0 25 25"><path d="M12.87 0h-.37a12.5 12.5 0 0 0 0 25h.37a12.49 12.49 0 0 0 0-25zM9.65 1.33a10.7 10.7 0 0 0-2.58 4.38 20.59 20.59 0 0 1-2.93-1.13 11.53 11.53 0 0 1 5.51-3.25zm-6.17 4a21.18 21.18 0 0 0 3.3 1.3A21.94 21.94 0 0 0 6 12H1a11.47 11.47 0 0 1 2.48-6.68zm0 14.39A11.47 11.47 0 0 1 1 13h5a21.94 21.94 0 0 0 .74 5.38 20.78 20.78 0 0 0-3.23 1.33zm.66.74a20 20 0 0 1 2.9-1.18 10.71 10.71 0 0 0 2.59 4.39 11.53 11.53 0 0 1-5.47-3.22zm8 3.53C10.48 23.68 9 21.76 8 19a19.34 19.34 0 0 1 4.17-.65V24zm0-6.6a20.42 20.42 0 0 0-4.46.7A20.73 20.73 0 0 1 7 13h5.18v4.41zm0-5.37H7a20.72 20.72 0 0 1 .73-5.13 21.2 21.2 0 0 0 4.45.67V12zm0-5.42A20.18 20.18 0 0 1 8 6c1-2.77 2.48-4.68 4.18-5v5.6zm9.34-1.27A11.47 11.47 0 0 1 24 12h-4.71a22 22 0 0 0-.73-5.35 17 17 0 0 0 2.96-1.32zm-.64-.74a16 16 0 0 1-2.6 1.16 11 11 0 0 0-2.46-4.3 11.54 11.54 0 0 1 5.1 3.14zM13.15 1c1.72.31 3.24 2.25 4.19 5a16.63 16.63 0 0 1-4.19.57V1zm0 6.56A17.59 17.59 0 0 0 17.62 7a20.77 20.77 0 0 1 .71 5h-5.18V7.57zm0 5.41h5.18a20.8 20.8 0 0 1-.7 5 16.88 16.88 0 0 0-4.48-.64V13zm0 11v-5.64a16 16 0 0 1 4.2.6c-.95 2.8-2.48 4.75-4.2 5.07zm2.67-.44a11 11 0 0 0 2.46-4.31 15.71 15.71 0 0 1 2.58 1.2 11.54 11.54 0 0 1-5.04 3.13zm5.68-3.83a16.68 16.68 0 0 0-2.94-1.38 22 22 0 0 0 .73-5.32H24a11.47 11.47 0 0 1-2.5 6.7z"/></svg>