<?xml version="1.0" encoding="UTF-8"?>
<svg width="33px" height="30px" viewBox="0 0 33 30" version="1.1" xmlns="http://www.w3.org/2000/svg" xmlns:xlink="http://www.w3.org/1999/xlink">
    <g id="Page-1" stroke="none" stroke-width="1" fill="none" fill-rule="evenodd">
        <g id="Desktop" transform="translate(-280.000000, -1438.000000)" fill="#C0C7CF">
            <g id="Group-2" transform="translate(260.000000, 1065.000000)">
                <g id="Group" transform="translate(0.000000, 352.000000)">
                    <path d="M43.9977705,41.4980957 L43.9977705,43.4979099 L41.9979563,43.4979099 L41.9979563,41.4980957 L43.9977705,41.4980957 Z M37.9983279,39.4982815 L39.9981421,39.4982815 L39.9981421,37.4984672 L37.9983279,37.4984672 L37.9983279,39.4982815 Z M41.9979563,33.4988388 L39.9981421,33.4988388 L39.9981421,35.498653 L35.9985137,35.498653 L35.9985137,41.4980957 L39.9981421,41.4980957 L39.9981421,43.4979099 L35.9985137,43.4979099 L35.9985137,45.4977241 L39.9981421,45.4977241 L39.9981421,47.4975383 L41.9979563,47.4975383 L41.9979563,45.4977241 L45.9975847,45.4977241 L45.9975847,39.4982815 L41.9979563,39.4982815 L41.9979563,37.4984672 L45.9975847,37.4984672 L45.9975847,35.498653 L41.9979563,35.498653 L41.9979563,33.4988388 Z M32.2458623,39.9562389 C32.2458623,34.9677024 36.2904866,30.9230781 41.2790231,30.9230781 C46.2675597,30.9230781 50.3121839,34.9677024 50.3121839,39.9562389 C50.3121839,44.9457754 46.2685596,48.9893997 41.2790231,48.9893997 C36.2904866,48.9893997 32.2458623,44.9447755 32.2458623,39.9562389 Z M30.3220411,33.9987924 C28.6042006,33.9987924 26.9633531,33.8208089 25.5314861,33.4868399 C24.8425501,33.3258549 24.2006098,33.1288732 23.6236634,32.8988946 C22.2257932,32.3399465 21.3228771,31.5940158 21.3228771,30.9990711 C21.3228771,30.5571121 21.8208308,30.0331608 22.647754,29.5642044 C24.4825836,30.4411229 27.2393274,30.9990711 30.3220411,30.9990711 C32.3828496,30.9990711 34.294672,30.7490943 35.8865241,30.3221339 C34.3236693,31.1980526 32.9967926,32.4429369 32.022883,33.9387979 C31.4689345,33.9777943 30.8999874,33.9987924 30.3220411,33.9987924 L30.3220411,33.9987924 Z M30.3220411,45.9976776 C27.7752777,45.9976776 25.3964986,45.606714 23.6226634,44.8977798 C22.2257932,44.3388318 21.3228771,43.5929011 21.3228771,42.9979563 C21.3228771,42.5559974 21.8208308,42.0320461 22.647754,41.5630896 C24.4825836,42.4400082 27.2393274,42.9979563 30.3220411,42.9979563 C30.4360305,42.9979563 30.54902,42.9969564 30.6620095,42.9949566 C30.9629815,44.0498586 31.4179392,45.0397666 31.9988853,45.939683 C31.4519361,45.9786794 30.8909882,45.9976776 30.3220411,45.9976776 L30.3220411,45.9976776 Z M21.3228771,36.9985137 C21.3228771,36.5565548 21.8208308,36.0326034 22.647754,35.563647 C24.4825836,36.4405655 27.2393274,36.9985137 30.3220411,36.9985137 C30.430031,36.9985137 30.4150324,36.9975138 30.5200227,36.995514 C30.2590469,37.9384264 29.9990711,38.9303342 29.9990711,39.9562389 L29.9990711,39.9972351 C28.999164,39.9912357 26.8203664,39.8142521 25.4114973,39.4862826 C24.7215614,39.3252975 24.1406153,39.1283158 23.5636689,38.8983372 C22.1647989,38.3393891 21.3228771,37.5934584 21.3228771,36.9985137 L21.3228771,36.9985137 Z M21.3228771,24.9996284 C21.3228771,24.4046837 22.2257932,23.658753 23.6226634,23.0998049 C25.3964986,22.3908708 27.7752777,21.9999071 30.3220411,21.9999071 C32.8688045,21.9999071 35.2475835,22.3908708 37.0214187,23.0998049 C38.4192888,23.658753 39.321205,24.4046837 39.321205,24.9996284 C39.321205,25.5945732 38.4192888,26.3405039 37.0214187,26.8994519 C36.4444723,27.1304305 35.8045317,27.3274122 35.1135959,27.4873973 C33.6817289,27.8213663 32.0398815,27.9993497 30.3220411,27.9993497 C28.6042006,27.9993497 26.9633531,27.8213663 25.5314861,27.4873973 C24.8425501,27.3264123 24.2006098,27.1294306 23.6236634,26.8994519 C22.2257932,26.3405039 21.3228771,25.5945732 21.3228771,24.9996284 L21.3228771,24.9996284 Z M39.1512208,29.1222454 C39.0972258,29.0812492 38.880246,29.040253 38.8222514,29.0002568 C39.6731723,28.4123114 39.9981421,27.7303747 39.9981421,27.0004425 L39.9981421,24.9996284 C39.9981421,22.7908336 35.521558,21 29.9990711,21 C24.4765841,21 20,22.7908336 20,24.9996284 L20,26.9994426 C20,27.7283749 20.4869548,28.4113115 21.3378757,28.9992568 C20.4869548,29.5872022 20,30.2701388 20,30.9990711 L20,32.9988853 C20,33.7278175 20.4869548,34.4107541 21.3378757,34.9986995 C20.4869548,35.5866449 20,36.2695814 20,36.9985137 L20,38.9983279 C20,39.7272602 20.4869548,40.4101967 21.3378757,40.9981421 C20.4869548,41.5860875 20,42.269024 20,42.9979563 L20,44.9977705 C20,47.2065653 24.6375692,48.997399 30.161056,48.997399 C31.6369189,48.997399 33.1167814,48.8684109 34.3796641,48.6394322 C36.2564897,50.116295 38.6652659,50.9972132 41.2390268,50.9972132 C47.3364604,50.9972132 52.2999992,46.0536724 52.2999992,39.9562389 C52.2999992,33.8588054 47.3774566,28.9162646 41.2790231,28.9162646 C40.5520907,28.9162646 39.8411567,28.987258 39.1512208,29.1222454 Z" id="Fill-26"></path>
                </g>
            </g>
        </g>
    </g>
</svg>