<!-- Generator: Adobe Illustrator 18.1.1, SVG Export Plug-In  -->
<svg version="1.1"
   xmlns="http://www.w3.org/2000/svg" xmlns:xlink="http://www.w3.org/1999/xlink" xmlns:a="http://ns.adobe.com/AdobeSVGViewerExtensions/3.0/"
   x="0px" y="0px" width="20px" height="20px" viewBox="0 0 20 20" enable-background="new 0 0 20 20" xml:space="preserve">
<defs>
</defs>
<path fill="#BEBFC6" d="M8,0H1.3C0.6,0,0,0.6,0,1.3V8c0,0.7,0.6,1.3,1.3,1.3H8c0.7,0,1.3-0.6,1.3-1.3V1.3C9.3,0.6,8.7,0,8,0z M8,5.3
  H1.3V4H8V5.3z M18.7,0H12c-0.7,0-1.3,0.6-1.3,1.3v17.3c0,0.7,0.6,1.3,1.3,1.3h6.7c0.7,0,1.3-0.6,1.3-1.3V1.3C20,0.6,19.4,0,18.7,0z
   M18.7,12H12v-1.3h6.7V12z M18.7,8H12V6.7h6.7V8z M8,10.7H1.3C0.6,10.7,0,11.3,0,12v6.7C0,19.4,0.6,20,1.3,20H8
  c0.7,0,1.3-0.6,1.3-1.3V12C9.3,11.3,8.7,10.7,8,10.7z M8,16H5.3v2.7H4V16H1.3v-1.3H4V12h1.3v2.7H8V16z"/>
</svg>
