<svg width="28px" height="32px" viewBox="0 0 28 30" version="1.1" xmlns="http://www.w3.org/2000/svg" xmlns:xlink="http://www.w3.org/1999/xlink">
  <g stroke="none" stroke-width="1" fill="none" fill-rule="evenodd">
      <path d="M20.35,15.51L19.14,15H14.71a1,1,0,0,0-.91-0.61,1.13,1.13,0,0,0-1.11,1.12,0.89,0.89,0,0,0,.6.92v6.12l0.5,1.33,0.5-1.33V16.43a1.22,1.22,0,0,0,.5-0.51h4.43Z" style="fill: #dee7ed"/>
      <path d="M14,1.73l-0.49,0a9.64,9.64,0,0,1,1.4,2.88,11,11,0,0,1,4.28,1.26L18.38,7.32l0.7,0.41L19.9,6.29a11.24,11.24,0,0,1,3.52,3.52l-1.49.87,0.4,0.71,1.49-.87a11.39,11.39,0,0,1,1.34,5H23.47v0.82h1.69a11.19,11.19,0,0,1-1.3,4.88l-1.46-.86-0.4.71,1.45,0.85a11.25,11.25,0,0,1-3.53,3.52L19.07,24l-0.7.41,0.84,1.48a11.08,11.08,0,0,1-4.81,1.28V25.51H13.6v1.61a10.93,10.93,0,0,1-4.85-1.33l0.83-1.46-0.7-.41L8.05,25.39a11.39,11.39,0,0,1-3.47-3.52L6,21.06l-0.4-.71-1.39.81a11.33,11.33,0,0,1-1.31-4.47A9.51,9.51,0,0,1,0,15.21c0,0.2,0,.4,0,0.6A14.13,14.13,0,0,0,14,30,14.06,14.06,0,0,0,28,15.82,14,14,0,0,0,14,1.73Z" style="fill: #dee7ed"/>
      <path d="M11,4.29V2.14H6.75V0H4.63V2.14H0.4V8.57H4.63v2.14H0.4v2.14H4.63V15H6.75V12.86H11V6.43H6.75V4.29H11ZM4.63,6.43H2.52V4.29H4.63V6.43ZM8.86,8.57v2.14H6.75V8.57H8.86Z" style="fill: #dee7ed"/>
  </g>
</svg>
