<!-- Generator: Adobe Illustrator 18.1.1, SVG Export Plug-In  -->
<svg version="1.1"
   xmlns="http://www.w3.org/2000/svg" xmlns:xlink="http://www.w3.org/1999/xlink" xmlns:a="http://ns.adobe.com/AdobeSVGViewerExtensions/3.0/"
   x="0px" y="0px" width="17.5px" height="20px" viewBox="0 0 17.5 20" enable-background="new 0 0 17.5 20" xml:space="preserve">
<defs>
</defs>
<path fill="#BEBFC6" d="M8.7,6.2C7.1,4.5,0,3.4,0,11.4c0,5,6.3,10.4,8.7,7.9h0c2.5,2.5,8.7-3,8.7-7.9C17.5,3.4,10.4,4.5,8.7,6.2z
   M15,13.3c-0.5,1.8-2,3.5-3.9,4.7c1.9-2.3,3.1-6.1,2-9.1C12.8,8,12.4,7.3,12,6.6C14.2,7.4,16.1,9.3,15,13.3z M8.1,4
  c0.3-0.1,0.5-0.1,0.8-0.2C8.8,4.1,8.7,4.6,8.7,5h0.4c0.4-1.7,1.7-3.7,3.5-3.7c0-0.9-0.6-1.3-1.3-1.3c-0.7,0.3-1.3,0.9-1.7,1.8
  C9.4,2.2,9.1,2.9,8.9,3.6c0-0.2-0.1-0.4-0.2-0.6C8,0.8,5.3-0.5,2.8,0.2C2.5,0.2,2.2,0.3,2,0.4C2,0.7,2,0.9,2.1,1.2
  C2.9,3.3,5.6,4.6,8.1,4z"/>
</svg>
