<svg id="icons" xmlns="http://www.w3.org/2000/svg" width="27.53px" height="36.29px" viewBox="0 0 27.53 36.29"><path fill="#bebfc6" d="M455.83,7949l2.84-.84a0.39,0.39,0,0,0,.19-0.62l-9.79-12.25a0.39,0.39,0,0,0-.31-0.15l-0.11,0-2.41.71a0.39,0.39,0,0,0-.28.34l-1.26,15.49a0.39,0.39,0,0,0,.39.42l0.11,0,2.71-.79a0.39,0.39,0,0,0,.28-0.35l0.23-3.78a0.49,0.49,0,0,1,.35-0.44l3.76-1.11,0.14,0a0.49,0.49,0,0,1,.39.19l2.33,3a0.39,0.39,0,0,0,.31.15Zm-5.3-6.2a0.49,0.49,0,0,1-.33.32l-0.85.25-0.14,0a0.49,0.49,0,0,1-.49-0.53l0.09-1.26a0.49,0.49,0,0,1,.35-0.44l0.14,0a0.49,0.49,0,0,1,.39.2l0.76,1A0.49,0.49,0,0,1,450.52,7942.81Z" transform="translate(-444.71 -7926.92)"/><path fill="#bebfc6" d="M466.33,7942.21a9.81,9.81,0,0,0,2.4-.26,5,5,0,0,0,1.79-.82,4.32,4.32,0,0,0,1.24-1.56,4.79,4.79,0,0,0,.49-2.14,4.09,4.09,0,0,0-.83-2.56,3.83,3.83,0,0,0-.57-0.61,0.49,0.49,0,0,1-.07-0.67,3.6,3.6,0,0,0,.21-0.31,4,4,0,0,0,.59-2.07,4.14,4.14,0,0,0-.66-2.22,4,4,0,0,0-1.84-1.6,7.12,7.12,0,0,0-2.84-.49h-5.55a0.39,0.39,0,0,0-.39.39v14.51a0.39,0.39,0,0,0,.39.39h5.63Zm-2.6-11.58a0.49,0.49,0,0,1,.49-0.49h1.44a6.73,6.73,0,0,1,1.84.16,0.83,0.83,0,0,1,.49.38,1.37,1.37,0,0,1,.2.76,1.13,1.13,0,0,1-.21.73,1.09,1.09,0,0,1-.61.38,5.74,5.74,0,0,1-1.49.12h-1.66a0.49,0.49,0,0,1-.49-0.49v-1.54Zm0,5.75a0.49,0.49,0,0,1,.49-0.49h1.86a6,6,0,0,1,1.74.18,1.29,1.29,0,0,1,.68.49,1.46,1.46,0,0,1,.25.88,1.62,1.62,0,0,1-.17.75,1.21,1.21,0,0,1-.42.48,2.07,2.07,0,0,1-.74.26,7.41,7.41,0,0,1-1.1.05h-2.11a0.49,0.49,0,0,1-.49-0.49v-2.1Z" transform="translate(-444.71 -7926.92)"/><path fill="#bebfc6" d="M471.1,7950.52a6.42,6.42,0,0,0-3.25-2.52,7.75,7.75,0,0,0-2.76-.52,7.47,7.47,0,0,0-1,.07,6.37,6.37,0,0,0-3.46,1.64,8.88,8.88,0,0,0-2.3,3.51,10.08,10.08,0,0,0-.67,4,6.39,6.39,0,0,0,1.2,3.64,7.28,7.28,0,0,0,3.41,2.39,7.06,7.06,0,0,0,2.5.48,6,6,0,0,0,1.83-.28,7,7,0,0,0,3.54-2.77l0.23-.34a0.39,0.39,0,0,0-.1-0.54l-2.23-1.55a0.39,0.39,0,0,0-.22-0.07h-0.08a0.39,0.39,0,0,0-.25.17l-0.22.35a3.74,3.74,0,0,1-1.85,1.61,2.86,2.86,0,0,1-.95.16,3.44,3.44,0,0,1-1.22-.24,3.7,3.7,0,0,1-1.6-1.17,3,3,0,0,1-.62-1.9,7.54,7.54,0,0,1,.55-2.73,7.42,7.42,0,0,1,1.2-2.08,3.13,3.13,0,0,1,1.7-1.1,2.9,2.9,0,0,1,.76-0.1,4.21,4.21,0,0,1,1.48.3,2.89,2.89,0,0,1,1.49,1.12,3.49,3.49,0,0,1,.4,2.05l0,0.39a0.39,0.39,0,0,0,.34.4l2.63,0.34h0.05a0.39,0.39,0,0,0,.39-0.36l0-.43A6.22,6.22,0,0,0,471.1,7950.52Z" transform="translate(-444.71 -7926.92)"/></svg>