<?xml version="1.0" encoding="UTF-8"?>
<svg width="47px" height="47px" viewBox="0 0 47 47" version="1.1" xmlns="http://www.w3.org/2000/svg" xmlns:xlink="http://www.w3.org/1999/xlink">
    <!-- Generator: Sketch 50 (54983) - http://www.bohemiancoding.com/sketch -->
    <title>Online Programs</title>
    <defs>
        <polygon id="path-1" points="0 46.6492537 46.7211567 46.6492537 46.7211567 0.331104478 0 0.331104478"></polygon>
    </defs>
    <g id="Page-1" stroke="none" stroke-width="1" fill="none" fill-rule="evenodd">
        <g id="Homepage-Desktop" transform="translate(-760.000000, -903.000000)">
            <g id="Page-1" transform="translate(760.000000, 903.000000)">
                <polygon id="Fill-1" fill="#349BA7" points="0 0.350711194 3.87188806 4.22189776 42.8496194 4.22189776 46.7211567 0.350711194"></polygon>
                <polygon id="Fill-2" fill="#3DB5C3" points="0 0.350711194 0 39.0664351 3.87188806 35.1955993 3.87188806 4.22189776"></polygon>
                <polygon id="Fill-3" fill="#3DB5C3" points="46.721297 0.350711194 42.8497597 4.22189776 42.8497597 35.1955993 46.721297 39.0664351"></polygon>
                <polygon id="Fill-4" fill="#349BA7" points="3.87202836 35.195494 0.000140298507 39.0666806 46.721297 39.0666806 42.8497597 35.195494"></polygon>
                <polygon id="Fill-5" fill="#AEEFF6" points="3.87188806 35.1952836 42.8496194 35.1952836 42.8496194 4.22158209 3.87188806 4.22158209"></polygon>
                <g id="Group-25" transform="translate(0.000000, 0.019642)">
                    <path d="M12.7829828,8.89857313 C12.1554978,10.7775209 10.6588634,12.2738045 8.77921418,12.9016403 L8.60278881,12.9602149 L8.60278881,26.417297 L8.77921418,26.4765731 C10.6588634,27.1037075 12.1554978,28.6003418 12.7829828,30.4792896 L12.8415575,30.6553642 L33.8800201,30.6553642 L33.9385948,30.4792896 C34.5657291,28.6003418 36.0627142,27.1037075 37.9420127,26.4765731 L38.1184381,26.417297 L38.1184381,12.9602149 L37.9420127,12.9016403 C36.0627142,12.2738045 34.5657291,10.7775209 33.9385948,8.89857313 L33.8800201,8.72214776 L12.8415575,8.72214776 L12.7829828,8.89857313 Z M11.4013933,32.2288119 C11.2463634,31.519603 10.9822515,30.8584463 10.6150201,30.2621776 C10.1874604,29.5687522 9.64380373,29.0075582 9.00018433,28.5957821 C8.39339328,28.2078567 7.73153507,27.9732075 7.0289903,27.896394 L7.0289903,11.5200507 C7.73855,11.3653716 8.39935597,11.1012597 8.99667687,10.7336776 C9.69080373,10.3061179 10.251647,9.76316269 10.6630724,9.11954328 C11.0516993,8.51310299 11.2863485,7.85159552 11.3631619,7.14905075 L35.3198336,7.14905075 C35.4748634,7.85861045 35.7393261,8.51941642 36.1062067,9.11568507 C36.5341172,9.80946119 37.0774231,10.3703045 37.7210425,10.7824313 C38.3281843,11.170006 38.9896918,11.405006 39.6922366,11.4818194 L39.6922366,27.8581627 C38.9830276,28.012491 38.3222216,28.2762522 37.7249007,28.6441851 C37.0307739,29.0717448 36.4699306,29.6150507 36.0581545,30.2586701 C35.6702291,30.8647597 35.4348784,31.5266179 35.3584157,32.2288119 L11.4013933,32.2288119 Z" id="Fill-6" fill="#349BA7"></path>
                    <g id="Clip-9"></g>
                    <polygon id="Fill-8" fill="#3DB5C3" points="15.4731716 13.6426269 31.2479851 13.6426269 31.2479851 10.6314701 15.4731716 10.6314701"></polygon>
                    <polygon id="Fill-10" fill="#3DB5C3" points="10.7766791 16.9112313 35.9444776 16.9112313 35.9444776 15.6853731 10.7766791 15.6853731"></polygon>
                    <polygon id="Fill-11" fill="#3DB5C3" points="10.7766791 19.688791 35.9444776 19.688791 35.9444776 18.4629328 10.7766791 18.4629328"></polygon>
                    <polygon id="Fill-12" fill="#3DB5C3" points="15.4731716 22.4663507 31.2479851 22.4663507 31.2479851 21.2404925 15.4731716 21.2404925"></polygon>
                    <polygon id="Fill-13" fill="#3DB5C3" points="15.4731716 25.2439104 31.2479851 25.2439104 31.2479851 24.0180522 15.4731716 24.0180522"></polygon>
                    <polygon id="Fill-14" fill="#3DB5C3" points="15.4731716 28.0214701 31.2479851 28.0214701 31.2479851 26.7956119 15.4731716 26.7956119"></polygon>
                    <path d="M33.6503866,29.5226993 C32.8482299,30.0610948 32.0348493,30.5724828 31.2134015,31.0554604 C33.4416925,34.8887664 35.0439015,39.3905948 35.7127746,44.3526022 C36.5640358,43.3901545 37.3809239,42.3694828 38.1571254,41.2926918 C39.2402299,41.7107813 40.3194761,42.1492142 41.3934612,42.608341 C40.5001104,37.1156545 38.6064313,32.1161172 36.0221328,27.8275425 C35.2424239,28.4192515 34.4518418,28.9843037 33.6503866,29.5226993" id="Fill-15" fill="#D14F4F"></path>
                    <path d="M33.6503866,29.5226993 C35.6959388,32.9894754 37.2613194,36.9553634 38.1571254,41.2926918 C39.2402299,41.7107813 40.3194761,42.1492142 41.3934612,42.608341 C40.5001104,37.1156545 38.6064313,32.1161172 36.0221328,27.8275425 C35.2424239,28.4192515 34.4518418,28.9843037 33.6503866,29.5226993" id="Fill-16" fill="#9C3D37"></path>
                    <path d="M33.2080254,30.3757843 C32.251891,30.2803813 31.2971597,30.2028664 30.3431299,30.1446425 C30.2140552,35.0301873 28.7577567,39.5765604 26.3526896,43.3562022 C27.507697,43.3165679 28.6739284,43.2159037 29.8447194,43.0531575 C30.3210328,44.1913291 30.7278985,45.3926351 31.0544433,46.649359 C34.0333313,42.0552843 35.8389731,36.5713664 36.0729209,30.7177619 C35.118891,30.5855306 34.1627567,30.4715381 33.2080254,30.3757843" id="Fill-17" fill="#D14F4F"></path>
                    <path d="M33.2080254,30.3757843 C33.0607119,34.9554784 31.8597567,39.2815828 29.8447194,43.0531575 C30.3210328,44.1913291 30.7278985,45.3926351 31.0544433,46.649359 C34.0333313,42.0552843 35.8389731,36.5713664 36.0729209,30.7177619 C35.118891,30.5855306 34.1627567,30.4715381 33.2080254,30.3757843" id="Fill-18" fill="#9C3D37"></path>
                    <path d="M33.8727246,23.3147358 C31.3799709,23.3147358 29.3586201,25.3350343 29.3586201,27.8274373 C29.3586201,30.3198403 31.3799709,32.3401388 33.8727246,32.3401388 C36.3651276,32.3401388 38.3868291,30.3198403 38.3868291,27.8274373 C38.3868291,25.3350343 36.3651276,23.3147358 33.8727246,23.3147358" id="Fill-19" fill="#9C3D37"></path>
                    <path d="M33.8727246,32.3401037 C31.3799709,32.3401037 29.3586201,30.3198052 29.3586201,27.8274022 C29.3586201,25.3349993 31.3799709,23.3147007 33.8727246,23.3147007 C36.3651276,23.3147007 38.3868291,25.3349993 38.3868291,27.8274022 C38.3868291,30.3198052 36.3651276,32.3401037 33.8727246,32.3401037 M33.8727246,22.4315216 C30.8920828,22.4315216 28.4757918,24.8471112 28.4757918,27.8274022 C28.4757918,30.8073425 30.8920828,33.2229321 33.8727246,33.2229321 C36.8537172,33.2229321 39.2696575,30.8073425 39.2696575,27.8274022 C39.2696575,24.8471112 36.8537172,22.4315216 33.8727246,22.4315216" id="Fill-20" fill="#AEEFF6"></path>
                    <path d="M33.8727246,33.2230724 C30.8920828,33.2230724 28.4757918,30.8074828 28.4757918,27.8275425 C28.4757918,24.8472515 30.8920828,22.4313112 33.8727246,22.4313112 C36.8537172,22.4313112 39.2696575,24.8472515 39.2696575,27.8275425 C39.2696575,30.8074828 36.8537172,33.2230724 33.8727246,33.2230724 Z M39.857859,28.6889754 L41.191747,27.8275425 L39.857859,26.965759 L40.8964187,25.7655052 L39.3741799,25.3158485 L40.0307769,23.8707739 L38.4425978,23.8690201 L38.6660231,22.2976769 L37.1420306,22.7417216 L36.9136948,21.1703784 L35.5770007,22.0261993 L34.9137396,20.5839306 L33.8727246,21.7831321 L32.8320604,20.5835799 L32.1687993,22.0258485 L30.8321052,21.1700276 L30.6037694,22.7410201 L29.0797769,22.2976769 L29.3028515,23.8683187 L27.7153739,23.8704231 L28.3716201,25.3158485 L26.8490306,25.7655052 L27.8882918,26.965759 L26.5537022,27.8275425 L27.8882918,28.6889754 L26.8490306,29.8895799 L28.3716201,30.3381843 L27.7153739,31.7839604 L29.3028515,31.7853634 L29.0797769,33.3567067 L30.6037694,32.9130127 L30.8307022,34.484356 L32.1680978,33.6285351 L32.8310082,35.0708037 L33.8727246,33.871953 L34.9137396,35.0711545 L35.5770007,33.6285351 L36.9136948,34.484356 L37.1409784,32.9133634 L38.6649709,33.3574082 L38.4415455,31.7853634 L40.0307769,31.7843112 L39.3741799,30.3385351 L40.8964187,29.8895799 L39.857859,28.6889754 Z" id="Fill-21" fill="#9C3D37"></path>
                    <path d="M38.3867239,27.8274022 C38.3867239,30.3198052 36.3650224,32.3401037 33.8726194,32.3401037 L33.8726194,33.2229321 C36.8536119,33.2229321 39.2695522,30.8073425 39.2695522,27.8274022 C39.2695522,24.8474619 36.8536119,22.4315216 33.8726194,22.4315216 L33.8726194,23.3147007 C36.3650224,23.3147007 38.3867239,25.3349993 38.3867239,27.8274022" id="Fill-22" fill="#3DB5C3"></path>
                    <path d="M39.8576836,28.6891157 L41.1915716,27.8273321 L39.8576836,26.9655485 L40.8962433,25.7652948 L39.3743552,25.3159888 L40.0306015,23.8709142 L38.4424224,23.8691604 L38.6661985,22.2974664 L37.142206,22.7415112 L36.9138701,21.1705187 L35.5768254,22.0263396 L34.9139149,20.5840709 L33.8725493,21.7829216 L33.8725493,22.4314515 C36.8535418,22.4314515 39.2698328,24.8473918 39.2698328,27.8273321 C39.2698328,30.8076231 36.8535418,33.2232127 33.8725493,33.2232127 L33.8725493,33.8717425 L34.9139149,35.0712948 L35.5768254,33.6286754 L36.9138701,34.4841455 L37.140803,32.9135037 L38.6647955,33.3571978 L38.4413701,31.7855037 L40.0306015,31.7844515 L39.3743552,30.3386754 L40.8962433,29.8893694 L39.8576836,28.6891157 Z" id="Fill-23" fill="#742D29"></path>
                    <path d="M38.3867239,27.8274022 C38.3867239,25.3349993 36.3650224,23.3147007 33.8726194,23.3147007 L33.8726194,32.3401037 C36.3650224,32.3401037 38.3867239,30.3198052 38.3867239,27.8274022" id="Fill-24" fill="#742D29"></path>
                </g>
            </g>
        </g>
    </g>
</svg>