<svg xmlns="http://www.w3.org/2000/svg" viewBox="0 0 18.1 30.1"><path fill="#D6555C" d="M10.8 1v7.2h5.6v4.3h-5.6v8.8c0 1.2.4 2.8 2.6 2.8h.1c.7 0 1.7-.2 2.3-.5l1.4 4c-.5.8-2.8 1.6-4.9 1.7h-.2c-6 0-8.2-4.4-8.2-7.5v-9.2H1V8.8c4.3-1.5 5.3-5.4 5.5-7.6 0-.1.2-.2.2-.2h4.1m0-1H6.7c-.6 0-1.1.5-1.2 1.1C5.3 3.5 4.2 6.6.7 7.8c-.4.2-.7.6-.7 1v3.6c0 .6.4 1 1 1h1.8v8.2c0 3.4 2.5 8.5 9.2 8.5h.2c2.1 0 4.9-.9 5.7-2.1.2-.3.2-.6.1-.9l-1.4-4c-.1-.3-.3-.5-.6-.6-.1-.1-.3-.1-.4-.1-.1 0-.3 0-.4.1-.4.2-1.2.4-1.8.4h-.1c-.8 0-1.6-.2-1.6-1.8v-7.8h4.6c.6 0 1-.4 1-1V8.2c0-.6-.4-1-1-1h-4.6V1c.1-.6-.3-1-.9-1z"/></svg>