<svg xmlns="http://www.w3.org/2000/svg" viewBox="0 0 25 25"><path d="M25 12.58c0-1.76-2.51-3.07-5.9-3.8a19.46 19.46 0 0 0 .56-2.09c.51-2.54.19-4.29-.91-4.93a1.94 1.94 0 0 0-1-.25c-1.41 0-3.32 1.3-5.27 3.44C10.55 2.8 8.65 1.5 7.23 1.5a1.94 1.94 0 0 0-1 .25c-1.52.88-1.4 3.71-.35 7a19.45 19.45 0 0 0-2.09.56c-2.46.83-3.81 2-3.81 3.25 0 1.76 2.51 3.07 5.9 3.8a19.48 19.48 0 0 0-.56 2.09c-.51 2.54-.19 4.29.91 4.93a1.94 1.94 0 0 0 1 .25 3.42 3.42 0 0 0 1.31-.3 7.71 7.71 0 0 0 1.56-.92 14.12 14.12 0 0 0 1.24-1c.38-.36.76-.75 1.14-1.17 1.95 2.15 3.85 3.45 5.27 3.45a1.94 1.94 0 0 0 1-.25c1.52-.88 1.4-3.71.34-7 3.4-.79 5.91-2.1 5.91-3.86zm-7.23-10.3a1.18 1.18 0 0 1 .6.15c.78.45 1 1.94.54 4.1a18.89 18.89 0 0 1-.56 2.1A30.89 30.89 0 0 0 15 8.2a30.28 30.28 0 0 0-2-2.67c1.82-2 3.57-3.25 4.77-3.25zM7.89 13.45c.24.46.48.91.74 1.36s.53.89.8 1.32c-.89-.13-1.73-.19-2.52-.33.28-.8.61-1.55.98-2.35zm0-1.76c-.38-.81-.7-1.6-1-2.35.83-.13 1.67-.24 2.54-.34-.27.43-.54.86-.8 1.32s-.5.92-.74 1.37zm1.41 2.73c-.36-.63-.69-1.24-1-1.85.31-.61.64-1.23 1-1.84s.7-1.21 1.11-1.78c.69 0 1.38-.06 2.09-.06s1.42 0 2.1.07c.38.57.75 1.17 1.1 1.78s.69 1.24 1 1.85c-.31.61-.64 1.23-1 1.84s-.7 1.2-1.1 1.77c-.68 0-1.37.07-2.1.07s-1.42 0-2.1-.07c-.4-.57-.74-1.2-1.1-1.78zm7.07.39c.26-.45.5-.9.74-1.35.38.81.7 1.59 1 2.34-.78.14-1.62.25-2.51.33.24-.43.51-.87.77-1.32zm.74-3.11c-.24-.46-.48-.91-.74-1.36s-.53-.89-.8-1.34c.89.08 1.74.19 2.52.33-.28.79-.61 1.57-.98 2.37zM14 8.15h-3.09c.51-.72 1-1.39 1.54-2 .55.6 1.09 1.27 1.55 2zM6.64 2.42a1.18 1.18 0 0 1 .6-.15c1.2 0 2.94 1.25 4.74 3.26A30.27 30.27 0 0 0 10 8.2a30.33 30.33 0 0 0-3.31.41C5.63 5.37 5.66 3 6.64 2.42zM.78 12.58c0-.9 1.2-1.81 3.28-2.52a18.9 18.9 0 0 1 2.1-.56 30.92 30.92 0 0 0 1.29 3.07 30.34 30.34 0 0 0-1.3 3.07C2.82 14.93.78 13.71.78 12.58zm10 8.24a13.4 13.4 0 0 1-1.17 1 6.93 6.93 0 0 1-1.4.83 1.83 1.83 0 0 1-1.6.09c-.78-.45-1-1.94-.54-4.1a18.89 18.89 0 0 1 .56-2.1 30.92 30.92 0 0 0 3.3.42 30.3 30.3 0 0 0 2 2.67c-.34.42-.72.82-1.11 1.18zM11 17h3.1c-.5.72-1 1.39-1.54 2-.56-.6-1.1-1.27-1.56-2zm7.41 5.72a1.18 1.18 0 0 1-.6.15c-1.2 0-2.95-1.26-4.75-3.26a30.52 30.52 0 0 0 2-2.66 30.9 30.9 0 0 0 3.3-.42c1.02 3.24.99 5.63 0 6.2zm.48-7.08a30.92 30.92 0 0 0-1.29-3.06 30.37 30.37 0 0 0 1.3-3.07c3.32.71 5.37 1.93 5.37 3.06s-2.1 2.36-5.43 3.07z"/><path d="M12.5 14.62a2 2 0 1 0-2-2 2 2 0 0 0 2 2zm0-3.32a1.27 1.27 0 1 1-1.27 1.27 1.27 1.27 0 0 1 1.27-1.26z"/></svg>