<svg id="icons" xmlns="http://www.w3.org/2000/svg" width="39.01px" height="34.39px" viewBox="0 0 39.01 34.39"><path fill="#bebfc6" d="M1678.84,7207.29h-5.7v-0.69a5.7,5.7,0,0,0-5.7-5.7h-7.94a5.7,5.7,0,0,0-5.69,5.7v0.69h-5.7a4.14,4.14,0,0,0-4.14,4.14v19.68a4.14,4.14,0,0,0,3.7,4.1c0,0.11,31.65.11,31.61,0a4.14,4.14,0,0,0,3.7-4.1v-19.68A4.14,4.14,0,0,0,1678.84,7207.29Zm-14.32,21.3v2.36h-2.27v-2.2a9.29,9.29,0,0,1-3.93-1l0.69-2.7a8.18,8.18,0,0,0,3.84,1c1.32,0,2.22-.51,2.22-1.43s-0.74-1.43-2.45-2c-2.47-.83-4.16-2-4.16-4.23,0-2,1.43-3.63,3.91-4.12v-2.2h2.27v2a8.32,8.32,0,0,1,3.35.76l-0.67,2.61a7.65,7.65,0,0,0-3.33-.79c-1.5,0-2,.65-2,1.29s0.81,1.25,2.78,2c2.75,1,3.86,2.24,3.86,4.32S1667.18,7228.13,1664.52,7228.59Zm5.52-21.3h-13.12v-0.69a2.59,2.59,0,0,1,2.59-2.59h7.94a2.59,2.59,0,0,1,2.59,2.59v0.69Z" transform="translate(-1643.98 -7200.9)"/></svg>