<svg id="icons" xmlns="http://www.w3.org/2000/svg" width="34.64px" height="35.53px" viewBox="0 0 34.64 35.53"><path fill="#bebfc6" d="M1680.07,7130a3.69,3.69,0,0,0-3.69-3.69h-0.7c-2,0-7.8-.14-7.76-1.75,0-.49,0-1,0.07-1.62s0.21-1.36.26-1.94c0.34-4.24-1.12-6.55-2.4-6.55-0.3,0-2.61.15-2.47,1.39a17,17,0,0,1-.46,6.05,37.64,37.64,0,0,1-7.23,8.2l-0.16-.54-0.48-1.62-1.62.48-6.39,1.88-1.62.48,0.48,1.62,4.7,16,0.48,1.62,1.62-.48,6.39-1.88,1.62-.48-0.48-1.62-1.08-3.68a13.29,13.29,0,0,1,3-.28c0.69,0,1.48,0,2.38.12,2.69,0.24,5.24.42,6.66,0.61a8.62,8.62,0,0,0,1.09.07c1.27,0,2.67-.31,3.06-1.37a3.61,3.61,0,0,0,.21-0.89,3.13,3.13,0,0,0,2.1-2.76,2.88,2.88,0,0,0,0-.72,3.09,3.09,0,0,0,1.54-2.49,3,3,0,0,0-.26-1.42A3.66,3.66,0,0,0,1680.07,7130Zm-27.84,17.88-4.7-16,6.39-1.88,4.7,16Z" transform="translate(-1645.43 -7114.43)"/></svg>