<svg id="icons" xmlns="http://www.w3.org/2000/svg" width="37.7" height="33.38px" viewBox="0 0 37.7 33.38"><path fill="#bebfc6" d="M1052.41,7407.59c-1.69-.64-2.39-1.06-2.39-1.72s0.42-1.12,1.72-1.12a6.6,6.6,0,0,1,2.87.68l0.58-2.25a7.17,7.17,0,0,0-2.89-.66v-1.76h-2v1.89c-2.13.42-3.37,1.8-3.37,3.55,0,1.93,1.46,2.93,3.59,3.65,1.48,0.5,2.11,1,2.11,1.73s-0.78,1.24-1.91,1.24a7,7,0,0,1-3.31-.88l-0.6,2.33a8,8,0,0,0,3.39.86V7417h2v-2c2.29-.4,3.55-1.91,3.55-3.69S1054.79,7408.42,1052.41,7407.59Zm12-12c-6.4,0-11.58-.9-11.58-2v2.07c-0.42,0-.84-0.06-1.27-0.06a13.27,13.27,0,1,0,9.41,22.6c1.09,0.06,2.24.1,3.44,0.1,6.4,0,11.58-.9,11.58-2v-3.93c0,1.11-5.18,2-11.58,2h-0.79a13.15,13.15,0,0,0,.8-2.31c6.39,0,11.57-.9,11.57-2v-3.93c0,1.09-5,2-11.2,2a13.21,13.21,0,0,0-.34-2.32c6.38,0,11.54-.9,11.54-2v-3.93c0,1.11-5.18,2-11.58,2l-1.62,0a13.34,13.34,0,0,0-1.91-2.4c1.12,0.06,2.3.1,3.53,0.1,6.4,0,11.58-.9,11.58-2v-3.93C1076,7394.69,1070.85,7395.59,1064.45,7395.59Zm-2.11,13.26a10.75,10.75,0,1,1-10.75-10.75A10.76,10.76,0,0,1,1062.34,7408.85Zm2.11-20.11c-6.4,0-11.58.9-11.58,2v0.31c0,1.11,5.18,2,11.58,2s11.58-.9,11.58-2v-0.31C1076,7389.63,1070.85,7388.73,1064.45,7388.73Z" transform="translate(-1038.33 -7388.73)"/></svg>