<svg xmlns="http://www.w3.org/2000/svg" viewBox="0 0 25 25"><path d="M23.92 10.64L21.34 1l-5 1.35L5 5.37 0 6.72l1.19 4.42v.06l1.7 6.29v6.19H25v-13h-1.08zm-3.26-8.47l.58 2.18a6.45 6.45 0 0 0-1-.15 2.8 2.8 0 0 1-.74-.13 2.4 2.4 0 0 1-.4-.44 5.11 5.11 0 0 0-.79-.84zM1.17 7.4l2.29-.61a5.09 5.09 0 0 0-.26 1.12 2.39 2.39 0 0 1-.12.58 2.8 2.8 0 0 1-.57.51 6.5 6.5 0 0 0-.74.61zm1.73 6.41l-.77-2.88c-.08-.4.33-.74.94-1.18A2.87 2.87 0 0 0 3.91 9a2.58 2.58 0 0 0 .24-1c.13-.91.28-1.52 1.14-1.75l11.25-3c.86-.23 1.3.22 1.86.94a2.58 2.58 0 0 0 .67.68 2.87 2.87 0 0 0 1.11.25c.76.08 1.31.17 1.42.58l1.32 4.92h-6.05A5.47 5.47 0 0 0 16.71 9a5.27 5.27 0 0 0-2.17-3.06 4.26 4.26 0 0 0-3.48-.61 4.69 4.69 0 0 0-3.17 5.32h-5v3.17zm13-3.17H8.86a3.75 3.75 0 0 1 2.45-4.4 3.32 3.32 0 0 1 2.69.49 4.32 4.32 0 0 1 1.77 2.51 4.51 4.51 0 0 1 .15 1.4zm-9.68 1a5.11 5.11 0 0 0-.54 1 2.39 2.39 0 0 1-.27.53 2.8 2.8 0 0 1-.68.32 6.45 6.45 0 0 0-.88.39V11.6h2.38zM3.86 22.72v-1.18l.41.17a2.4 2.4 0 0 1 .42.19 2 2 0 0 1 .16.32 4.76 4.76 0 0 0 .24.5H3.86zm20.18 0h-1.23a4.73 4.73 0 0 0 .24-.5 2.16 2.16 0 0 1 .15-.32 2.3 2.3 0 0 1 .42-.19l.38-.17v1.18zm0-2.41a1 1 0 0 1-.76.51 2.14 2.14 0 0 0-.75.4 1.93 1.93 0 0 0-.36.62 1 1 0 0 1-.95.88H6.68a1 1 0 0 1-.95-.88 1.92 1.92 0 0 0-.36-.62 2.13 2.13 0 0 0-.75-.4 1 1 0 0 1-.76-.51v-5.03c0-.42.51-.65 1.22-.92a2.88 2.88 0 0 0 1-.53 2.57 2.57 0 0 0 .49-.83c.36-.84.66-1.39 1.56-1.39h11.65c.89 0 1.2.55 1.56 1.39a2.57 2.57 0 0 0 .47.83 2.87 2.87 0 0 0 1 .53c.72.28 1.22.5 1.22.92v5zm0-6.46a6.43 6.43 0 0 0-.88-.39 2.82 2.82 0 0 1-.68-.32 2.39 2.39 0 0 1-.27-.53 5.11 5.11 0 0 0-.54-1H24v2.25z"/><path d="M21.25 15.67A1.74 1.74 0 1 0 23 17.41a1.74 1.74 0 0 0-1.75-1.74zm0 2.52a.78.78 0 1 1 .75-.78.78.78 0 0 1-.75.78zM6.66 15.67a1.74 1.74 0 1 0 1.74 1.74 1.74 1.74 0 0 0-1.74-1.74zm0 2.52a.78.78 0 1 1 .78-.78.78.78 0 0 1-.78.78zM14 12.15a4.78 4.78 0 0 0-4.5 5 4.78 4.78 0 0 0 4.5 5 4.78 4.78 0 0 0 4.5-5 4.78 4.78 0 0 0-4.5-5zm0 9.06a3.83 3.83 0 0 1-3.55-4.05A3.83 3.83 0 0 1 14 13.11a3.83 3.83 0 0 1 3.55 4.05A3.83 3.83 0 0 1 14 21.21zm5.47-10.96a1.74 1.74 0 1 0-1.74-1.74 1.74 1.74 0 0 0 1.74 1.74zm0-2.52a.78.78 0 1 1-.78.78.78.78 0 0 1 .78-.78z"/></svg>