<svg xmlns="http://www.w3.org/2000/svg" viewBox="0 0 25 25"><path d="M13.77 12.08a2.39 2.39 0 0 0-1.27-.37 2.47 2.47 0 1 0 2.43 2.52l5.59-4.62-.11-.18zm-1.27 3.71a1.62 1.62 0 1 1 1.59-1.62 1.6 1.6 0 0 1-1.59 1.62z"/><path d="M12.5 1.5A12.6 12.6 0 0 0 0 14.18a12.75 12.75 0 0 0 2.1 7 .43.43 0 1 0 .71-.47l-.12-.2.93-.51-.54-.92-.92.54a11.9 11.9 0 0 1-1.29-4.9h1.06v-1.08H.88a11.87 11.87 0 0 1 1.29-4.9l.91.54.54-.92-.92-.55a11.82 11.82 0 0 1 3.52-3.58l.53.93.93-.53-.53-.95A11.42 11.42 0 0 1 12 2.38v1.08h1V2.38a11.42 11.42 0 0 1 4.82 1.31l-.54.94.93.53.53-.93a11.82 11.82 0 0 1 3.56 3.58l-.92.54.54.92.91-.54a11.87 11.87 0 0 1 1.29 4.9h-1.05v1.07h1.06a11.9 11.9 0 0 1-1.29 4.9l-.92-.54-.54.94.93.55-.13.21a.43.43 0 0 0 .12.59.42.42 0 0 0 .23.07.43.43 0 0 0 .36-.19 12.76 12.76 0 0 0 2.1-7A12.6 12.6 0 0 0 12.5 1.5z"/><path d="M6.87 23.2h11.26V20H6.87v3.2zm.85-2.37h9.57v1.52H7.72v-1.52z"/></svg>