<svg xmlns="http://www.w3.org/2000/svg" xmlns:xlink="http://www.w3.org/1999/xlink" width="37.46px" height="32.31px" viewBox="0 0 37.46 32.31"><defs><style>.cls-1{fill:none;}.cls-2{fill:#bebfc6;}.cls-3{clip-path:url(#clip-path);}.cls-4{fill:#f3f3f4;}</style><clipPath id="clip-path" transform="translate(-1.33 -2.2)"><ellipse class="cls-1" cx="15.07" cy="16.75" rx="14.8" ry="16.99" transform="translate(-4.82 6.17) rotate(-20)"/></clipPath></defs><title>icon-forensic-psychologyAsset 15</title><g id="Layer_2" data-name="Layer 2"><g id="icons"><path class="cls-2" d="M15.86,32.09c-.28-.46-2.34-2.76-.1-7.61A15.32,15.32,0,0,0,17,19.69a6.12,6.12,0,0,0-.35-2.37C16.13,16.16,15.47,16,15,16a2,2,0,0,0-1.51.95,7.05,7.05,0,0,0-1,3.07,19.59,19.59,0,0,0,.16,4.13,27.13,27.13,0,0,0,2.5,6.48s-.54-1-.66-1.24a21.21,21.21,0,0,1-2.06-5.16,15.34,15.34,0,0,1-.28-4.37,6.5,6.5,0,0,1,1.11-3.29,2.42,2.42,0,0,1,1.77-1.06,2,2,0,0,1,1.82,1.4,5.22,5.22,0,0,1,.45,2.49,16.08,16.08,0,0,1-1.43,5.38c-2.17,4.74,0,7.1.27,7.46Z" transform="translate(-1.33 -2.2)"/><path class="cls-2" d="M15.84,19c-.3-.74-.69-.84-.94-.84a1.14,1.14,0,0,0-.88.6,4.71,4.71,0,0,0-.58,1.94,13.42,13.42,0,0,0,.09,2.6,16.09,16.09,0,0,0,.87,3.28s.35-1.93.55-2.56A16,16,0,0,0,16,20.46,4.15,4.15,0,0,0,15.84,19Zm-.92,4.44c-.19.5-.6,2.28-.6,2.28a23.2,23.2,0,0,1-.56-2.81,11,11,0,0,1-.07-2.12,3.83,3.83,0,0,1,.47-1.58.93.93,0,0,1,.72-.49c.2,0,.52.08.76.68a3.39,3.39,0,0,1,.17,1.21A11.78,11.78,0,0,1,14.93,23.41Z" transform="translate(-1.33 -2.2)"/><path class="cls-2" d="M14.77,22.94a8.69,8.69,0,0,0,.57-1.82,1.92,1.92,0,0,0-.09-.69c-.14-.34-.32-.39-.43-.39a.53.53,0,0,0-.41.28,2.18,2.18,0,0,0-.27.89,6.34,6.34,0,0,0,0,1.23c.1.67.27,1.72.3,1.74S14.66,23.22,14.77,22.94Z" transform="translate(-1.33 -2.2)"/><g class="cls-3"><path class="cls-2" d="M25.08,31.56c-1.71-1.35-2.23-2.44-1.65-5.06s3.34-8.34,3.34-12a11.36,11.36,0,0,0-2.28-7A9.49,9.49,0,0,0,16.2,3.79,13.78,13.78,0,0,0,8.29,6.25,15.3,15.3,0,0,0,3,14.74a17.36,17.36,0,0,0,.5,9.88,29.73,29.73,0,0,0,5,8.6A27.91,27.91,0,0,1,2.6,24.35a17.14,17.14,0,0,1-.92-10c.66-3.86,2.38-6.52,5.87-9.41,2-1.66,5.69-2.73,8.79-2.73a11,11,0,0,1,9.13,4.22A12.27,12.27,0,0,1,28,14.06c0,4.09-3.11,9.73-3.75,12.75-.56,2.62,0,3.38,1.48,4.57Z" transform="translate(-1.33 -2.2)"/><path class="cls-2" d="M22.88,33.1c-1.13-1-3.4-3.06-1.24-8.17.79-1.86,2.41-6.59,2.41-9.56a8.91,8.91,0,0,0-1.92-5.46,6.93,6.93,0,0,0-6.24-3,9.91,9.91,0,0,0-6,2,11.57,11.57,0,0,0-4.05,6.66,25,25,0,0,0,.63,9.67C8,29.82,11.51,34,12,34.17c0,0-1.72-1.47-2.2-2.05a19.9,19.9,0,0,1-4.09-6.78A21.59,21.59,0,0,1,5,15.1a12.81,12.81,0,0,1,4.4-7.26A11,11,0,0,1,16,5.64c1.94,0,4.29.06,6.93,3.32a10.53,10.53,0,0,1,1.91,6.25c0,3.67-1.76,8.44-2.61,10.52-1.79,4.41.46,6.4,1.69,7.17Z" transform="translate(-1.33 -2.2)"/><path class="cls-2" d="M17.89,33.57A8.2,8.2,0,0,1,16.53,25c.53-1.39,2.18-4.63,2.18-6.51a6.66,6.66,0,0,0-.62-3.22,3.08,3.08,0,0,0-2.83-1.81,3.73,3.73,0,0,0-2.66,1.29A8.22,8.22,0,0,0,10.86,19a20.71,20.71,0,0,0,.27,5.62c.64,3.14,4.19,8.69,4.39,8.82,0,0-1-1.33-1.16-1.69-.46-.8-2.88-4-3.61-7a16.28,16.28,0,0,1-.49-5.94,7.63,7.63,0,0,1,1.94-4.48,4.58,4.58,0,0,1,3.11-1.45,3.62,3.62,0,0,1,3.2,1.91,5.76,5.76,0,0,1,.79,3.38c0,2.34-1.87,5.8-2.42,7.37a7.79,7.79,0,0,0,1.46,7.95Z" transform="translate(-1.33 -2.2)"/><path class="cls-2" d="M20.06,33.7c-.83-.73-3.67-4.31-.57-9.92a18,18,0,0,0,2-7.09,7,7,0,0,0-1.26-4.13,5.09,5.09,0,0,0-4.58-2.2,7.29,7.29,0,0,0-4.38,1.46A8.5,8.5,0,0,0,8.4,16.73a18.43,18.43,0,0,0,.54,8,38.79,38.79,0,0,0,5.32,9.42s-1.26-1.3-1.62-1.73a27.27,27.27,0,0,1-4.35-7.57,18.88,18.88,0,0,1-.61-8.32A9.6,9.6,0,0,1,10.81,11a8.1,8.1,0,0,1,4.87-1.62,5.66,5.66,0,0,1,5.09,2.44,7.84,7.84,0,0,1,1.4,4.59c0,2.73-1.37,6-2.31,7.86-2.6,5.07,0,8.68.95,9.25Z" transform="translate(-1.33 -2.2)"/></g><path class="cls-4" d="M21.18,8.61A11.94,11.94,0,1,0,33.12,20.54,11.93,11.93,0,0,0,21.18,8.61Zm0,20.46a8.53,8.53,0,1,1,8.53-8.53A8.53,8.53,0,0,1,21.18,29.07Z" transform="translate(-1.33 -2.2)"/><path class="cls-2" d="M38,30.72,31.3,25.64c.13-.26.25-.52.36-.78A11.21,11.21,0,1,0,28.72,29l6.67,5.09A2.11,2.11,0,0,0,38,30.72ZM18.24,28A8,8,0,1,1,28.7,23.63,8,8,0,0,1,18.24,28Z" transform="translate(-1.33 -2.2)"/></g></g></svg>