<?xml version="1.0" encoding="UTF-8"?>
<svg width="81px" height="74px" viewBox="0 0 81 74" version="1.1" xmlns="http://www.w3.org/2000/svg" xmlns:xlink="http://www.w3.org/1999/xlink">
    <!-- Generator: Sketch 47.1 (45422) - http://www.bohemiancoding.com/sketch -->
    <title>Page 1</title>
    <desc>Created with Sketch.</desc>
    <defs></defs>
    <g id="Page-1" stroke="none" stroke-width="1" fill="none" fill-rule="evenodd">
        <g id="Homepage-desktop" transform="translate(-755.000000, -1041.000000)">
            <g id="Group-2" transform="translate(725.000000, 996.000000)">
                <g id="Page-1" transform="translate(30.000000, 45.000000)">
                    <path d="M58.2857143,32.1428571 C58.2857143,48.2374857 45.2374857,61.2857143 29.1428571,61.2857143 C13.0482286,61.2857143 0,48.2374857 0,32.1428571 C0,16.0482286 13.0482286,3 29.1428571,3 C45.2374857,3 58.2857143,16.0482286 58.2857143,32.1428571" id="Fill-1" fill="#DEE2E7"></path>
                    <path d="M80,31.5714286 C80,41.4727143 65.5818528,50.8571429 47.965368,50.8571429 C44.6273593,50.8571429 40.0630649,50.375 37.7142857,49.5714286 L37.7142857,71.4285714 C40.9177489,72.4468571 44.6042944,72.7142857 47.965368,72.7142857 C65.5818528,72.7142857 80,64.6155714 80,54.7142857 L80,31.5714286" id="Fill-3" fill="#FFFFFF"></path>
                    <path d="M47.482293,14.4285714 C29.6855797,14.4285714 14.8571429,22.4088684 14.8571429,32.3166863 C14.8571429,34.0190295 15.2830316,35.6660434 16.0778514,37.2255597 L37.2816747,49.7132704 C39.655778,50.5174764 44.2654736,51 47.6376323,51 C65.4343456,51 80,41.6081607 80,31.6990561 C80,21.7912382 65.2790062,14.4285714 47.482293,14.4285714" id="Fill-5" fill="#FFFFFF"></path>
                    <path d="M61,0 L61,8" id="Stroke-11" stroke="#BABEC2" stroke-width="2"></path>
                    <path d="M57,4 L65,4" id="Stroke-13" stroke="#BABEC2" stroke-width="2"></path>
                    <path d="M10,7 L10,15" id="Stroke-11" stroke="#BABEC2" stroke-width="2"></path>
                    <path d="M6,11 L14,11" id="Stroke-13" stroke="#BABEC2" stroke-width="2"></path>
                    <path d="M4,23 L4,31" id="Stroke-11" stroke="#BABEC2" stroke-width="2"></path>
                    <path d="M0,27 L8,27" id="Stroke-13" stroke="#BABEC2" stroke-width="2"></path>
                    <path d="M16.0778514,37.2247576 C15.2830316,35.6652962 14.8571429,34.0183403 14.8571429,32.3173436 C14.8571429,22.4085876 29.6855797,14.4285714 47.482293,14.4285714 C65.2777117,14.4285714 80,21.7909791 80,31.6997351 C80,41.6072044 65.4343456,51 47.6376323,51 C44.2654736,51 39.6544835,50.5174934 37.2816747,49.7133157" id="Stroke-7" stroke="#3F4B59" stroke-width="2"></path>
                    <path d="M8.08401457,38.4501667 L46.9041542,30.4285714 L48,30.9834507 L25.0591622,52.6459359 L25.0068545,72.7142857 C21.8932403,72.53803 10.3750907,67.6224528 8.00686075,59.6583038 C7.97155307,59.5394943 8.08401457,38.4501667 8.08401457,38.4501667" id="Fill-9" fill="#F5BE58"></path>
                    <path d="M8.08401457,38.4501667 L46.9041542,30.4285714 L48,30.9834507 L25.0591622,52.6459359 L25.0068545,72.7142857 C21.8932403,72.53803 10.3750907,67.6224528 8.00686075,59.6583038 C7.97155307,59.5394943 8.08401457,38.4501667 8.08401457,38.4501667 Z" id="Stroke-11" stroke="#3F4B59" stroke-width="2"></path>
                    <path d="M42.2857143,63.5714286 L42.2857143,54.4285714" id="Stroke-13" stroke="#3F4B59" stroke-width="2"></path>
                    <path d="M42.2857143,68.1428571 L42.2857143,65.8571429" id="Stroke-15" stroke="#3F4B59" stroke-width="2"></path>
                    <path d="M14.8571429,31.5714286 L14.8731429,37.2857143" id="Stroke-17" stroke="#3F4B59" stroke-width="2"></path>
                    <path d="M46.6839827,31.5714286 L37.7142857,49.5714286 L37.7142857,71.4285714 C40.9177489,72.4468571 44.6042944,72.7142857 47.965368,72.7142857 C65.5818528,72.7142857 80,64.6155714 80,54.7142857 L80,31.5714286" id="Stroke-19" stroke="#3F4B59" stroke-width="2"></path>
                    <path d="M25.1428571,52.1428571 C15.849221,49.4665913 9.20808027,44.2994561 8,38.4285714" id="Stroke-21" stroke="#3F4B59" stroke-width="2"></path>
                </g>
            </g>
        </g>
    </g>
</svg>