<svg id="icons" xmlns="http://www.w3.org/2000/svg" width="37.76px" height="37.44px" viewBox="0 0 37.76 37.44"><path fill="#bebfc6" d="M1074.6,7942h-22v11.83h22V7942Z" transform="translate(-1044.1 -7923.89)"/><path fill="#bebfc6" d="M1080.87,7955.52l-1.63,0h-0.54v-9a6.44,6.44,0,0,0,.59-0.55,7.78,7.78,0,0,0-7.61-13.17,9.92,9.92,0,1,0-19.61,2.93h-1.85a6.12,6.12,0,0,0-1.69,12v7.73h-2.2l-0.22,1.64a2.64,2.64,0,0,0,0,.4V7958a3.31,3.31,0,0,0,3.31,3.31h28.45a3.31,3.31,0,0,0,3.31-3.31v-0.47a2.77,2.77,0,0,0,0-.42Zm-30.45-14.78a0.66,0.66,0,0,1,.65-0.66h25.08a0.66,0.66,0,0,1,.66.66v14.76h-10.09l0,0.4h-6.12l0-.4h-10.11v-14.76Zm28.84,17.28a1.42,1.42,0,0,1-1.42,1.42H1049.4A1.43,1.43,0,0,1,1048,7958v-0.47a1.06,1.06,0,0,1,0-.16h10.82a0.43,0.43,0,0,0,.43.4H1068a0.43,0.43,0,0,0,.43-0.4h10.82a1.32,1.32,0,0,1,0,.16V7958Z" transform="translate(-1044.1 -7923.89)"/></svg>