<svg id="icons" xmlns="http://www.w3.org/2000/svg" width="31.75" height="37.78" viewBox="0 0 31.75 37.78"><path fill="#bebfc6" d="M2241,7836.6a2,2,0,0,1,2-2h28.34a2,2,0,0,0,.07,4.06v-0.13a2.09,2.09,0,0,1-1.62-1.89,2,2,0,0,1,1.62-1.91v-0.1h0v0h0v-1.34h-28.77a2.93,2.93,0,0,0-2.94,2.91v31.94a3,3,0,0,0,2.94,2.94h28.77v-32.38H2243A2,2,0,0,1,2241,7836.6Zm20.23,12.32a1,1,0,0,1-1,1h-13.27a1,1,0,0,1-1-1v-3.58a1,1,0,0,1,1-1h13.27a1,1,0,0,1,1,1v3.58Z" transform="translate(-2239.7 -7833.23)"/><polygon fill="#bebfc6" points="31.74 5.39 31.75 5.39 31.74 5.39 31.74 5.39"/></svg>