<svg xmlns="http://www.w3.org/2000/svg" viewBox="0 0 25 25"><path d="M3.18 25a.48.48 0 0 1-.48-.48v-24A.48.48 0 0 1 3.18 0h11.36a.48.48 0 0 1 .46.48v9a.48.48 0 1 1-1 0V1H3.66v23.52a.48.48 0 0 1-.48.48z"/><path d="M23.75 17.58h-9.21a.48.48 0 0 1-.48-.48v-2.86H3.18a.48.48 0 1 1 0-1h11.36a.48.48 0 0 1 .48.48v2.87h7.79l-4.06-5.7a.48.48 0 0 1 0-.54l4.11-6.19h-8.32a.48.48 0 0 1 0-1h9.21a.48.48 0 0 1 .4.75l-4.42 6.66 4.41 6.19a.48.48 0 0 1-.39.82zM5.93 25H.48a.48.48 0 1 1 0-1h5.45a.48.48 0 1 1 0 1z"/></svg>