<?xml version="1.0" encoding="UTF-8"?>
<svg width="79px" height="67px" viewBox="0 0 79 67" version="1.1" xmlns="http://www.w3.org/2000/svg" xmlns:xlink="http://www.w3.org/1999/xlink">
    <!-- Generator: Sketch 47.1 (45422) - http://www.bohemiancoding.com/sketch -->
    <title>Page 1</title>
    <desc>Created with Sketch.</desc>
    <defs></defs>
    <g id="Page-1" stroke="none" stroke-width="1" fill="none" fill-rule="evenodd">
        <g id="Homepage-desktop" transform="translate(-280.000000, -1220.000000)">
            <g id="Page-1" transform="translate(280.000000, 1221.000000)">
                <path d="M58.0645161,33.5246452 C58.0645161,47.7775484 46.5109677,59.3310968 32.2580645,59.3310968 C18.0051613,59.3310968 6.4516129,47.7775484 6.4516129,33.5246452 C6.4516129,19.2717419 18.0051613,7.71819355 32.2580645,7.71819355 C46.5109677,7.71819355 58.0645161,19.2717419 58.0645161,33.5246452" id="Fill-1" fill="#DEE2E7"></path>
                <path d="M55.320129,29.2981935 L69.8427097,5.29819355" id="Stroke-3" stroke="#3F4B59" stroke-width="2"></path>
                <path d="M40.7978065,9.57083871 L55.3203871,29.2985806" id="Stroke-5" stroke="#3F4B59" stroke-width="2"></path>
                <path d="M27.0967742,43.8472258 L40.7974194,9.57109677" id="Stroke-7" stroke="#3F4B59" stroke-width="2"></path>
                <path d="M11.6129032,28.3633548 L27.0967742,43.8472258" id="Stroke-9" stroke="#3F4B59" stroke-width="2"></path>
                <path d="M17.0507097,28.2068387 C17.0507097,31.1332903 14.6790968,33.5049032 11.7526452,33.5049032 C8.82748387,33.5049032 6.45587097,31.1332903 6.45587097,28.2068387 C6.45587097,25.2816774 8.82748387,22.9087742 11.7526452,22.9087742 C14.6790968,22.9087742 17.0507097,25.2816774 17.0507097,28.2068387" id="Fill-11" fill="#F5BE58"></path>
                <path d="M17.0507097,28.2068387 C17.0507097,31.1332903 14.6790968,33.5049032 11.7526452,33.5049032 C8.82748387,33.5049032 6.45587097,31.1332903 6.45587097,28.2068387 C6.45587097,25.2816774 8.82748387,22.9087742 11.7526452,22.9087742 C14.6790968,22.9087742 17.0507097,25.2816774 17.0507097,28.2068387 Z" id="Stroke-13" stroke="#3F4B59" stroke-width="2"></path>
                <path d="M46.0953548,9.57083871 C46.0953548,12.4972903 43.7237419,14.8689032 40.7972903,14.8689032 C37.872129,14.8689032 35.5005161,12.4972903 35.5005161,9.57083871 C35.5005161,6.64567742 37.872129,4.27277419 40.7972903,4.27277419 C43.7237419,4.27277419 46.0953548,6.64567742 46.0953548,9.57083871" id="Fill-15" fill="#F5BE58"></path>
                <path d="M46.0953548,9.57083871 C46.0953548,12.4972903 43.7237419,14.8689032 40.7972903,14.8689032 C37.872129,14.8689032 35.5005161,12.4972903 35.5005161,9.57083871 C35.5005161,6.64567742 37.872129,4.27277419 40.7972903,4.27277419 C43.7237419,4.27277419 46.0953548,6.64567742 46.0953548,9.57083871 Z" id="Stroke-17" stroke="#3F4B59" stroke-width="2"></path>
                <path d="M32.2181935,43.8978065 C32.2181935,46.8242581 29.8465806,49.195871 26.920129,49.195871 C23.9949677,49.195871 21.6233548,46.8242581 21.6233548,43.8978065 C21.6233548,40.9713548 23.9949677,38.5997419 26.920129,38.5997419 C29.8465806,38.5997419 32.2181935,40.9713548 32.2181935,43.8978065" id="Fill-19" fill="#F5BE58"></path>
                <path d="M32.2181935,43.8978065 C32.2181935,46.8242581 29.8465806,49.195871 26.920129,49.195871 C23.9949677,49.195871 21.6233548,46.8242581 21.6233548,43.8978065 C21.6233548,40.9713548 23.9949677,38.5997419 26.920129,38.5997419 C29.8465806,38.5997419 32.2181935,40.9713548 32.2181935,43.8978065 Z" id="Stroke-21" stroke="#3F4B59" stroke-width="2"></path>
                <path d="M60.6176774,29.2981935 C60.6176774,32.2246452 58.2460645,34.5962581 55.3196129,34.5962581 C52.3944516,34.5962581 50.0228387,32.2246452 50.0228387,29.2981935 C50.0228387,26.3717419 52.3944516,24.000129 55.3196129,24.000129 C58.2460645,24.000129 60.6176774,26.3717419 60.6176774,29.2981935" id="Fill-23" fill="#F5BE58"></path>
                <path d="M74,49 L74,57" id="Stroke-11" stroke="#BABEC2" stroke-width="2"></path>
                <path d="M70,53 L78,53" id="Stroke-13" stroke="#BABEC2" stroke-width="2"></path>
                <path d="M65,42 L65,50" id="Stroke-11" stroke="#BABEC2" stroke-width="2"></path>
                <path d="M61,46 L69,46" id="Stroke-13" stroke="#BABEC2" stroke-width="2"></path>
                <path d="M74,36 L74,44" id="Stroke-11" stroke="#BABEC2" stroke-width="2"></path>
                <path d="M70,40 L78,40" id="Stroke-13" stroke="#BABEC2" stroke-width="2"></path>
                <path d="M60.6176774,29.2981935 C60.6176774,32.2246452 58.2460645,34.5962581 55.3196129,34.5962581 C52.3944516,34.5962581 50.0228387,32.2246452 50.0228387,29.2981935 C50.0228387,26.3717419 52.3944516,24.000129 55.3196129,24.000129 C58.2460645,24.000129 60.6176774,26.3717419 60.6176774,29.2981935 Z" id="Stroke-25" stroke="#3F4B59" stroke-width="2"></path>
                <path d="M75.140129,5.29767742 C75.140129,8.22412903 72.7685161,10.5957419 69.8420645,10.5957419 C66.9169032,10.5957419 64.5452903,8.22412903 64.5452903,5.29767742 C64.5452903,2.37122581 66.9169032,-0.000387096774 69.8420645,-0.000387096774 C72.7685161,-0.000387096774 75.140129,2.37122581 75.140129,5.29767742" id="Fill-27" fill="#F5BE58"></path>
                <path d="M75.140129,5.29767742 C75.140129,8.22412903 72.7685161,10.5957419 69.8420645,10.5957419 C66.9169032,10.5957419 64.5452903,8.22412903 64.5452903,5.29767742 C64.5452903,2.37122581 66.9169032,-0.000387096774 69.8420645,-0.000387096774 C72.7685161,-0.000387096774 75.140129,2.37122581 75.140129,5.29767742 Z" id="Stroke-29" stroke="#3F4B59" stroke-width="2"></path>
                <path d="M70.9677419,64.4923871 L73.5483871,64.4923871" id="Stroke-31" stroke="#3F4B59" stroke-width="2"></path>
                <path d="M76.1290323,64.4923871 L78.7096774,64.4923871" id="Stroke-33" stroke="#3F4B59" stroke-width="2"></path>
                <path d="M0,64.4923871 L5.16129032,64.4923871" id="Stroke-35" stroke="#3F4B59" stroke-width="2"></path>
                <path d="M68.3870968,64.4923871 L7.74193548,64.4923871" id="Stroke-37" stroke="#3F4B59" stroke-width="2"></path>
            </g>
        </g>
    </g>
</svg>