<svg id="icons" xmlns="http://www.w3.org/2000/svg" width="37.64px" height="30.72px" viewBox="0 0 37.64 30.72"><path fill="#bebfc6" d="M476.52,7752.76v19.83l0.54,0.33,1.34,0.84a1.89,1.89,0,0,0,.17-0.78V7750.9a1.9,1.9,0,0,0-1.9-1.9H447.93a1.9,1.9,0,0,0-1.9,1.87h28.59A1.9,1.9,0,0,1,476.52,7752.76Z" transform="translate(-440.93 -7749)"/><path fill="#bebfc6" d="M454.77,7775.58a6.81,6.81,0,0,1-3-6.88l4.47,2.88a0.82,0.82,0,0,0,1.13-.24l2-3.09a0.82,0.82,0,0,0-.24-1.13l-4.47-2.88a6.8,6.8,0,0,1,10.63,5.76l8,5,0.25-17.62h-19.6v-3.52h-11a1.9,1.9,0,0,0-1.9,1.9v22.09a1.9,1.9,0,0,0,1.9,1.9H467l-5.57-3.72A6.78,6.78,0,0,1,454.77,7775.58Z" transform="translate(-440.93 -7749)"/></svg>