<svg xmlns="http://www.w3.org/2000/svg" width="46.6px" height="29.04px" viewBox="0 0 46.6 29.04"><path fill="#bebfc6" d="M31.18,15.82,21,19.79l-10.65-4v3.9h0c0,3.51,4.77,6.35,10.65,6.35s10.21-2.84,10.21-6.35h0Z"/><path fill="#bebfc6" d="M24.66,14.89V6.26h5.19L21,2.95,0,10.78l6.81,2.54V16a.94.94,0,0,0-.21,1.55v1.92h.15l-2,8.77s0,0,0,0c.05.42,1.8.81,2.54.78s2.39-.39,2.34-.82L7.72,19.45h.14V17.53A.94.94,0,0,0,7.64,16V13.63l2.67,1,10.65,4L31.1,14.82Z"/><polygon fill="#bebfc6" points="46.6 7.25 40 7.25 40 0 33.07 0 33.07 7.49 25.81 7.49 25.87 13.64 33.17 13.64 33.2 20.65 40 20.65 40 13.4 46.6 13.4 46.6 7.25"/></svg>