<svg xmlns="http://www.w3.org/2000/svg" viewBox="0 0 25 25"><path d="M12.37 0a8.87 8.87 0 0 0-3.72 16.92v4.32a.48.48 0 0 0 .48.48h6.8a.48.48 0 0 0 .48-.48v-4.49A8.86 8.86 0 0 0 12.37 0zm3.36 16a.48.48 0 0 0-.28.43v4.31H9.61V16.6a.47.47 0 0 0-.07-.23v-.05a.47.47 0 0 0-.19-.16 7.92 7.92 0 1 1 6.38-.16zm.2 6.43h-6.8a.48.48 0 1 0 0 1h6.8a.48.48 0 1 0 0-1zM14.32 24h-3.56a.48.48 0 1 0 0 1h3.56a.48.48 0 1 0 0-1z"/><path d="M15.25 7.43l-2.67 2.67-2.75-2.75a.48.48 0 1 0-.68.65l2.91 2.91v6a.48.48 0 1 0 1 0V11l2.91-2.91a.48.48 0 0 0-.72-.66z"/></svg>