<svg xmlns="http://www.w3.org/2000/svg" viewBox="0 0 25 25"><path d="M12.6 18.05a5.52 5.52 0 1 1 5.52-5.52 5.52 5.52 0 0 1-5.52 5.52zm0-10.21a4.69 4.69 0 1 0 4.69 4.69 4.7 4.7 0 0 0-4.69-4.69zM12.64 25a.41.41 0 0 1-.41-.41V21a.41.41 0 1 1 .77 0v3.57a.41.41 0 0 1-.36.43zm0-20.33a.41.41 0 0 1-.41-.41V.41a.41.41 0 1 1 .82 0v3.85a.41.41 0 0 1-.41.41zM4.26 13H.41a.41.41 0 1 1 0-.82h3.85a.41.41 0 1 1 0 .82zm20.33 0H21a.41.41 0 1 1 0-.82h3.57a.41.41 0 0 1 .02.82zM4 21.56a.41.41 0 0 1-.29-.7l2.69-2.69a.41.41 0 0 1 .58.58l-2.64 2.69a.41.41 0 0 1-.34.12zM18.58 7a.41.41 0 0 1-.29-.7l2.56-2.56a.41.41 0 1 1 .58.58L18.87 6.9a.41.41 0 0 1-.29.1zm-12.01.18a.41.41 0 0 1-.29-.12L3.56 4.34a.41.41 0 0 1 .58-.58l2.72 2.72a.41.41 0 0 1-.29.7zM21 21.56a.41.41 0 0 1-.29-.12l-2.55-2.55a.41.41 0 0 1 .58-.58l2.55 2.55a.41.41 0 0 1-.29.7z"/></svg>