<svg xmlns="http://www.w3.org/2000/svg" viewBox="0 0 25 25"><path d="M18.67 23.12a2.51 2.51 0 1 1 2.51-2.51 2.51 2.51 0 0 1-2.51 2.51zm0-3.86A1.35 1.35 0 1 0 20 20.61a1.35 1.35 0 0 0-1.33-1.35zM10 23.12a2.51 2.51 0 1 1 2.51-2.51A2.51 2.51 0 0 1 10 23.12zm0-3.86a1.35 1.35 0 1 0 1.35 1.35A1.35 1.35 0 0 0 10 19.26zm9.86-2.7H8.8a2.51 2.51 0 0 1-2.44-1.92L3.24 3.16H.58A.58.58 0 1 1 .58 2h3.55l3.36 12.36a1.36 1.36 0 0 0 1.31 1h11.06a1.36 1.36 0 0 0 1.3-1l2.3-8.08H8a.58.58 0 1 1 0-1.13h17l-2.72 9.55a2.52 2.52 0 0 1-2.42 1.86z"/></svg>