<!-- Generator: Adobe Illustrator 18.1.1, SVG Export Plug-In  -->
<svg version="1.1"
   xmlns="http://www.w3.org/2000/svg" xmlns:xlink="http://www.w3.org/1999/xlink" xmlns:a="http://ns.adobe.com/AdobeSVGViewerExtensions/3.0/"
   x="0px" y="0px" width="20px" height="18.7px" viewBox="0 0 20 18.7" enable-background="new 0 0 20 18.7" xml:space="preserve">
<defs>
</defs>
<path fill="#BEBFC6" d="M1.2,8l2.2-3.4L5.5,8h1.2L3.3,2.7L0,8H1.2z M5.3,12l1.3-1.3V9.3H0v1.3L1.3,12H5.3z M14.5,8l2.2-3.4L18.8,8
  H20l-3.3-5.3L13.3,8H14.5z M13.3,10.7l1.3,1.3h4l1.3-1.3V9.3h-6.7V10.7z M10.7,16V3.9c0.6-0.2,1-0.7,1.2-1.2h4.8h0.7V1.3h-5.4
  C11.6,0.6,10.9,0,10,0C9.1,0,8.4,0.6,8.1,1.3H2.7v1.3h0.7h4.8c0.2,0.6,0.7,1,1.2,1.2V16H2.7l-1.3,2.7h17.3L17.3,16H10.7z M9,2
  c0-0.5,0.4-1,1-1c0.5,0,1,0.4,1,1s-0.4,1-1,1C9.5,3,9,2.5,9,2z"/>
</svg>
