<svg xmlns="http://www.w3.org/2000/svg" viewBox="0 0 25 25"><path d="M7 6.25h10.93v.96H7zm0 3.12h10.93v.96H7zm6.71 7.35a1.42 1.42 0 0 0-.75-1 1.31 1.31 0 0 0-.48-1.17 1.39 1.39 0 0 0-1.21-.27 1.36 1.36 0 0 0-1.15-.6 1.42 1.42 0 0 0-1.15.6 1.39 1.39 0 0 0-1.21.27 1.31 1.31 0 0 0-.48 1.17 1.4 1.4 0 0 0-.39 2.21A1.35 1.35 0 0 0 7 19.19a1.41 1.41 0 0 0 .72.6v4.73a.48.48 0 0 0 .79.37l1.64-1.38 1.64 1.38a.48.48 0 0 0 .79-.37v-4.73a1.41 1.41 0 0 0 .72-.6 1.44 1.44 0 0 0 .06-1.27 1.42 1.42 0 0 0 .35-1.2zm-3.28 5.79a.48.48 0 0 0-.62 0l-1.16 1v-2.83l.2.11a1.43 1.43 0 0 0 1.27-.19 1.41 1.41 0 0 0 .81.27.9.9 0 0 0 .46-.09 1.32 1.32 0 0 0 .2-.09v2.8zm2.12-5.18a.48.48 0 0 0-.23.41v.19a.48.48 0 0 0 .09.29.5.5 0 0 1 0 .48.45.45 0 0 1-.44.21.47.47 0 0 0-.39.11l-.09.1-.07.06a.48.48 0 0 0-.14.34.33.33 0 0 1-.23.37h-.16a.53.53 0 0 1-.34-.17.48.48 0 0 0-.34-.14H10a.48.48 0 0 0-.34.14.47.47 0 0 1-.47.14.42.42 0 0 1-.26-.37.52.52 0 0 0-.27-.49.48.48 0 0 0-.42-.14.43.43 0 0 1-.44-.21.39.39 0 0 1 0-.47.48.48 0 0 0 .1-.3v-.13a.48.48 0 0 0-.23-.41.46.46 0 0 1-.21-.46.45.45 0 0 1 .35-.36.48.48 0 0 0 .37-.3.66.66 0 0 0 .09-.3.48.48 0 0 0 0-.15.41.41 0 0 1 .09-.49.45.45 0 0 1 .51 0 .51.51 0 0 0 .49 0 .48.48 0 0 0 .34-.32.46.46 0 0 1 .41-.3.4.4 0 0 1 .41.3.49.49 0 0 0 .11.18.58.58 0 0 0 .47.21.48.48 0 0 0 .25-.07.46.46 0 0 1 .5 0 .41.41 0 0 1 .1.49.48.48 0 0 0 0 .15.54.54 0 0 0 .1.32.48.48 0 0 0 .36.28.45.45 0 0 1 .35.36.47.47 0 0 1-.21.45z"/><path d="M21.44 0h-18A.48.48 0 0 0 3 .48v21.8a.48.48 0 0 0 .48.48h3.37v-1H4V1h17v20.8h-7.42v1h7.86a.48.48 0 0 0 .48-.48V.48a.48.48 0 0 0-.48-.48z"/></svg>