<svg id="icons" xmlns="http://www.w3.org/2000/svg" width="30.39px" height="48.25px" viewBox="0 0 30.39 48.25"><path fill="#bebfc6" d="M1068.94,7244.84h-17a8,8,0,0,1-4.81-1.44h21.78v-1.79h-23.36a5.51,5.51,0,0,1-.63-1.88h24v-1.79h-24a5.51,5.51,0,0,1,.63-1.88h23.36v-1.79h-21.78a8,8,0,0,1,4.81-1.44h17a1.34,1.34,0,1,0,0-2.68h-17c-5.66,0-9.77,3.65-9.77,8.68s4.11,8.68,9.77,8.68h17A1.34,1.34,0,1,0,1068.94,7244.84Z" transform="translate(-1042.2 -7199.27)"/><path fill="#bebfc6" d="M1067.17,7206.51c-3.22-.69-7.3,3.86-9.62,2.77a30.88,30.88,0,0,0-7.55-2.45c-1.68-.14-6.72,2.3-6.92,7.58s8.34,14.17,10.32,14.42,2.38-2.3,4.31-2.05,2.18,1.94,4.63,2.08,7.45-7.77,9.61-13.39S1070.38,7207.2,1067.17,7206.51Z" transform="translate(-1042.2 -7199.27)"/><path fill="#bebfc6" d="M1056.85,7206.81l1.35,0.25s0.54-6.33-1.45-7.79l-3.73,1.12S1056.93,7204.14,1056.85,7206.81Z" transform="translate(-1042.2 -7199.27)"/><path fill="#bebfc6" d="M1063.24,7202.09c-2.73,1.27-4.23,5.32-2.93,5.11,6.53-.44,7.2-7.09,7.2-7.09-8-1.3-8.51,6.92-8.51,6.92A8.23,8.23,0,0,1,1063.24,7202.09Z" transform="translate(-1042.2 -7199.27)"/></svg>