<svg xmlns="http://www.w3.org/2000/svg" viewBox="0 0 25 25"><path d="M21.36 21.31A12.49 12.49 0 0 0 3.69 3.64a12.49 12.49 0 0 0 17.62 17.72zM24 12.5a11.48 11.48 0 0 1-3 7.8l-1.55-1.56a3.85 3.85 0 0 0-2.72-3.27 8.55 8.55 0 0 0 .35-1.62h2.24a.48.48 0 1 0 0-1h-2.21v-1.33a2.25 2.25 0 0 0 1-.56c.9-.84 1.36-2.37 1.36-4.55a.48.48 0 0 0-1 0c0 2.34-.56 3.37-1 3.82a1.42 1.42 0 0 1-.58.35 1 1 0 0 0-.32-.45 1 1 0 0 0-.57-.19 3.48 3.48 0 0 0 .27-1.44A2.68 2.68 0 0 0 14.42 6a2 2 0 0 0-1.92-1.82A2 2 0 0 0 10.58 6a2.72 2.72 0 0 0-1.77 2.14L4.7 4A11.52 11.52 0 0 1 24 12.5zM8.92 9.6c0 .06 0 .13.05.19a.85.85 0 0 0-.59.15 1 1 0 0 0-.37.6 1.41 1.41 0 0 1-.51-.32 4.48 4.48 0 0 1-1-3zm.81-1.11c0-1.55 1.81-2 2.77-2s2.77.41 2.77 2c0 1.11-.31 1.72-1.76 1.9a8.94 8.94 0 0 1-1 .06 7.86 7.86 0 0 1-1.51-.14L9.78 9.1a3.59 3.59 0 0 1-.05-.61zm2-2.81a.86.86 0 0 1 1.6 0 5.37 5.37 0 0 0-1.63 0zm4.1 9.43l-3-3-.77-.77h1.41a11.9 11.9 0 0 0 1.84-.34l.69-.12a7.07 7.07 0 0 1 .16 2 7.74 7.74 0 0 1-.36 2.24zm-7-2.28A11.64 11.64 0 0 1 9 10.76a4.64 4.64 0 0 1 .52.15c.28.09.63.19 1 .29L12 12.7v5.62c-2.06-.63-3.15-3.13-3.15-5.48zm4.17.83l2.43 2.43A4.12 4.12 0 0 1 13 18.32v-4.66zM1 12.5a11.48 11.48 0 0 1 3-7.8l1.56 1.54a.47.47 0 0 0 0 .17c0 2.18.46 3.71 1.36 4.55a2.26 2.26 0 0 0 1 .56v1.33H5.71a.48.48 0 1 0 0 1h2.24a8.55 8.55 0 0 0 .35 1.62 3.85 3.85 0 0 0-2.78 3.82.48.48 0 0 0 1 0 2.88 2.88 0 0 1 2.17-2.91 5 5 0 0 0 3.78 3h.12a4.81 4.81 0 0 0 3.56-2.62l2.38 2.38v.11a.48.48 0 0 0 .48.48h.08L20.3 21A11.52 11.52 0 0 1 1 12.5z"/></svg>