<svg xmlns="http://www.w3.org/2000/svg" width="34.66px" height="31.55px" viewBox="0 0 34.66 31.55"><path fill="#bebfc6" d="M14.21,13.16.43,25.32A1.17,1.17,0,0,0,.27,27l.3.34a1.17,1.17,0,0,0,1.66,0L16,15.2Z"/><path fill="#bebfc6" d="M29.48,10.43,29,9.92a1.09,1.09,0,0,0-1.54-.15l-.06.05L21,2.51,21,2.45a1.09,1.09,0,0,0,0-1.54L20.63.4A1.09,1.09,0,0,0,19.09.25L18.2,1h0L12.38,6.18,10.5,7.84a1.09,1.09,0,0,0,0,1.54l.45.51a1.09,1.09,0,0,0,1.54.15L12.5,10,19,17.31l-.06.05a1.09,1.09,0,0,0,0,1.54l.45.51a1.09,1.09,0,0,0,1.54.15L29.44,12A1.09,1.09,0,0,0,29.48,10.43Z"/><path fill="#bebfc6" d="M34.66,30.09a1.48,1.48,0,0,1-1.51,1.46H12.05a1.48,1.48,0,0,1-1.51-1.46h0a1.48,1.48,0,0,1,1.51-1.46h21.1a1.48,1.48,0,0,1,1.51,1.46Z"/><path fill="#bebfc6" d="M32.37,26a1.35,1.35,0,0,1-1.22,1.46H14.06A1.35,1.35,0,0,1,12.84,26h0a1.35,1.35,0,0,1,1.22-1.46H31.15A1.35,1.35,0,0,1,32.37,26Z"/></svg>