<svg xmlns="http://www.w3.org/2000/svg" viewBox="0 0 25 25"><path d="M22.67 0H4.1a1.92 1.92 0 0 0-1.42.56A2.7 2.7 0 0 0 2 2.36V4H.48a.48.48 0 1 0 0 1h4.08a.48.48 0 1 0 0-1H3V2.35a1.78 1.78 0 0 1 .39-1.12A1 1 0 0 1 4.1 1h18.54A1.41 1.41 0 0 1 24 2.33v21.21a1.31 1.31 0 0 1-1.37 1H4.33A1.44 1.44 0 0 1 3 23.16v-1H2v1a2.38 2.38 0 0 0 2.26 2.36h18.41A2.28 2.28 0 0 0 25 23.63V2.33A2.34 2.34 0 0 0 22.67 0z"/><path d="M18.5 11.75a.48.48 0 0 0 .5-.48V6.38a.48.48 0 0 0-.5-.48H8.75a.48.48 0 0 0-.48.48v4.9a.48.48 0 0 0 .48.48h9.75zM9.23 6.86H18v3.94H9.23V6.86zM2 6.62v2.53H.48a.48.48 0 1 0 0 1h4.08a.48.48 0 1 0 0-1H3V6.62H2zM.48 15.28h4.08a.48.48 0 0 0 0-1H3v-2.53H2v2.57H.48a.48.48 0 0 0 0 .96zM5 20a.48.48 0 0 0-.48-.48H3v-2.61H2v2.57H.48a.48.48 0 1 0 0 1h4.08A.48.48 0 0 0 5 20z"/></svg>