<svg xmlns="http://www.w3.org/2000/svg" viewBox="0 0 25 25"><path d="M25 10.49a.48.48 0 0 0-.27-.43l-12-6a.48.48 0 0 0-.43 0l-12 6a.48.48 0 0 0 0 .86l1.7.87v7.32a1.48 1.48 0 0 0-1 1.4 6.1 6.1 0 0 0 1.1 2.27l.4.57.4-.57A6.1 6.1 0 0 0 4 20.51a1.48 1.48 0 0 0-1-1.4v-6.84l2 1V15c0 1.29 4.69 1.48 7.49 1.48h1.7a5.4 5.4 0 1 0 7.36-3.94l3.18-1.59a.48.48 0 0 0 .27-.46zm-22 10a3.84 3.84 0 0 1-.52 1.11A3.84 3.84 0 0 1 2 20.51a.52.52 0 1 1 1 0zm9.5-5A26.86 26.86 0 0 1 6.41 15a26.87 26.87 0 0 1 6.1-.52c.93 0 1.74 0 2.48.07a5.39 5.39 0 0 0-.49.93c-.61.02-1.26.04-1.99.04zM6 14.16v-2.51c.47-.26 2.67-.65 6.51-.65s6 .42 6.53.67v.48a5.38 5.38 0 0 0-3.29 1.5c-1.13-.08-2.29-.11-3.24-.11a24.56 24.56 0 0 0-6.51.62zm18.1 3.34a4.6 4.6 0 1 1-4.6-4.6 4.6 4.6 0 0 1 4.6 4.6zm-4-5.36h-.15v-.65C20 10.2 15.31 10 12.51 10S5 10.2 5 11.49v.72l-3.44-1.72L12.51 5l10.94 5.47z"/><path d="M19.11 14.45v.46a1.47 1.47 0 0 0-.82.37 1.63 1.63 0 0 0-.41 1.19c0 1 .9 1.27 1.55 1.44s1 .32 1 .75a.76.76 0 0 1-.95.73.91.91 0 0 1-.95-.95h-.8a1.72 1.72 0 0 0 1.36 1.7v.48h.8v-.45a1.48 1.48 0 0 0 1.33-1.5c0-1.09-.93-1.34-1.61-1.53s-1-.32-1-.7a.86.86 0 0 1 .17-.6.84.84 0 0 1 .61-.19.77.77 0 0 1 .89.75h.8a1.57 1.57 0 0 0-1.25-1.5v-.45h-.8z"/></svg>