<svg id="icons" xmlns="http://www.w3.org/2000/svg" width="42.61px" height="29.8px" viewBox="0 0 42.61 29.8"><circle fill="#bebfc6" cx="21.32" cy="17.48" r="6.72"/><path fill="#bebfc6" d="M1678.31,7839.49h-13a0.66,0.66,0,0,1-.62-0.43l-1-2.76a0.66,0.66,0,0,0-.62-0.43h-8.81a0.66,0.66,0,0,0-.62.43l-1,2.76a0.66,0.66,0,0,1-.62.43h-4.72v-0.32a1.12,1.12,0,0,0-1.11-1.11h-3.95a1.12,1.12,0,0,0-1.11,1.11v0.32H1639a1.68,1.68,0,0,0-1.67,1.67V7864a1.68,1.68,0,0,0,1.67,1.67h39.27A1.68,1.68,0,0,0,1680,7864v-22.84A1.68,1.68,0,0,0,1678.31,7839.49Zm-19.62,23.21a9.35,9.35,0,1,1,9.35-9.35A9.35,9.35,0,0,1,1658.69,7862.7Zm18-18.37h-6.5v-1.9h6.5v1.9Z" transform="translate(-1637.37 -7835.87)"/></svg>