<svg xmlns="http://www.w3.org/2000/svg" viewBox="0 0 25 25"><path d="M24 3.13h-3.92v-.62a1 1 0 0 0-1-1h-1a1 1 0 0 0-1 1v.62h-2.51a.49.49 0 0 0 0 1h2.52v1.39a1 1 0 0 0 1 1h1a1 1 0 0 0 1-1V4.11h3.94v4.64h-9.57a.49.49 0 0 0 0 1H24V24H2.5V13.54a.49.49 0 1 0-1 0V24a1 1 0 0 0 1 1H24a1 1 0 0 0 1-1V4.14a1 1 0 0 0-1-1.01zm-4.91 2.41h-1v-3h1v3z"/><path d="M6.37 6.66a.48.48 0 0 0 0 .09l.08.07.06.08 2 1.51a.49.49 0 0 0 .59-.79L7.32 6.28V2.51a.49.49 0 1 0-1 0v4a.48.48 0 0 0 .05.15zm6.4 4.99v2.72H6a.49.49 0 0 0-.49.49v6.44a.49.49 0 0 0 .49.49h14.49a.49.49 0 0 0 .51-.49v-9.65a.49.49 0 0 0-.49-.49h-7.25a.49.49 0 0 0-.49.49zm1 .49h2.71v2.23h-2.73v-2.23zm2.71 5.45h-2.73v-2.23h2.71v2.23zm1-2.23H20v2.23h-2.56v-2.23zm-3.69 3.21h2.71v2.23h-2.75v-2.23zm-1 2.23h-2.71v-2.23h2.69v2.23zm0-3.21h-2.71v-2.23h2.69v2.23zm-3.67 0h-2.6v-2.23H9.1v2.23zm-2.58 1H9.1v2.23H6.52v-2.25zm10.92 2.23v-2.25H20v2.23h-2.56zM20 14.38h-2.56v-2.24H20v2.23z"/><path d="M6.83 13.66A6.83 6.83 0 1 0 0 6.83a6.83 6.83 0 0 0 6.83 6.83zM6.83 1A5.85 5.85 0 1 1 1 6.83 5.86 5.86 0 0 1 6.83 1z"/></svg>