<svg xmlns="http://www.w3.org/2000/svg" viewBox="0 0 25 25"><path d="M24.27 4.84a2.19 2.19 0 0 0-2.43-2H20v1h1.88a1.24 1.24 0 0 1 1.47 1V8.8H1.66V5.2A1.56 1.56 0 0 1 2 4a.91.91 0 0 1 .7-.17h2.76v2.35a.48.48 0 0 0 1 0V.48a.48.48 0 1 0-1 0v2.39H2.75a1.85 1.85 0 0 0-1.36.45A2.41 2.41 0 0 0 .7 5.2v17.47A2.55 2.55 0 0 0 3.14 25h18.62a2.62 2.62 0 0 0 2.51-2.73V4.84zM21.74 24H3.14a1.61 1.61 0 0 1-1.48-1.43V9.76h21.65v12.51A1.67 1.67 0 0 1 21.74 24z"/><path d="M11.52 6.18a.48.48 0 1 0 1 0V.48a.48.48 0 1 0-1 0v2.37h-2.9v1h2.9v2.33zm5.63 0a.48.48 0 0 0 1 0V.48a.48.48 0 1 0-1 0v2.37h-2.9v1h2.9v2.33zm2.2 5.73H9a.48.48 0 0 0-.48.48V15h-2.9a.48.48 0 0 0-.48.48v6.1a.48.48 0 0 0 .48.48h13.73a.48.48 0 0 0 .48-.48v-9.19a.48.48 0 0 0-.48-.48zM18.87 15h-2.35v-2.13h2.35V15zM12 19v2.09H9.49V19H12zm-2.51-1v-2.08H12V18H9.49zM13 19h2.59v2.09H13V19zm0-1v-2.08h2.59V18H13zm0-3v-2.13h2.59V15H13zm3.55 1h2.35v2h-2.38v-2.08zm-7-3.05H12V15H9.49v-2.13zM8.52 18H6.1v-2.08h2.42V18zM6.1 19h2.42v2.09H6.1V19zm10.42 2.09V19h2.35v2.09h-2.35z"/></svg>