<?xml version="1.0" encoding="UTF-8"?>
<svg width="45px" height="50px" viewBox="0 0 45 50" version="1.1" xmlns="http://www.w3.org/2000/svg" xmlns:xlink="http://www.w3.org/1999/xlink">
    <!-- Generator: Sketch 50 (54983) - http://www.bohemiancoding.com/sketch -->
    <title>Degee Database</title>
    <desc>Created with Sketch.</desc>
    <defs>
        <polygon id="path-1" points="0 0.177228916 43.8820667 0.177228916 43.8820667 10.8913855 0 10.8913855"></polygon>
        <polygon id="path-3" points="0 49.6987952 44.1427711 49.6987952 44.1427711 0.0177710843 0 0.0177710843"></polygon>
    </defs>
    <g id="Page-1" stroke="none" stroke-width="1" fill="none" fill-rule="evenodd">
        <g id="Homepage-Desktop" transform="translate(-280.000000, -901.000000)">
            <g id="Page-1" transform="translate(280.000000, 901.000000)">
                <polygon id="Fill-1" fill="#314652" points="21.5689759 15.2114458 22.2433735 15.2114458 22.2433735 2.44487952 21.5689759 2.44487952"></polygon>
                <g id="Group-71" transform="translate(0.000000, 0.283434)">
                    <path d="M30.7287349,2.55885542 C32.618494,5.40825301 35.6820482,5.40825301 37.5718072,2.55885542 L37.5718072,11.4073494 C35.6820482,14.2561446 32.618494,14.2561446 30.7287349,11.4073494 L30.7287349,2.55885542 Z" id="Fill-2" fill="#9C3D37"></path>
                    <path d="M32.4965663,11.0037952 C30.201988,8.15409639 23.8640361,8.15409639 21.5691566,11.0037952 L21.5691566,2.1553012 C23.8640361,-0.694698795 30.201988,-0.694698795 32.4965663,2.1553012 L32.4965663,11.0037952 Z" id="Fill-4" fill="#D14F4F"></path>
                    <path d="M30.7287326,11.4073795 C30.7275301,10.6293675 31.1877711,10.0347892 32.496506,11.0037651 C32.0440964,10.4414157 31.4335542,9.99231928 30.7287326,9.65195783 L30.7287326,11.4073795 Z" id="Fill-6" fill="#742D29"></path>
                    <g id="Group-10" transform="translate(0.000000, 14.457831)">
                        <g id="Clip-9"></g>
                        <path d="M43.6441867,10.5727108 C44.0038253,10.7477108 43.949006,10.8913855 43.5249096,10.8913855 L0.358945783,10.8913855 C-0.0678614458,10.8913855 -0.122078313,10.7477108 0.23876506,10.5727108 L21.2887651,0.309156627 C21.6484036,0.133253012 22.2345482,0.133253012 22.5935843,0.309156627 L43.6441867,10.5727108 Z" id="Fill-8" fill="#AEEFF6"></path>
                    </g>
                    <polygon id="Fill-11" fill="#3DB5C3" points="6.24006024 23.8634337 21.9409639 16.2071084 37.6436747 23.8634337"></polygon>
                    <polygon id="Fill-13" fill="#349BA7" points="21.9409639 16.7312651 36.5680723 23.863494 37.6436747 23.863494 21.9409639 16.2071687 6.24006024 23.863494 7.31415663 23.863494"></polygon>
                    <g id="Clip-16"></g>
                    <polygon id="Fill-15" fill="#3DB5C3" points="1.68433735 27.0259036 42.7204819 27.0259036 42.7204819 25.3493976 1.68433735 25.3493976"></polygon>
                    <polygon id="Fill-17" fill="#349BA7" points="1.68433735 25.8490964 42.7204819 25.8490964 42.7204819 25.3490964 1.68433735 25.3490964"></polygon>
                    <polygon id="Fill-18" fill="#AEEFF6" points="0 29.4894578 43.8816265 29.4894578 43.8816265 27.0259036 0 27.0259036"></polygon>
                    <path d="M7.34343373,31.766506 C6.03801205,31.426747 4.73138554,31.426747 3.42656627,31.766506 C2.98228916,35.54 2.685,35.6451205 2.7596988,39.1484337 C3.63439759,39.453253 4.51,39.6050602 5.38590361,39.6050602 C5.82957831,39.6050602 6.27445783,39.5646988 6.71933735,39.4863855 C7.14975904,39.4098795 7.57927711,39.2978313 8.0103012,39.1484337 C8.085,35.6451205 7.78771084,35.54 7.34343373,31.766506" id="Fill-19" fill="#AEEFF6"></path>
                    <path d="M7.2710241,30.9090663 L3.49783133,30.9090663 C3.09150602,30.9090663 2.75987952,31.227741 2.75987952,31.6153916 C2.75987952,32.004247 3.09150602,32.3217169 3.49783133,32.3217169 L7.2710241,32.3217169 C7.67795181,32.3217169 8.01018072,32.004247 8.01018072,31.6153916 C8.01018072,31.227741 7.67795181,30.9090663 7.2710241,30.9090663" id="Fill-20" fill="#3DB5C3"></path>
                    <path d="M2.96126506,31.2831265 L7.8076506,31.2831265 C7.67331325,31.0556265 7.48295181,30.9091265 7.27090361,30.9091265 L3.49771084,30.9091265 C3.28716867,30.9091265 3.09680723,31.0556265 2.96126506,31.2831265" id="Fill-21" fill="#349BA7"></path>
                    <path d="M7.76385542,29.4976506 L3.0063253,29.4976506 C2.6003012,29.4976506 2.26746988,29.8154217 2.26746988,30.2027711 C2.26746988,30.5922289 2.6003012,30.9090964 3.0063253,30.9090964 L7.76385542,30.9090964 C8.16957831,30.9090964 8.50240964,30.5922289 8.50240964,30.2027711 C8.50240964,29.8154217 8.16957831,29.4976506 7.76385542,29.4976506" id="Fill-22" fill="#3DB5C3"></path>
                    <path d="M2.46906627,29.8717108 L8.30099398,29.8717108 C8.16545181,29.6432108 7.97509036,29.4977108 7.76394578,29.4977108 L3.00611446,29.4977108 C2.79466867,29.4977108 2.60400602,29.6432108 2.46906627,29.8717108" id="Fill-23" fill="#349BA7"></path>
                    <path d="M7.87590361,39.1350904 L2.89307229,39.1350904 C2.4876506,39.1350904 2.15542169,39.4531627 2.15542169,39.8414157 C2.15542169,40.2296687 2.4876506,40.5471386 2.89307229,40.5471386 L7.87590361,40.5471386 C8.28283133,40.5471386 8.61506024,40.2296687 8.61506024,39.8414157 C8.61506024,39.4531627 8.28283133,39.1350904 7.87590361,39.1350904" id="Fill-24" fill="#3DB5C3"></path>
                    <path d="M2.35698795,39.5090602 L8.41301205,39.5090602 C8.27807229,39.2815602 8.08771084,39.1350602 7.87596386,39.1350602 L2.89283133,39.1350602 C2.68228916,39.1350602 2.4913253,39.2815602 2.35698795,39.5090602" id="Fill-25" fill="#349BA7"></path>
                    <path d="M8.48138554,40.5470783 L2.28861446,40.5470783 C1.88168675,40.5470783 1.55006024,40.865753 1.55006024,41.2534036 C1.55006024,41.6419578 1.88168675,41.9594277 2.28861446,41.9594277 L8.48138554,41.9594277 C8.88710843,41.9594277 9.22054217,41.6419578 9.22054217,41.2534036 C9.22054217,40.865753 8.88710843,40.5470783 8.48138554,40.5470783" id="Fill-26" fill="#3DB5C3"></path>
                    <path d="M1.75093373,40.9220482 L9.0178012,40.9220482 C8.88316265,40.6935482 8.69340361,40.5470482 8.48135542,40.5470482 L2.28858434,40.5470482 C2.07683735,40.5470482 1.88587349,40.6935482 1.75093373,40.9220482" id="Fill-27" fill="#349BA7"></path>
                    <polygon id="Fill-28" fill="#3DB5C3" points="2.26777108 44.0060241 8.50240964 44.0060241 8.50240964 41.9596386 2.26777108 41.9596386"></polygon>
                    <polygon id="Fill-29" fill="#349BA7" points="2.26777108 42.4623494 8.50240964 42.4623494 8.50240964 41.9623494 2.26777108 41.9623494"></polygon>
                    <path d="M18.3812952,31.766506 C17.0764759,31.426747 15.7698494,31.426747 14.4650301,31.766506 C14.020753,35.54 13.7234639,35.6451205 13.7969578,39.1484337 C14.6728614,39.453253 15.5478614,39.6050602 16.4237651,39.6050602 C16.8680422,39.6050602 17.3129217,39.5646988 17.7565964,39.4863855 C18.1873193,39.4098795 18.617741,39.2978313 19.0475602,39.1484337 C19.1234639,35.6451205 18.8255723,35.54 18.3812952,31.766506" id="Fill-30" fill="#AEEFF6"></path>
                    <path d="M18.309488,30.9090663 L14.5356928,30.9090663 C14.1293675,30.9090663 13.7971386,31.227741 13.7971386,31.6153916 C13.7971386,32.004247 14.1293675,32.3217169 14.5356928,32.3217169 L18.309488,32.3217169 C18.7164157,32.3217169 19.0474398,32.004247 19.0474398,31.6153916 C19.0474398,31.227741 18.7164157,30.9090663 18.309488,30.9090663" id="Fill-31" fill="#3DB5C3"></path>
                    <path d="M13.9991265,31.2831265 L18.8461145,31.2831265 C18.7117771,31.0556265 18.5208133,30.9091265 18.3093675,30.9091265 L14.5355723,30.9091265 C14.3247289,30.9091265 14.1346687,31.0556265 13.9991265,31.2831265" id="Fill-32" fill="#349BA7"></path>
                    <path d="M18.8022892,29.4976506 L14.0441566,29.4976506 C13.6381325,29.4976506 13.306506,29.8154217 13.306506,30.2027711 C13.306506,30.5922289 13.6381325,30.9090964 14.0441566,30.9090964 L18.8022892,30.9090964 C19.208012,30.9090964 19.5396386,30.5922289 19.5396386,30.2027711 C19.5396386,29.8154217 19.208012,29.4976506 18.8022892,29.4976506" id="Fill-33" fill="#3DB5C3"></path>
                    <path d="M13.5075,29.8717108 L19.3394277,29.8717108 C19.2026807,29.6432108 19.0129217,29.4977108 18.8023795,29.4977108 L14.0439458,29.4977108 C13.8321988,29.4977108 13.6418373,29.6432108 13.5075,29.8717108" id="Fill-34" fill="#349BA7"></path>
                    <path d="M18.9143675,39.1350904 L13.9315361,39.1350904 C13.5261145,39.1350904 13.1938855,39.4531627 13.1938855,39.8414157 C13.1938855,40.2296687 13.5261145,40.5471386 13.9315361,40.5471386 L18.9143675,40.5471386 C19.3206928,40.5471386 19.6535241,40.2296687 19.6535241,39.8414157 C19.6535241,39.4531627 19.3206928,39.1350904 18.9143675,39.1350904" id="Fill-35" fill="#3DB5C3"></path>
                    <path d="M13.3948494,39.5090602 L19.4514759,39.5090602 C19.3165361,39.2815602 19.1261747,39.1350602 18.9144277,39.1350602 L13.9312952,39.1350602 C13.7201506,39.1350602 13.5297892,39.2815602 13.3948494,39.5090602" id="Fill-36" fill="#349BA7"></path>
                    <path d="M19.519759,40.5470783 L13.3272892,40.5470783 C12.9203614,40.5470783 12.5881325,40.865753 12.5881325,41.2534036 C12.5881325,41.6419578 12.9203614,41.9594277 13.3272892,41.9594277 L19.519759,41.9594277 C19.9254819,41.9594277 20.2577108,41.6419578 20.2577108,41.2534036 C20.2577108,40.865753 19.9254819,40.5470783 19.519759,40.5470783" id="Fill-37" fill="#3DB5C3"></path>
                    <path d="M12.7899699,40.9220482 L20.0556325,40.9220482 C19.9215964,40.6935482 19.7318373,40.5470482 19.5197892,40.5470482 L13.3270181,40.5470482 C13.1146687,40.5470482 12.9237048,40.6935482 12.7899699,40.9220482" id="Fill-38" fill="#349BA7"></path>
                    <polygon id="Fill-39" fill="#3DB5C3" points="13.3069277 44.0060241 19.539759 44.0060241 19.539759 41.9596386 13.3069277 41.9596386"></polygon>
                    <polygon id="Fill-40" fill="#349BA7" points="13.3069277 42.4623494 19.539759 42.4623494 19.539759 41.9623494 13.3069277 41.9623494"></polygon>
                    <path d="M29.4192169,31.766506 C28.1131928,31.426747 26.8077711,31.426747 25.5029518,31.766506 C25.0580723,35.54 24.7607831,35.6451205 24.8348795,39.1484337 C25.7107831,39.453253 26.5857831,39.6050602 27.4604819,39.6050602 C27.9053614,39.6050602 28.3496386,39.5646988 28.7951205,39.4863855 C29.225241,39.4098795 29.6556627,39.2978313 30.0842771,39.1484337 C30.1601807,35.6451205 29.8628916,35.54 29.4192169,31.766506" id="Fill-41" fill="#AEEFF6"></path>
                    <path d="M29.3473494,30.9090663 L25.5741566,30.9090663 C25.1672289,30.9090663 24.835,31.227741 24.835,31.6153916 C24.835,32.004247 25.1672289,32.3217169 25.5741566,32.3217169 L29.3473494,32.3217169 C29.7530723,32.3217169 30.0840964,32.004247 30.0840964,31.6153916 C30.0840964,31.227741 29.7530723,30.9090663 29.3473494,30.9090663" id="Fill-42" fill="#3DB5C3"></path>
                    <path d="M25.036988,31.2831265 L29.8839759,31.2831265 C29.7490361,31.0556265 29.5574699,30.9091265 29.3472289,30.9091265 L25.5740361,30.9091265 C25.3622892,30.9091265 25.1719277,31.0556265 25.036988,31.2831265" id="Fill-43" fill="#349BA7"></path>
                    <path d="M29.8389759,29.4976506 L25.0820482,29.4976506 C24.6751205,29.4976506 24.343494,29.8154217 24.343494,30.2027711 C24.343494,30.5922289 24.6751205,30.9090964 25.0820482,30.9090964 L29.8389759,30.9090964 C30.2453012,30.9090964 30.5775301,30.5922289 30.5775301,30.2027711 C30.5775301,29.8154217 30.2453012,29.4976506 29.8389759,29.4976506" id="Fill-44" fill="#3DB5C3"></path>
                    <path d="M24.5442771,29.8717108 L30.3762048,29.8717108 C30.2406627,29.6432108 30.0509036,29.4977108 29.8388554,29.4977108 L25.0819277,29.4977108 C24.8698795,29.4977108 24.6798193,29.6432108 24.5442771,29.8717108" id="Fill-45" fill="#349BA7"></path>
                    <path d="M29.9522289,39.1350904 L24.9687952,39.1350904 C24.5639759,39.1350904 24.2311446,39.4531627 24.2311446,39.8414157 C24.2311446,40.2296687 24.5639759,40.5471386 24.9687952,40.5471386 L29.9522289,40.5471386 C30.3573494,40.5471386 30.6901807,40.2296687 30.6901807,39.8414157 C30.6901807,39.4531627 30.3573494,39.1350904 29.9522289,39.1350904" id="Fill-46" fill="#3DB5C3"></path>
                    <path d="M24.4321084,39.5090602 L30.4893373,39.5090602 C30.3543976,39.2815602 30.1634337,39.1350602 29.9522892,39.1350602 L24.9685542,39.1350602 C24.7577108,39.1350602 24.5670482,39.2815602 24.4321084,39.5090602" id="Fill-47" fill="#349BA7"></path>
                    <path d="M30.5571084,40.5470783 L24.3637349,40.5470783 C23.958012,40.5470783 23.6257831,40.865753 23.6257831,41.2534036 C23.6257831,41.6419578 23.958012,41.9594277 24.3637349,41.9594277 L30.5571084,41.9594277 C30.9628313,41.9594277 31.2950602,41.6419578 31.2950602,41.2534036 C31.2950602,40.865753 30.9628313,40.5470783 30.5571084,40.5470783" id="Fill-48" fill="#3DB5C3"></path>
                    <path d="M23.8272289,40.9220482 L31.093494,40.9220482 C30.9588554,40.6935482 30.768494,40.5470482 30.5570482,40.5470482 L24.3636747,40.5470482 C24.1513253,40.5470482 23.9615663,40.6935482 23.8272289,40.9220482" id="Fill-49" fill="#349BA7"></path>
                    <polygon id="Fill-50" fill="#3DB5C3" points="24.3433735 44.0060241 30.5774096 44.0060241 30.5774096 41.9596386 24.3433735 41.9596386"></polygon>
                    <polygon id="Fill-51" fill="#349BA7" points="24.3433735 42.4623494 30.5774096 42.4623494 30.5774096 41.9623494 24.3433735 41.9623494"></polygon>
                    <path d="M40.4559036,31.766506 C39.1516867,31.426747 37.8450602,31.426747 36.5396386,31.766506 C36.0953614,35.54 35.7980723,35.6451205 35.8727711,39.1484337 C36.7486747,39.453253 37.6230723,39.6050602 38.4983735,39.6050602 C38.9438554,39.6050602 39.3875301,39.5646988 39.8324096,39.4863855 C40.2631325,39.4098795 40.6923494,39.2978313 41.1227711,39.1484337 C41.1980723,35.6451205 40.9001807,35.54 40.4559036,31.766506" id="Fill-52" fill="#AEEFF6"></path>
                    <path d="M40.3846988,30.9090663 L36.611506,30.9090663 C36.2048795,30.9090663 35.8729518,31.227741 35.8729518,31.6153916 C35.8729518,32.004247 36.2048795,32.3217169 36.611506,32.3217169 L40.3846988,32.3217169 C40.7904217,32.3217169 41.1226506,32.004247 41.1226506,31.6153916 C41.1226506,31.227741 40.7904217,30.9090663 40.3846988,30.9090663" id="Fill-53" fill="#3DB5C3"></path>
                    <path d="M36.074247,31.2831265 L40.9218373,31.2831265 C40.7868976,31.0556265 40.5959337,30.9091265 40.3847892,30.9091265 L36.6112952,30.9091265 C36.3995482,30.9091265 36.2097892,31.0556265 36.074247,31.2831265" id="Fill-54" fill="#349BA7"></path>
                    <path d="M40.8762349,29.4976506 L36.1193072,29.4976506 C35.7135843,29.4976506 35.3813554,29.8154217 35.3813554,30.2027711 C35.3813554,30.5922289 35.7135843,30.9090964 36.1193072,30.9090964 L40.8762349,30.9090964 C41.2825602,30.9090964 41.6153916,30.5922289 41.6153916,30.2027711 C41.6153916,29.8154217 41.2825602,29.4976506 40.8762349,29.4976506" id="Fill-55" fill="#3DB5C3"></path>
                    <path d="M35.5821084,29.8717108 L41.4140361,29.8717108 C41.278494,29.6432108 41.0881325,29.4977108 40.8760843,29.4977108 L36.1191566,29.4977108 C35.9074096,29.4977108 35.7176506,29.6432108 35.5821084,29.8717108" id="Fill-56" fill="#349BA7"></path>
                    <path d="M40.989488,39.1350904 L36.0066566,39.1350904 C35.6012349,39.1350904 35.2693072,39.4531627 35.2693072,39.8414157 C35.2693072,40.2296687 35.6012349,40.5471386 36.0066566,40.5471386 L40.989488,40.5471386 C41.3958133,40.5471386 41.7280422,40.2296687 41.7280422,39.8414157 C41.7280422,39.4531627 41.3958133,39.1350904 40.989488,39.1350904" id="Fill-57" fill="#3DB5C3"></path>
                    <path d="M35.4705422,39.5090602 L41.5265663,39.5090602 C41.3925301,39.2815602 41.2015663,39.1350602 40.9895181,39.1350602 L36.0063855,39.1350602 C35.795241,39.1350602 35.6048795,39.2815602 35.4705422,39.5090602" id="Fill-58" fill="#349BA7"></path>
                    <path d="M41.5949699,40.5470783 L35.4012952,40.5470783 C34.9952711,40.5470783 34.6624398,40.865753 34.6624398,41.2534036 C34.6624398,41.6419578 34.9952711,41.9594277 35.4012952,41.9594277 L41.5949699,41.9594277 C42.0000904,41.9594277 42.3329217,41.6419578 42.3329217,41.2534036 C42.3329217,40.865753 42.0000904,40.5470783 41.5949699,40.5470783" id="Fill-59" fill="#3DB5C3"></path>
                    <path d="M34.8645783,40.9220482 L42.1314458,40.9220482 C41.996506,40.6935482 41.8061446,40.5470482 41.595,40.5470482 L35.4010241,40.5470482 C35.1892771,40.5470482 34.9989157,40.6935482 34.8645783,40.9220482" id="Fill-60" fill="#349BA7"></path>
                    <polygon id="Fill-61" fill="#3DB5C3" points="35.3813253 44.0060241 41.6153614 44.0060241 41.6153614 41.9596386 35.3813253 41.9596386"></polygon>
                    <polygon id="Fill-62" fill="#349BA7" points="35.3813253 42.4623494 41.6153614 42.4623494 41.6153614 41.9623494 35.3813253 41.9623494"></polygon>
                    <polygon id="Fill-63" fill="#AEEFF6" points="0.261746988 49.6987952 10.0144578 49.6987952 10.0144578 44.0036145 0.261746988 44.0036145"></polygon>
                    <polygon id="Fill-64" fill="#AEEFF6" points="34.3915663 49.6987952 44.1427711 49.6987952 44.1427711 44.0036145 34.3915663 44.0036145"></polygon>
                    <polygon id="Fill-65" fill="#3DB5C3" points="10.0237952 45.9012048 34.3801205 45.9012048 34.3801205 44.0036145 10.0237952 44.0036145"></polygon>
                    <polygon id="Fill-66" fill="#3DB5C3" points="10.0237952 47.8 34.3801205 47.8 34.3801205 45.9012048 10.0237952 45.9012048"></polygon>
                    <polygon id="Fill-67" fill="#3DB5C3" points="10.0237952 49.6987952 34.3801205 49.6987952 34.3801205 47.8006024 10.0237952 47.8006024"></polygon>
                    <polygon id="Fill-68" fill="#AEEFF6" points="10.0237952 44.5039157 34.3801205 44.5039157 34.3801205 44.0039157 10.0237952 44.0039157"></polygon>
                    <polygon id="Fill-69" fill="#AEEFF6" points="10.0237952 46.4024096 34.3801205 46.4024096 34.3801205 45.9024096 10.0237952 45.9024096"></polygon>
                    <polygon id="Fill-70" fill="#AEEFF6" points="10.0237952 48.3006024 34.3801205 48.3006024 34.3801205 47.8006024 10.0237952 47.8006024"></polygon>
                </g>
            </g>
        </g>
    </g>
</svg>