<svg xmlns="http://www.w3.org/2000/svg" viewBox="0 0 25 25"><path d="M24.6 4h-8.1a4.9 4.9 0 0 0-4 1.58A4.9 4.9 0 0 0 8.5 4H.4a.4.4 0 0 0-.4.4v15.48a.4.4 0 0 0 .4.4h8.12a4.89 4.89 0 0 1 3.21 1.12H1.79a.4.4 0 0 0 0 .81H23.2a.4.4 0 0 0 0-.81h-9.93a4.85 4.85 0 0 1 3.23-1.12h8.1a.4.4 0 0 0 .4-.4V4.4a.4.4 0 0 0-.4-.4zM12.1 20.65a5.68 5.68 0 0 0-3.51-1.17H.81V4.81H8.5c2.58 0 3.43 1.3 3.59 1.6v14.24zm12.1-1.17h-7.69a5.83 5.83 0 0 0-3.61 1.17V6.4c.16-.3 1-1.6 3.59-1.6h7.7v14.68z"/><path d="M10 7.19H2.85a.4.4 0 1 0 0 .81H10a.4.4 0 0 0 0-.81zm0 2.3H2.85a.4.4 0 1 0 0 .81H10a.4.4 0 0 0 0-.81zm0 2.3H2.85a.4.4 0 1 0 0 .81H10a.4.4 0 0 0 0-.81zm0 2.3H2.85a.4.4 0 1 0 0 .81H10a.4.4 0 0 0 0-.81zm0 2.3H2.85a.4.4 0 1 0 0 .81H10a.4.4 0 0 0 0-.81zm4.52-8.8a.4.4 0 0 0 .4.4h7.17a.4.4 0 1 0 0-.81h-7.17a.4.4 0 0 0-.4.41zm7.57 1.9h-7.17a.4.4 0 1 0 0 .81h7.17a.4.4 0 1 0 0-.81zm0 2.3h-7.17a.4.4 0 1 0 0 .81h7.17a.4.4 0 1 0 0-.81zm0 2.3h-7.17a.4.4 0 1 0 0 .81h7.17a.4.4 0 1 0 0-.81zm0 2.3h-7.17a.4.4 0 1 0 0 .81h7.17a.4.4 0 1 0 0-.81z"/></svg>