<svg xmlns="http://www.w3.org/2000/svg" width="41.27px" height="38.39px" viewBox="0 0 41.27 38.39"><path fill="#bebfc6" d="M40,17.85l-3.64-3.64c-1.12-1.12-2.1-2-3.49-.58L31.48,15l7.7,7.7,1.36-1.36C41.94,20,41.09,19,40,17.85Z"/><path fill="#bebfc6" d="M35.74,25.75l-7.3-7.3a1.4,1.4,0,0,1,.2-1.94l.56-.56a1.4,1.4,0,0,1,1.94-.2l7.3,7.3a1.4,1.4,0,0,1-.2,1.94l-.56.56A1.4,1.4,0,0,1,35.74,25.75Z"/><path fill="#bebfc6" d="M27.66,18.83,17,29.46l-.68,5-.55,4,4-.55,5-.68L35.36,26.53ZM24.6,36l-.2.2-4.8.66a3.44,3.44,0,0,0-2.28-2.28l.66-4.8.21-.21a1.37,1.37,0,0,1,1.7.37,1.36,1.36,0,0,1,.2,2h0a1.36,1.36,0,0,1,2,.2,1.36,1.36,0,0,1,.2,2h0A1.58,1.58,0,0,1,24.6,36Z"/><path fill="#bebfc6" d="M22.6,0,0,22.6l9.57,9.57,22.6-22.6ZM3,22.31l2.1-2.1,2.64,2.64,1.32-1.32L6.44,18.89l1.44-1.44,1.73,1.73,1.32-1.32L9.2,16.14l1.44-1.44,2.64,2.64L14.59,16l-2.64-2.64,1.44-1.44,1.73,1.73,1.32-1.32L14.7,10.63l1.44-1.44,2.64,2.64,1.32-1.32L17.46,7.88l1.44-1.44,1.73,1.73,1.32-1.32L20.21,5.13,22.31,3l6.83,6.83L9.86,29.14Z"/></svg>