<svg xmlns="http://www.w3.org/2000/svg" width="42.26px" height="27.62px" viewBox="0 0 42.26 27.62"><path fill="#bebfc6" d="M25.65,24.34h-9l-.93-1H0v1.88a2.41,2.41,0,0,0,2.4,2.4H39.85a2.41,2.41,0,0,0,2.4-2.4V23.33H26.58ZM6.13,26.14H4.29V24.79H6.13Zm3.42,0H7.72V24.79H9.55Z"/><path fill="#bebfc6" d="M5.29,3H37V24.07h2V2.22A2.23,2.23,0,0,0,36.75,0H5.51A2.23,2.23,0,0,0,3.29,2.22V24.07h2ZM21.13.83a.69.69,0,1,1-.69.69A.69.69,0,0,1,21.13.83Z"/><path fill="#bebfc6" d="M17.88,20.14v0a3.25,3.25,0,0,1,6.5,0h9.1V18l-3.19-.69-.67-1.62,1.77-2.74-3-3L25.6,11.66,24,11l-.68-3.19H19L18.3,11l-1.62.67L13.93,9.88l-3,3,1.77,2.75L12,17.29,8.79,18v2.14h7.77v0Z"/></svg>