<svg version="1.1"
   xmlns="http://www.w3.org/2000/svg" xmlns:xlink="http://www.w3.org/1999/xlink" xmlns:a="http://ns.adobe.com/AdobeSVGViewerExtensions/3.0/"
   x="0px" y="0px" width="20px" height="20px" viewBox="0 0 20 20" enable-background="new 0 0 20 20" xml:space="preserve">

<path fill="#BEBFC6" d="M10,0L0,6.2h20L10,0z M15.6,7.5l0.6,1.2v7.5h2.5V8.8l0.6-1.2H15.6z M10.6,7.5l0.6,1.2v7.5h2.5V8.8l0.6-1.2
  H10.6z M5.6,7.5l0.6,1.2v7.5h2.5V8.8l0.6-1.2H5.6z M0.6,7.5l0.6,1.2v7.5h2.5V8.8l0.6-1.2H0.6z M0.6,17.5L0,20h20l-0.6-2.5H0.6z
   M11.2,3.8C11.2,4.4,10.7,5,10,5C9.3,5,8.8,4.4,8.8,3.8c0-0.7,0.6-1.2,1.2-1.2C10.7,2.5,11.2,3.1,11.2,3.8z"/>
</svg>
