<svg version="1.1"
   xmlns="http://www.w3.org/2000/svg" xmlns:xlink="http://www.w3.org/1999/xlink"
   x="0px" y="0px" width="20px" height="20px" viewBox="0 0 20 20" enable-background="new 0 0 20 20" xml:space="preserve">
<path fill="#BEBFC6" d="M10,18.1c-1,0-2-0.2-2.9-0.5c-0.5,0.7-0.9,1.5-0.9,2.4h7.5c0-0.9-0.3-1.8-0.9-2.4C12,17.9,11,18.1,10,18.1z
   M12.5,11.2v2.5h1.7c-0.1,0.1-0.1,0.2-0.2,0.2c-1.1,1.1-2.5,1.6-4,1.6S7.1,15,6,14c-1.1-1.1-1.6-2.5-1.6-4c0-1.4,0.6-2.8,1.5-3.8
  l4.6,3.6l1.5-2L2,0l0,0L0,1.6L4.4,5c-1.2,1.3-1.9,3.1-1.9,5c0,4.1,3.4,7.5,7.5,7.5c2.8,0,5.2-1.5,6.5-3.8H20v-2.5H12.5z"/>
</svg>
