<svg width="20px" height="32px" viewBox="0 0 20 32" version="1.1" xmlns="http://www.w3.org/2000/svg" xmlns:xlink="http://www.w3.org/1999/xlink">
  <g stroke="none" stroke-width="1" fill="none" fill-rule="evenodd">
    <g transform="translate(-434.000000, -912.000000)">
      <g transform="translate(428.000000, 704.000000)">
        <path d="M8,220 L24,220 L24,210 L8,210 L8,220 Z M20,226 L24,226 L24,222 L20,222 L20,226 Z M20,232 L24,232 L24,228 L20,228 L20,232 Z M20,238 L24,238 L24,234 L20,234 L20,238 Z M14,226 L18,226 L18,222 L14,222 L14,226 Z M14,232 L18,232 L18,228 L14,228 L14,232 Z M14,238 L18,238 L18,234 L14,234 L14,238 Z M8,226 L12,226 L12,222 L8,222 L8,226 Z M8,232 L12,232 L12,228 L8,228 L8,232 Z M8,238 L12,238 L12,234 L8,234 L8,238 Z M24,208 L8,208 C6.9,208 6,208.9 6,210 L6,238 C6,239.1 6.9,240 8,240 L24,240 C25.1,240 26,239.1 26,238 L26,210 C26,208.9 25.1,208 24,208 L24,208 Z"></path>
      </g>
    </g>
  </g>
</svg>