<svg xmlns="http://www.w3.org/2000/svg" width="39.26px" height="30.91px" viewBox="0 0 39.26 30.91"><path fill="#bebfc6" d="M27.82.09V2.22a9.45,9.45,0,0,0,2,.09v8.53h4.61v4.35H36.7v2.13H2.56V15.19H4.69c.25-1.11-.08-2.81.17-3.93H7.68c.2-2.42,0-5.21.09-7.77,1.1-.32,2.1-.74,3.16-1.11.13-.58-.28-1.7.26-1.88.81-.07.27,1.21.43,1.79A17.67,17.67,0,0,0,14.76,3.5V8.37c.23.2.82,0,1.19.09v-3c1.2-.64,2.43-1.27,3.58-2q1.94,1,3.75,2c0,2.22,0,4.79,0,6.74.29.2.94,0,1.37.09.2-3.19,0-6.74.09-10.07h2C27.06,1.54,26.18-.44,27.82.09Z"/><path fill="#bebfc6" d="M10.16,19.55Q7.82,25.28,5.38,30.9c-1.66,0-3.51,0-5.38,0q3.22-5.79,6.66-11.35Z"/><path fill="#bebfc6" d="M21.42,19.55c.11.49.05,1.14.17,1.62H17.75a9.31,9.31,0,0,1,.09-1.62Z"/><path fill="#bebfc6" d="M29.1,19.55h3.58c2.18,3.8,4.48,7.47,6.57,11.35-1.88,0-3.7,0-5.38,0C32.27,27.13,30.67,23.36,29.1,19.55Z"/><path fill="#bebfc6" d="M21.76,23c-.06.78.18,1.68.09,2.22-1.26-.19-3.17.1-4.35,0A5.87,5.87,0,0,1,17.58,23Z"/><path fill="#bebfc6" d="M22.1,27.82c.09,1,.19,2,.26,3.07-1.79-.06-3.81.11-5.46-.09.12-1,.16-2,.26-3Z"/></svg>