<svg xmlns="http://www.w3.org/2000/svg" viewBox="0 0 25 25"><path d="M23.76 25H1.48a.48.48 0 0 1-.48-.48c0-4 3.43-5.42 5.93-6.49 1.07-.46 2.28-1 2.28-1.42v-2.69a5.84 5.84 0 0 1-2.35-4.65V5.76a5.76 5.76 0 0 1 11.51 0v3.51A5.84 5.84 0 0 1 16 13.92v2.68c0 .47 1.17 1 2.3 1.44 2.49 1.05 5.9 2.49 5.9 6.47a.48.48 0 0 1-.44.49zM2 24h21.26c-.27-3-3-4.16-5.3-5.11-1.62-.68-2.89-1.22-2.89-2.33v-2.89a.48.48 0 0 1 .21-.4 4.85 4.85 0 0 0 2.13-4V5.76a4.8 4.8 0 0 0-9.59 0v3.51a4.85 4.85 0 0 0 2.13 4 .48.48 0 0 1 .21.4v2.93c0 1.08-1.26 1.62-2.86 2.31C5 19.88 2.25 21.07 2 24z"/></svg>