<svg xmlns="http://www.w3.org/2000/svg" viewBox="0 0 25 25"><path d="M12.5 8a2.12 2.12 0 1 0-2.12-2.12A2.12 2.12 0 0 0 12.5 8zm0-3.28a1.16 1.16 0 1 1-1.16 1.16 1.16 1.16 0 0 1 1.16-1.19z"/><path d="M24.52 21.21h-.61v-1.15a.48.48 0 0 0-.48-.48h-1.16v-8.33h.07a.48.48 0 0 0 .48-.48V9.61H24a.48.48 0 0 0 .48-.48V7.49a.48.48 0 0 0-.26-.43l-11.47-6a.48.48 0 0 0-.45 0l-11.5 6a.48.48 0 0 0-.26.43v1.64a.48.48 0 0 0 .46.48h1.19v1.16a.48.48 0 0 0 .48.48h.06v8.33H1.57a.48.48 0 0 0-.48.48v1.16H.48a.48.48 0 0 0-.48.48v1.64a.48.48 0 0 0 .48.48h24a.48.48 0 0 0 .52-.49V21.7a.48.48 0 0 0-.48-.49zM2.67 8.65H1.51v-.87L12.5 2l11 5.76v.89H2.67zm16.93 1.64h-.06v-.68h2.32v.68H19.6zm1.7 1v8.33h-1.22v-8.37h1.22zm-2.25 0h.07v8.33H16.8v-8.37h.07a.48.48 0 0 0 .48-.48V9.61h1.22v1.16a.48.48 0 0 0 .49.48zm-4.92-1h-.06v-.68h2.32v.68h-2.25zm1.7 1v8.33h-1.21v-8.37h1.22zm-2.25 0h.07v8.33h-2.31v-8.37h.07a.48.48 0 0 0 .48-.48V9.61h1.22v1.16a.48.48 0 0 0 .48.48zm-4.92-1h-.05v-.68h2.32v.68H8.68zm1.7 1v8.33h-1.2v-8.37h1.22zm-2.25 0h.09v8.33H5.88v-8.37h.06a.48.48 0 0 0 .48-.48V9.61h1.23v1.16a.48.48 0 0 0 .48.48zm-4.92-1h-.04v-.68h2.31v.68H3.21zm1.7 1v8.33h-1.2v-8.37h1.23zM24 22.85H1v-.67h.57a.48.48 0 0 0 .48-.48v-1.16h20.9v1.16a.48.48 0 0 0 .48.48H24v.68z"/></svg>