<svg xmlns="http://www.w3.org/2000/svg" viewBox="0 0 25 25"><path d="M6.14 5.85a3 3 0 0 1-.31-1.33 3.1 3.1 0 1 1 6.21 0H13a4 4 0 1 0-8 0 3.92 3.92 0 0 0 .4 1.73z"/><path d="M23.66 11.71h-.9a1.45 1.45 0 0 1-.27 0A6 6 0 0 0 18.77 7a10.22 10.22 0 0 1 .86-3.53.45.45 0 0 0-.54-.6 5.82 5.82 0 0 0-4 3 14.33 14.33 0 0 0-3-.32 11.53 11.53 0 0 0-7.37 2.51 6.8 6.8 0 0 0-2.2 3.11A2.09 2.09 0 0 1 .91 9.28a1.43 1.43 0 0 1 .8-1.37.45.45 0 1 0-.36-.83A2.35 2.35 0 0 0 0 9.28 3 3 0 0 0 2.26 12 9.87 9.87 0 0 0 2 14.76a7.37 7.37 0 0 0 3 5.18c.16.12.21.16.14.37-.17.53-.48 1.27-.49 1.28a1.4 1.4 0 0 0 .81 1.8l1.76.67A1.4 1.4 0 0 0 9 23.25l.43-1.12a1.86 1.86 0 0 0 .07-.18 3.2 3.2 0 0 1 .38.07 9.63 9.63 0 0 0 2.17.23 17.81 17.81 0 0 0 2.05-.12l.54-.06a.62.62 0 0 1 .07.15c.17.52.39 1 .39 1a1.39 1.39 0 0 0 1.8.81l1.76-.67a1.4 1.4 0 0 0 .81-1.8l-.31-.8s-.05-.11.15-.21a7 7 0 0 0 2.95-3.14.46.46 0 0 1 .48-.37h.89A1.35 1.35 0 0 0 25 15.72v-2.67a1.35 1.35 0 0 0-1.34-1.34zm.43 4a.44.44 0 0 1-.43.43h-.9a1.35 1.35 0 0 0-1.3.89 6 6 0 0 1-2.56 2.73 1.14 1.14 0 0 0-.6.69 1 1 0 0 0 .06.7l.28.75a.48.48 0 0 1 0 .37.48.48 0 0 1-.27.26l-1.76.67a.49.49 0 0 1-.63-.3s-.21-.49-.37-1a.93.93 0 0 0-1-.75 5.56 5.56 0 0 0-.57 0 16.82 16.82 0 0 1-2 .11 8.84 8.84 0 0 1-2-.21 1 1 0 0 0-1.49.69l-.37 1.19a.49.49 0 0 1-.63.28l-1.75-.67a.48.48 0 0 1-.29-.61s.33-.78.51-1.34a1.16 1.16 0 0 0-.48-1.39 6.45 6.45 0 0 1-2.63-4.48 6.89 6.89 0 0 1 2.37-5.94 10.65 10.65 0 0 1 6.8-2.23 13.34 13.34 0 0 1 3.17.37.46.46 0 0 0 .52-.25 4.75 4.75 0 0 1 2.69-2.6 9.06 9.06 0 0 0-.6 3.29.46.46 0 0 0 .3.42 5 5 0 0 1 3.43 4 1.05 1.05 0 0 0 1.17.8h.89a.44.44 0 0 1 .43.44v2.67z"/><path d="M18.79 11.2a1.5 1.5 0 1 0 1.5 1.5 1.5 1.5 0 0 0-1.5-1.5zm.42 1.92a.59.59 0 0 1-.42.17.59.59 0 1 1 .41-.17z"/></svg>