<!-- Generator: Adobe Illustrator 18.1.1, SVG Export Plug-In  -->
<svg version="1.1"
   xmlns="http://www.w3.org/2000/svg" xmlns:xlink="http://www.w3.org/1999/xlink" xmlns:a="http://ns.adobe.com/AdobeSVGViewerExtensions/3.0/"
   x="0px" y="0px" width="20px" height="20px" viewBox="0 0 20 20" enable-background="new 0 0 20 20" xml:space="preserve">
<defs>
</defs>
<path fill="#BEBFC6" d="M7.1,14.1L7.9,13L7,12.1l-1.1,0.8c-0.2-0.1-0.4-0.2-0.7-0.3L5,11.2H3.8l-0.2,1.4c-0.2,0.1-0.5,0.2-0.7,0.3
  l-1.1-0.8L0.8,13l0.8,1.1c-0.1,0.2-0.2,0.4-0.3,0.7L0,15v1.2l1.4,0.2c0.1,0.2,0.2,0.5,0.3,0.7l-0.8,1.1l0.9,0.9l1.1-0.8
  c0.2,0.1,0.4,0.2,0.7,0.3L3.8,20H5l0.2-1.4c0.2-0.1,0.5-0.2,0.7-0.3L7,19.2l0.9-0.9l-0.8-1.1c0.1-0.2,0.2-0.4,0.3-0.7l1.4-0.2V15
  l-1.4-0.2C7.3,14.5,7.2,14.3,7.1,14.1z M4.4,16.9c-0.7,0-1.2-0.6-1.2-1.2s0.6-1.2,1.2-1.2s1.2,0.6,1.2,1.2S5.1,16.9,4.4,16.9z
   M20,7.5V6.2L18.7,6c0-0.2-0.1-0.3-0.1-0.5l1.1-0.7l-0.5-1.2l-1.3,0.3c-0.1-0.1-0.2-0.3-0.3-0.4l0.8-1.1l-0.9-0.9l-1.1,0.8
  c-0.1-0.1-0.3-0.2-0.4-0.3l0.3-1.3l-1.2-0.5l-0.7,1.1c-0.2,0-0.3-0.1-0.5-0.1L13.8,0h-1.2l-0.2,1.3c-0.2,0-0.3,0.1-0.5,0.1l-0.7-1.1
  L9.9,0.8l0.3,1.3c-0.1,0.1-0.3,0.2-0.4,0.3L8.7,1.6L7.8,2.5l0.8,1.1C8.5,3.7,8.4,3.8,8.3,3.9L7,3.7L6.5,4.8l1.1,0.7
  c0,0.2-0.1,0.3-0.1,0.5L6.2,6.2v1.2l1.3,0.2c0,0.2,0.1,0.3,0.1,0.5L6.5,8.9L7,10.1l1.3-0.3c0.1,0.1,0.2,0.3,0.3,0.4l-0.8,1.1
  l0.9,0.9l1.1-0.8c0.1,0.1,0.3,0.2,0.4,0.3L9.9,13l1.2,0.5l0.7-1.1c0.2,0,0.3,0.1,0.5,0.1l0.2,1.3h1.2l0.2-1.3c0.2,0,0.3-0.1,0.5-0.1
  l0.7,1.1l1.2-0.5l-0.3-1.3c0.1-0.1,0.3-0.2,0.4-0.3l1.1,0.8l0.9-0.9l-0.8-1.1c0.1-0.1,0.2-0.3,0.3-0.4l1.3,0.3l0.5-1.2l-1.1-0.7
  c0-0.2,0.1-0.3,0.1-0.5L20,7.5z M13.1,9.6c-1.5,0-2.7-1.2-2.7-2.7s1.2-2.7,2.7-2.7c1.5,0,2.7,1.2,2.7,2.7S14.6,9.6,13.1,9.6z"/>
</svg>
