<svg xmlns="http://www.w3.org/2000/svg" viewBox="0 0 25 25"><path d="M8.71 8.23c-2.34 0-3.79 1.61-3.79 4.27s1.45 4.27 3.79 4.27 3.79-1.69 3.79-4.27S11 8.23 8.71 8.23zm0 7.34c-1.53 0-2.5-1.21-2.5-3.06s1-3.06 2.5-3.06 2.5 1.21 2.5 3.06-.97 3.05-2.5 3.05zM17.17 12l-.89-.24c-1-.24-1.45-.56-1.45-1.13a1.45 1.45 0 0 1 1.69-1.21 1.55 1.55 0 0 1 1.69 1.21h1.21a2.66 2.66 0 0 0-2.9-2.34c-1.77 0-3 1-3 2.42 0 1.21.73 1.94 2.18 2.26l1 .24c1 .24 1.53.56 1.53 1.21s-.73 1.21-1.77 1.21a1.71 1.71 0 0 1-1.94-1.29H13.3c.08 1.45 1.29 2.42 3.06 2.42 1.94 0 3.15-1 3.15-2.5 0-1.2-.65-1.84-2.34-2.26z"/><path d="M12.5 0A12.56 12.56 0 0 0 0 12.5 12.56 12.56 0 0 0 12.5 25 12.56 12.56 0 0 0 25 12.5 12.56 12.56 0 0 0 12.5 0zm0 24A11.5 11.5 0 1 1 24 12.5 11.51 11.51 0 0 1 12.5 24z"/></svg>