<svg id="icons" xmlns="http://www.w3.org/2000/svg" width="37.54" height="30.94" viewBox="0 0 37.54 30.94"><polygon fill="#bebfc6" points="17.09 4.49 12.69 0.7 0.17 5.7 4.58 9.49 17.09 4.49"/><polygon fill="#bebfc6" points="36.18 5.02 23.64 0 19.33 4.19 31.87 9.2 36.18 5.02"/><polygon fill="#bebfc6" points="19.3 16.62 19.3 30.94 31.86 25.92 31.86 18.42 24.72 21.28 19.3 16.62"/><polygon fill="#bebfc6" points="20.63 15.65 25.02 19.43 37.54 14.42 33.14 10.64 20.63 15.65"/><polygon fill="#bebfc6" points="5.02 18.98 5.02 25.92 17.57 30.94 17.57 17.61 12.9 22.14 5.02 18.98"/><polygon fill="#bebfc6" points="16.84 16.08 4.31 11.07 0 15.26 12.53 20.27 16.84 16.08"/></svg>