<svg xmlns="http://www.w3.org/2000/svg" viewBox="0 0 25 25"><path d="M6.17 8.53h9.9v.78h-9.9zm0 2.52h9.9v.78h-9.9zm0-7.57h4.46v.78H6.17zm0 2.52h9.9v.78h-9.9zm13.21 13.8c-.65-.18-.83-.27-.84-.6a.74.74 0 0 1 .15-.52.73.73 0 0 1 .53-.16.66.66 0 0 1 .77.64h.78a1.41 1.41 0 0 0-1.11-1.36v-.38h-.79v.38a1.34 1.34 0 0 0-.73.33 1.48 1.48 0 0 0-.37 1.09 1.46 1.46 0 0 0 1.41 1.32c.69.19.89.3.89.65s-.14.63-.82.63a.77.77 0 0 1-.82-.82h-.78a1.57 1.57 0 0 0 1.21 1.55V23h.78v-.4a1.35 1.35 0 0 0 1.19-1.37 1.53 1.53 0 0 0-1.45-1.43z"/><path d="M19.64 15.32V.39a.39.39 0 0 0-.39-.39H3a.39.39 0 0 0-.4.39v19.74a.39.39 0 0 0 .39.39h11.44a4.85 4.85 0 1 0 5.21-5.2zM3.38 19.74v-19h15.49v14.58a4.83 4.83 0 0 0-4.43 4.42H3.38zm15.88 4.49a4.08 4.08 0 1 1 4.08-4.08 4.09 4.09 0 0 1-4.09 4.07z"/></svg>