<svg xmlns="http://www.w3.org/2000/svg" viewBox="0 0 25 25"><path d="M25 12.5a12.5 12.5 0 1 0-6.58 11l6 1.48h.12a.48.48 0 0 0 .46-.58l-1.52-5.89A12.5 12.5 0 0 0 25 12.5zm-1.15 11.36l-5.38-1.33a.48.48 0 0 0-.35 0 11.54 11.54 0 1 1 4.41-4.37.48.48 0 0 0 0 .36z"/><path d="M12.14 6.3A3.72 3.72 0 0 0 8.7 9.76a.48.48 0 0 0 .48.48.48.48 0 0 0 .48-.48 2.75 2.75 0 0 1 2.62-2.51 2.64 2.64 0 0 1 3.1 1.58 2.82 2.82 0 0 1-.1 1.91 5.36 5.36 0 0 1-1.5 1.66 8.58 8.58 0 0 0-1.32 1.29 4.12 4.12 0 0 0-.84 2.79.48.48 0 0 0 .48.47.48.48 0 0 0 .47-.49 3.15 3.15 0 0 1 .64-2.19 7.67 7.67 0 0 1 1.18-1.14 6.18 6.18 0 0 0 1.74-2 3.74 3.74 0 0 0 .16-2.61 3.56 3.56 0 0 0-4.15-2.22zm0 11.84a.48.48 0 0 0-.48.48v.5a.48.48 0 0 0 1 0v-.5a.48.48 0 0 0-.52-.48z"/></svg>