<svg xmlns="http://www.w3.org/2000/svg" width="34.11px" height="37.64px" viewBox="0 0 34.11 37.64"><path fill="#bebfc6" d="M16.3,32.12v-6c-5.32,0-7.58-.18-11.66-3.84a10.61,10.61,0,0,1-2.82-4.14C1.13,16.52.6,14.9.18,13.71c-.89-2.54,1.63-3.65,4.1-2.28S6.79,17.86,10,19.51c.24.12.38.09.4-.11.26-2.67-3.67-6.24-5.68-9.43C3.59,8.16,2.86,6.15,4.21,4.23c4-5.64,21.73-5.64,25.69,0,1.35,1.93.62,3.93-.53,5.75-2,3.19-5.94,6.76-5.69,9.43,0,.2.16.23.4.11,3.22-1.65,3.18-6.67,5.73-8.08s5-.26,4.1,2.28c-.42,1.19-.95,2.8-1.63,4.38a10.61,10.61,0,0,1-2.82,4.14c-4.08,3.66-6.34,3.83-11.66,3.84v6c1.51-.25,7.53-1.27,8.81-1.47.68-.11.62.49.62,1.12l-1.24.3v-.35l-5.66,1.74,7.2,2.74c.51.19.42.94.42,1.45l-1.36-.25V37L18.35,34.6c-.1,0-.81,0-1.29,0s-1.2,0-1.29,0L7.53,37v.4l-1.36.25c0-.51-.09-1.26.42-1.45l7.2-2.74L8.11,31.71v.35l-1.24-.3c0-.63-.06-1.22.62-1.12C8.77,30.85,14.79,31.86,16.3,32.12Z"/></svg>