<?xml version="1.0" encoding="UTF-8" standalone="no"?>
<svg width="25px" height="25px" viewBox="0 0 25 25" version="1.1" xmlns="http://www.w3.org/2000/svg" xmlns:xlink="http://www.w3.org/1999/xlink">
    <!-- Generator: Sketch 43.2 (39069) - http://www.bohemiancoding.com/sketch -->
    <title>Icon Location Pin</title>
    <defs></defs>
    <g id="Page-1" stroke="none" stroke-width="1" fill="none" fill-rule="evenodd" opacity="0.75">
        <g id="Icon-Location-Pin-25x25px" fill="#333E4C">
            <path d="M10.1300461,21.6468918 C10.976985,22.5766053 11.7973384,23.4837347 12.5303393,24.3155836 C13.2557444,23.4837347 14.0798957,22.5766053 14.9268346,21.6506559 C16.8485884,19.5390394 18.888078,17.3069742 20.2819192,15.3421546 C20.8440132,14.5479459 21.2769775,13.6859848 21.5656203,12.7750914 C21.8580611,11.860434 22.0061805,10.9043724 22.0061805,9.93701869 C22.0061805,7.34360737 20.9465574,4.99109348 19.229892,3.29351945 C17.5132265,1.59594543 15.1433168,0.545783223 12.5303393,0.545783223 C9.90976599,0.545783223 7.53985621,1.59594543 5.8231908,3.29351945 C4.11032331,4.99109348 3.05070019,7.34360737 3.05070019,9.93701869 C3.05070019,10.9119004 3.19881955,11.85667 3.48366448,12.7600354 C3.77230733,13.6671647 4.20527162,14.5328898 4.7787594,15.3421546 C6.17260057,17.3069742 8.20829231,19.5390394 10.1300461,21.6468918 M8.99826223,6.44024203 C8.09815227,7.3323153 7.53605828,8.57067862 7.53605828,9.93701869 C7.53605828,11.3033588 8.09815227,12.537958 8.99826223,13.4337953 C9.90217013,14.3296326 11.1516899,14.8829439 12.5303393,14.8829439 C13.9051908,14.8829439 15.1547106,14.3296326 16.0586185,13.4337953 C16.9587284,12.537958 17.5170245,11.3033588 17.5170245,9.93701869 C17.5170245,8.56691459 16.9587284,7.3323153 16.0586185,6.44024203 C15.1547106,5.54440474 13.9051908,4.99109348 12.5303393,4.99109348 C11.1516899,4.99109348 9.90217013,5.54440474 8.99826223,6.44024203 M12.5303393,5.53311268 C11.3036072,5.53311268 10.190813,6.02619959 9.38565133,6.8241723 C8.58428761,7.61838099 8.08675847,8.71747548 8.08675847,9.93701869 L8.08296054,9.93701869 C8.08296054,11.1527979 8.58428761,12.2518924 9.38944926,13.0498651 C10.190813,13.8478378 11.3036072,14.3409247 12.5303393,14.3409247 C13.7532735,14.3409247 14.8660677,13.8478378 15.6712294,13.0498651 C16.4725931,12.2518924 16.9739201,11.1527979 16.9739201,9.93701869 C16.9739201,8.71747548 16.4725931,7.61838099 15.6712294,6.8241723 C14.8660677,6.02619959 13.7532735,5.53311268 12.5303393,5.53311268 M12.3176551,24.9027711 C11.5238872,23.9843496 10.638969,23.0132319 9.72746524,22.012002 C7.79051975,19.8853294 5.73963629,17.6344441 4.33060339,15.6545685 C3.72673215,14.8001354 3.26718233,13.881714 2.95954981,12.9218883 C2.65571523,11.9695907 2.5,10.9721248 2.5,9.93701869 C2.5,7.19304648 3.62418797,4.70879181 5.43959963,2.90958918 C7.25121336,1.11415058 9.7578487,0 12.5303393,0 C15.2952341,0 17.8056673,1.11415058 19.6172811,2.90958918 C21.4326927,4.70879181 22.5530828,7.19304648 22.5530828,9.93701869 C22.5530828,10.9645968 22.3935696,11.9771187 22.0859371,12.9369444 C21.7783046,13.8967701 21.3225527,14.8151915 20.7262773,15.6545685 C19.3172444,17.6382082 17.2663609,19.8890935 15.3294154,22.012002 C14.4179117,23.0132319 13.5329934,23.9881137 12.7354277,24.9065351 C12.6366814,25.0194558 12.4619765,25.0307478 12.3518365,24.9366473 C12.3404427,24.9253552 12.325251,24.9140631 12.3176551,24.9027711" id="Fill-1"></path>
        </g>
    </g>
</svg>