<svg xmlns="http://www.w3.org/2000/svg" viewBox="0 0 25 25"><path d="M24.56 23h-1.87V5a.44.44 0 0 0-.44-.44h-5.92a.44.44 0 0 0 0 .88h5.48V23h-1.87v-4.37a.44.44 0 0 0-.44-.44h-2.88a.44.44 0 1 0 0 .88h2.45V23h-4.18V1.44a.44.44 0 0 0-.44-.44h-12a.44.44 0 0 0-.45.44V23H.44a.44.44 0 0 0 0 .88h24.12a.44.44 0 0 0 0-.88zM9.82 23H6.95v-3.93h2.87V23zM14 23h-3.3v-4.37a.44.44 0 0 0-.44-.44H6.51a.44.44 0 0 0-.44.44V23H2.9V1.88H14V23z"/><path d="M4.92 5.34h6.64a.44.44 0 0 0 0-.88H4.92a.44.44 0 0 0 0 .88zm0 3.04h6.64a.44.44 0 0 0 0-.88H4.92a.44.44 0 0 0 0 .88zm0 3.03h6.64a.44.44 0 0 0 0-.88H4.92a.44.44 0 0 0 0 .88zm0 3.03h6.64a.44.44 0 0 0 0-.88H4.92a.44.44 0 0 0 0 .88zm11.7-6.06h2.89a.44.44 0 0 0 0-.88h-2.89a.44.44 0 1 0 0 .88zm0 3.03h2.89a.44.44 0 0 0 0-.88h-2.89a.44.44 0 1 0 0 .88zm0 3.03h2.89a.44.44 0 0 0 0-.88h-2.89a.44.44 0 1 0 0 .88z"/></svg>