<svg version="1.1"
   xmlns="http://www.w3.org/2000/svg" xmlns:xlink="http://www.w3.org/1999/xlink" xmlns:a="http://ns.adobe.com/AdobeSVGViewerExtensions/3.0/"
   x="0px" y="0px" width="20px" height="22.4px" viewBox="0 0 20 22.4" enable-background="new 0 0 20 22.4" xml:space="preserve">
<path fill="#BEBFC6" d="M16.7,6.5c1.9,1.9,1.2,5.7-4.7,4.3c-1.5,0.2-4.6,0.7-5-1.5C6.4,9.6,3.5,7.6,5.8,4.6C8.6,1.1,15.3,2,16.7,6.5
  z M3.7,18.8c-1-1.2-0.8-3.9-0.7-4.9H1.2c-0.5,0-0.9-0.2-1.1-0.6c-0.2-0.5,0-1.2,0.6-1.8c1-1,1.5-2,1.5-2.6V8.9c0-0.4,0-1.5,0.3-2.8
  C2.9,4.3,3.6,3,4.7,1.9C6,0.7,7.9,0,10.1,0c2.6,0,6.1,0.6,8.2,3.5c0.9,1.2,1.4,2.6,1.6,4.2c0.1,1.4-0.1,2.9-0.5,4.2
  c-0.6,1.5-1.7,2.3-2.2,3c-0.9,1.2-1.6,3.3-1.6,7.5h-1.4c0-4.6,0.9-6.9,1.9-8.3c0.5-0.7,1.5-1.4,2-2.7c0.4-1.1,0.6-2.4,0.5-3.6
  c-0.1-1.3-0.6-2.6-1.3-3.5c-0.7-0.9-1.5-1.6-2.6-2.1c-1.2-0.6-2.8-0.9-4.5-0.9c-1,0-1.9,0.2-2.7,0.4C6.8,2,6.2,2.4,5.7,2.9
  c-0.9,0.8-1.5,2-1.8,3.4C3.6,7.5,3.6,8.5,3.6,8.9c0,0,0,0.1,0,0.1c0,1.1-0.7,2.4-1.9,3.5c-0.1,0.1-0.1,0.1-0.2,0.2h3.2l-0.2,1.2
  c0,0-0.2,0.8-0.2,1.7c0,1.5,0.3,2.3,0.5,2.4c0.1,0.1,0.2,0.2,0.4,0.2c1.6,0,2.1,0,2.7,0.6c0.7,0.7,0.7,2.7,0.7,3.6H7.2
  c0-0.7,0-2.4-0.3-2.7c-0.3-0.3-0.6-0.2-1.7-0.2C4.6,19.5,4.1,19.3,3.7,18.8z"/>
</svg>
