<svg xmlns="http://www.w3.org/2000/svg" width="43.59px" height="43.59px" viewBox="0 0 43.59 43.59"><path fill-rule="evenodd" fill="#bebfc6" d="M12.16,25.42a.23.23,0,0,0-.08.32l1.81,3.13a.23.23,0,0,0,.32.09l2.11-1.22-2-3.53Z"/><path fill-rule="evenodd" fill="#bebfc6" d="M26.22,19.66l-2.77-4.79a.47.47,0,0,0-.64-.17l-4.12,2.38a.48.48,0,0,0-.17.64A1,1,0,0,1,18.39,19l-3.86,4.39,1.29,2.23,1.29,2.23,5.74-1.15a1,1,0,0,1,1.21.55.48.48,0,0,0,.63.17l4.12-2.38a.47.47,0,0,0,.17-.64Z"/><path fill-rule="evenodd" fill="#bebfc6" d="M28.85,16.23a.27.27,0,0,0,.1-.36l-.65-1.13a.27.27,0,0,0-.36-.1L25,16.32l.92,1.59Z"/><path fill-rule="evenodd" fill="#bebfc6" d="M30.86,19.19a.27.27,0,0,0-.36-.1l-2.9,1.68.92,1.59,2.9-1.68a.27.27,0,0,0,.1-.36Z"/><path fill-rule="evenodd" fill="#bebfc6" d="M40.15,24.48a18.42,18.42,0,0,0,0-5.41l3.44-2.14a22.21,22.21,0,0,0-3-7.13l-3.94.92A18.43,18.43,0,0,0,32.84,6.9l.92-3.95A22.18,22.18,0,0,0,26.62,0L24.48,3.44a18.42,18.42,0,0,0-5.41,0L16.93,0A22.2,22.2,0,0,0,9.79,3l.92,3.94a18.41,18.41,0,0,0-3.82,3.83L2.95,9.83A22.18,22.18,0,0,0,0,17l3.44,2.14a18.38,18.38,0,0,0,0,5.41L0,26.67A22.21,22.21,0,0,0,3,33.8l3.94-.92a18.43,18.43,0,0,0,3.83,3.82l-.92,3.95A22.2,22.2,0,0,0,17,43.59l2.14-3.44a18.42,18.42,0,0,0,5.41,0l2.14,3.44a22.2,22.2,0,0,0,7.13-3l-.92-3.94a18.46,18.46,0,0,0,3.82-3.83l3.95.92a22.19,22.19,0,0,0,2.95-7.14ZM27,34.28a13.52,13.52,0,0,1-16.06-4.46l1.81-1-1.13-2-1.75,1-.13.06c-.15-.29-.3-.59-.43-.9A13.52,13.52,0,1,1,27,34.28Z"/></svg>