<svg xmlns="http://www.w3.org/2000/svg" width="33.67px" height="35.26px" viewBox="0 0 33.67 35.26"><path fill="#bebfc6" d="M1.18,27.6l0,0C1,27.87.68,28.4.07,34.56l-.07.7H33.67l-.07-.7c-.61-6.16-.94-6.69-1.08-6.92l0,0c-1.33-1.77-4.83-3.22-10.41-5.13V21.39c-.44.35-.87.65-1.28.92v1l-4,7.24-4-7.24v-1c-.41-.26-.84-.57-1.28-.92v1.08C6,24.37,2.51,25.83,1.18,27.6Z"/><path fill="#bebfc6" d="M11.63,20.6C13.68,22.28,15.28,23,16.8,23h.07C18.4,23,20,22.28,22,20.6c1.44-1.18,1.81-5.25,1.82-5.3,1.16-.67,1.18-2.23,1-3.4H8.81c-.17,1.18-.14,2.75,1,3.4C9.81,15.34,10.18,19.43,11.63,20.6Z"/><path fill="#bebfc6" d="M26.24,10.62V9.05l-2.18-.45V6.51A5.93,5.93,0,0,0,20,.89L19.82.82V8.61H18.54V0h-3.4V8.61H13.86V.78l-.19.06A5.91,5.91,0,0,0,9.5,6.51v2.1l-2.06.45v1.57Z"/></svg>