<?xml version="1.0" encoding="UTF-8" standalone="no"?>
<svg width="25px" height="25px" viewBox="0 0 25 25" version="1.1" xmlns="http://www.w3.org/2000/svg" xmlns:xlink="http://www.w3.org/1999/xlink">
    <!-- Generator: Sketch 43.2 (39069) - http://www.bohemiancoding.com/sketch -->
    <title>Icon Close</title>
    <defs></defs>
    <g id="Page-1" stroke="none" stroke-width="1" fill="none" fill-rule="evenodd">
        <g id="Icon-Close-25x25px" fill="#FFFFFF">
            <path d="M16.1611989,8.93219914 L16.1611989,-0.668816228 C16.1611989,-1.35948555 15.5974378,-1.91130057 14.9020033,-1.91130057 L10.1913948,-1.91130057 C9.49944663,-1.91130057 8.93219914,-1.35502138 8.93219914,-0.668816228 L8.93219914,8.93219914 L-0.668816228,8.93219914 C-1.35948555,8.93219914 -1.91130057,9.49596025 -1.91130057,10.1913948 L-1.91130057,14.9020033 C-1.91130057,15.5939515 -1.35502138,16.1611989 -0.668816228,16.1611989 L8.93219914,16.1611989 L8.93219914,25.7622143 C8.93219914,26.4528836 9.49596025,27.0046987 10.1913948,27.0046987 L14.9020033,27.0046987 C15.5939515,27.0046987 16.1611989,26.4484195 16.1611989,25.7622143 L16.1611989,16.1611989 L25.7622143,16.1611989 C26.4528836,16.1611989 27.0046987,15.5974378 27.0046987,14.9020033 L27.0046987,10.1913948 C27.0046987,9.49944663 26.4484195,8.93219914 25.7622143,8.93219914 L16.1611989,8.93219914 Z" id="Combined-Shape" transform="translate(12.546699, 12.546699) rotate(-45.000000) translate(-12.546699, -12.546699) "></path>
        </g>
    </g>
</svg>