<svg xmlns="http://www.w3.org/2000/svg" viewBox="0 0 25 25"><path d="M20.8 16.15a1.67 1.67 0 0 1-1.22-.81v-1.68l.23-.23C21 12.31 21.13 12 21.13 8.58a4 4 0 0 0-3.69-4.24 5.27 5.27 0 0 0-9.8 0 4 4 0 0 0-3.77 4.24c0 3.38.15 3.72 1.32 4.85l.23.23v1.68a1.67 1.67 0 0 1-1.22.81c-1.94.5-4.2 2-4.2 4.49a.44.44 0 0 0 .44.44h2a5 5 0 0 0-.58 2.41.44.44 0 0 0 .44.44h20.46a.44.44 0 0 0 .44-.44 5.06 5.06 0 0 0-.57-2.41h1.93a.44.44 0 0 0 .44-.44c0-2.51-2.26-3.98-4.2-4.49zm-19.88 4c.27-1.81 2.28-2.83 3.5-3.15a2.31 2.31 0 0 0 1.87-1.49.44.44 0 0 0 0-.1v-1.93a.44.44 0 0 0-.13-.31l-.36-.37c-.95-.92-1-1-1-4.22a3.06 3.06 0 0 1 2.6-3.32 5.27 5.27 0 0 0-.1 1v3.25a5.35 5.35 0 0 0 2.15 4.26v2.46c0 .41-1.11.89-2.09 1.31a11.23 11.23 0 0 0-4.3 2.66H.91zM2.78 23c.25-2.72 2.81-3.82 4.88-4.7 1.47-.63 2.63-1.12 2.63-2.12v-2.64a.44.44 0 0 0-.2-.37 4.45 4.45 0 0 1-2-3.67V6.28a4.4 4.4 0 1 1 8.8 0v3.23a4.45 4.45 0 0 1-2 3.67.44.44 0 0 0-.2.37v2.69c0 1 1.17 1.51 2.65 2.14 2.07.87 4.61 1.94 4.86 4.68H2.78zM22 20.2a11 11 0 0 0-4.25-2.64c-1-.44-2.11-.89-2.11-1.32v-2.47a5.35 5.35 0 0 0 2.15-4.26V6.28a5.28 5.28 0 0 0-.1-1 3.06 3.06 0 0 1 2.53 3.31c0 3.21-.1 3.3-1 4.22l-.37.36a.44.44 0 0 0-.13.31v1.94a.44.44 0 0 0 0 .1A2.31 2.31 0 0 0 20.58 17c1.22.32 3.23 1.33 3.51 3.19H22z"/></svg>