<svg xmlns="http://www.w3.org/2000/svg" viewBox="0 0 25 25"><path d="M.48 10.58h9.62a.48.48 0 0 0 .48-.48V.48a.48.48 0 1 0-1 0v9.14H.48a.48.48 0 1 0 0 .96zm14.42 0h9.62a.48.48 0 1 0 0-1h-9.14V.48a.48.48 0 1 0-1 0v9.62a.48.48 0 0 0 .52.48zm9.62 3.84H14.9a.48.48 0 0 0-.48.48v9.62a.48.48 0 1 0 1 0v-9.14h9.13a.48.48 0 1 0-.03-.96zm-14.42 0H.48a.48.48 0 1 0 0 1h9.14v9.13a.48.48 0 1 0 1 0V14.9a.48.48 0 0 0-.52-.48z"/><path d="M24.52 12H13V.48a.48.48 0 0 0-1 0V12H.48a.48.48 0 0 0 0 1H12v11.52a.48.48 0 1 0 1 0V13h11.52a.48.48 0 0 0 0-1z"/></svg>