<!-- Generator: Adobe Illustrator 18.1.1, SVG Export Plug-In  -->
<svg version="1.1"
   xmlns="http://www.w3.org/2000/svg" xmlns:xlink="http://www.w3.org/1999/xlink" xmlns:a="http://ns.adobe.com/AdobeSVGViewerExtensions/3.0/"
   x="0px" y="0px" width="36.1px" height="29.6px" viewBox="0 0 36.1 29.6" enable-background="new 0 0 36.1 29.6"
   xml:space="preserve">
<defs>
</defs>
<path fill="#BEBFC6" d="M36.1,13.4C36.1,6,28,0,18,0C8.1,0,0,6,0,13.4c0,7.4,8.1,13.4,18,13.4c2.4,0,4.7-0.3,6.8-1
  c0.7-0.2,7.7,3.8,7.7,3.8l-2.3-6.4C33.8,20.8,36.1,17.3,36.1,13.4z M28,17.9H8V16h20V17.9z M28,14.1H8v-1.9h20V14.1z M28,10.4H8V8.5
  h20V10.4z"/>
</svg>
