<svg xmlns="http://www.w3.org/2000/svg" width="42.97" height="43.57" viewBox="0 0 42.97 43.57"><path fill="#bebfc6" d="M40.62,26.92A8.14,8.14,0,0,0,43,21.22a8,8,0,0,0-.37-2.4,8.2,8.2,0,0,0-1.32-2.53v-.06a8,8,0,0,0-5.86-2.52V12.16a9.71,9.71,0,0,1,6.08,2.12c0-.25,0-.5,0-.75A9.31,9.31,0,0,0,33,5.25q-.47,0-1,0a10,10,0,0,0-1.2.07,3.91,3.91,0,0,0,0-2A4.35,4.35,0,0,0,26.59,0a4.3,4.3,0,0,0-4.38,4.2v9.59a7.89,7.89,0,0,1,4.63-1.49,8,8,0,0,1,4.58,14.55A34.37,34.37,0,0,1,28,29.74l-1.21.95h0l-.94.73a29.63,29.63,0,0,0-2.63,2.3h0l-1,.9V39.2a6,6,0,0,0,11.47.23,5.42,5.42,0,0,0,.22-1.54c0-.15,0-.31,0-.46h.37A6.16,6.16,0,0,0,36,37.21a5.72,5.72,0,0,0,4.21-5.43,5.28,5.28,0,0,0-.54-2.36,9.78,9.78,0,0,1-4.2.94V28.8A8,8,0,0,0,40.62,26.92Z"/><path fill="#bebfc6" d="M2.35,26.92A8.14,8.14,0,0,1,0,21.22a8,8,0,0,1,.37-2.4,8.2,8.2,0,0,1,1.32-2.53v-.06a8,8,0,0,1,5.86-2.52V12.16a9.71,9.71,0,0,0-6.08,2.12c0-.25,0-.5,0-.75A9.31,9.31,0,0,1,10,5.25q.47,0,1,0a10,10,0,0,1,1.2.07,3.91,3.91,0,0,1,0-2A4.35,4.35,0,0,1,16.38,0a4.3,4.3,0,0,1,4.38,4.2v9.59a7.89,7.89,0,0,0-4.63-1.49,8,8,0,0,0-4.58,14.55A34.37,34.37,0,0,0,15,29.74l1.21.95h0l.93.73a29.6,29.6,0,0,1,2.63,2.3h0l1,.9V39.2a6,6,0,0,1-11.47.23,5.42,5.42,0,0,1-.22-1.54c0-.15,0-.31,0-.46H8.72A6.16,6.16,0,0,1,7,37.21,5.72,5.72,0,0,1,2.8,31.77a5.27,5.27,0,0,1,.54-2.36,9.79,9.79,0,0,0,4.2.94V28.8A8,8,0,0,1,2.35,26.92Z"/><path fill="#bebfc6" d="M25.65,14.9a5.87,5.87,0,0,0-3.6,1.22l-.56.42-.56-.42a5.87,5.87,0,0,0-3.6-1.22,5.94,5.94,0,0,0-3.37,10.82l.07,0,.06.06a29.68,29.68,0,0,0,3,2.51l1.1.86.85.66A27.88,27.88,0,0,1,21.46,32l0,0h0l0,0A28,28,0,0,1,24,29.86l.85-.66,1.1-.86a29.75,29.75,0,0,0,3-2.51l.06-.06.07,0A5.94,5.94,0,0,0,25.65,14.9Z"/></svg>