<svg xmlns="http://www.w3.org/2000/svg" viewBox="0 0 25 25"><path d="M12.52 23.1a.89.89 0 0 1-.6-.32l-7.33-6.26-.89-.74c-.61-.49-1.24-1-1.8-1.56a7.24 7.24 0 0 1 3.21-11.8A7.23 7.23 0 0 1 12.5 4.1a7.34 7.34 0 0 1 12 7.86 7.52 7.52 0 0 1-2.63 3.31l-8.25 7-.15.15a1.73 1.73 0 0 1-.91.64h-.04zm-5-20a6.64 6.64 0 0 0-2 .33 6.18 6.18 0 0 0-4.39 5.32 6.27 6.27 0 0 0 1.56 4.78C3.21 14 3.81 14.54 4.4 15l.9.74 7.25 6.19.25-.27.2-.19 8.15-7a6.59 6.59 0 0 0 2.32-2.87 6.31 6.31 0 0 0-10.61-6.4.49.49 0 0 1-.71 0 6.11 6.11 0 0 0-4.62-2.08z"/></svg>