<svg width="32px" height="25px" viewBox="0 0 32 25" version="1.1" xmlns="http://www.w3.org/2000/svg" xmlns:xlink="http://www.w3.org/1999/xlink">
  <defs>
    <polygon id="path-1" points="32 26.982 32 0.000400000001 0.000400000001 0.000400000001 0.000400000001 26.982 32 26.982"></polygon>
  </defs>
  <g stroke="none" stroke-width="1" fill="none" fill-rule="evenodd">
    <g transform="translate(-428.000000, -1203.000000)">
      <g transform="translate(428.000000, 704.000000)">
        <g transform="translate(0.000000, 499.000000)">
          <path d="M24.6054,-2 C29.0514,0.843 32.0004,5.822 32.0004,11.491 C32.0004,17.16 29.0514,22.141 24.6054,24.982 C27.2994,21.685 29.0004,16.863 29.0004,11.491 C29.0004,6.119 27.2994,1.298 24.6054,-2 M3.0004,11.491 C3.0004,16.863 4.7004,21.685 7.3944,24.982 C2.9484,22.141 0.000400000001,17.16 0.000400000001,11.491 C0.000400000001,5.822 2.9484,0.843 7.3944,-2 C4.7004,1.298 3.0004,6.119 3.0004,11.491 M9.0004,11.491 C9.0004,14.966 9.8624,18.097 11.2394,20.287 C8.1194,18.595 6.0004,15.29 6.0004,11.491 C6.0004,7.692 8.1194,4.388 11.2394,2.695 C9.8624,4.886 9.0004,8.017 9.0004,11.491 M20.7604,2.695 C23.8804,4.388 26.0004,7.692 26.0004,11.491 C26.0004,15.29 23.8804,18.595 20.7604,20.287 C22.1374,18.097 23.0004,14.966 23.0004,11.491 C23.0004,8.017 22.1374,4.886 20.7604,2.695 M12.0004,11.491 C12.0004,13.7 13.7914,15.491 16.0004,15.491 C18.2094,15.491 20.0004,13.7 20.0004,11.491 C20.0004,9.282 18.2094,7.491 16.0004,7.491 C13.7914,7.491 12.0004,9.282 12.0004,11.491"></path>
        </g>
      </g>
    </g>
  </g>
</svg>