<!-- Generator: Adobe Illustrator 18.1.1, SVG Export Plug-In  -->
<svg version="1.1"
   xmlns="http://www.w3.org/2000/svg" xmlns:xlink="http://www.w3.org/1999/xlink" xmlns:a="http://ns.adobe.com/AdobeSVGViewerExtensions/3.0/"
   x="0px" y="0px" width="25px" height="14.1px" viewBox="0 0 25 14.1" enable-background="new 0 0 25 14.1" xml:space="preserve">
<defs>
</defs>
<path fill="#BEBFC6" d="M14.1,9.5V8.7c0.9-0.8,1.6-2.3,1.6-4.1c0-2.6-1.4-4.7-3.1-4.7S9.4,2.1,9.4,4.7c0,1.7,0.6,3.3,1.6,4.1v0.7
  c-3.6,0.4-6.3,2.3-6.3,4.6h15.6C20.3,11.8,17.6,9.9,14.1,9.5z M7.9,8.6C7.2,8.2,6.4,8,5.5,7.9V7.5c0.5-0.4,0.8-1.2,0.8-2
  c0-1.3-0.7-2.3-1.6-2.3c-0.9,0-1.6,1-1.6,2.3c0,0.9,0.3,1.6,0.8,2v0.4C1.7,8.1,0,9.4,0,10.9h4.4C5.2,10,6.4,9.2,7.9,8.6z M21.1,7.9
  V7.5c0.5-0.4,0.8-1.2,0.8-2c0-1.3-0.7-2.3-1.6-2.3c-0.9,0-1.6,1-1.6,2.3c0,0.9,0.3,1.6,0.8,2v0.4c-0.9,0.1-1.7,0.4-2.4,0.8
  c1.4,0.5,2.6,1.3,3.5,2.3l4.4,0C25,9.4,23.3,8.1,21.1,7.9z"/>
</svg>
