<svg xmlns="http://www.w3.org/2000/svg" width="32.23px" height="38.6px" viewBox="0 0 32.23 38.6"><polygon fill="#ffffff" points="15.06 11.25 3.67 14.01 13.22 3.67 15.06 11.25"/><path fill="#bebfc6" d="M31.72,0H12.41A.52.52,0,0,0,12,.19L.12,14.39a.52.52,0,0,0-.12.33V38.08a.51.51,0,0,0,.52.52h31.2a.51.51,0,0,0,.51-.52V.51A.52.52,0,0,0,31.72,0ZM28.56,34.92H3.67V14l11.39-2.76L13.22,3.67H28.56Z"/><path fill="#bebfc6" d="M18.64,27.32,13.16,13.93a.15.15,0,0,0-.14-.09H11.12a.15.15,0,0,0-.14.1L5.84,27.32a.15.15,0,0,0,.14.2H7.86a.15.15,0,0,0,.14-.1l1.44-4h5.39l1.53,4a.15.15,0,0,0,.14.1h2a.15.15,0,0,0,.14-.2Zm-4.48-5.59H10.05L11.45,18a17.44,17.44,0,0,0,.61-2c.2.63.46,1.38.79,2.24Z"/><path fill="#bebfc6" d="M26.62,18.69H24V16.1a.15.15,0,0,0-.15-.15H21.2a.15.15,0,0,0-.15.15v2.6h-2.6a.15.15,0,0,0-.15.15v2.67a.15.15,0,0,0,.15.15h2.6v2.6a.15.15,0,0,0,.15.15h2.67a.15.15,0,0,0,.15-.15v-2.6h2.6a.15.15,0,0,0,.15-.15V18.84A.15.15,0,0,0,26.62,18.69Z"/></svg>