<svg xmlns="http://www.w3.org/2000/svg" width="43.92px" height="26.1px" viewBox="0 0 43.92 26.1"><polygon fill="#bebfc6" points="2.44 10.14 0 10.14 0 15.97 2.44 15.97 2.44 21.05 7.06 21.05 7.06 5.05 2.44 5.05 2.44 10.14"/><polygon fill="#bebfc6" points="29.18 10.14 14.74 10.14 14.74 0 8.27 0 8.27 26.1 14.74 26.1 14.74 15.97 29.18 15.97 29.18 26.1 35.65 26.1 35.65 0 29.18 0 29.18 10.14"/><polygon fill="#bebfc6" points="43.92 10.14 41.48 10.14 41.48 5.05 36.86 5.05 36.86 21.05 41.48 21.05 41.48 15.97 43.92 15.97 43.92 10.14"/></svg>