<svg id="icons" xmlns="http://www.w3.org/2000/svg" width="37.3" height="33.15" viewBox="0 0 37.3 33.15"><path fill="#bebfc6" d="M2272.84,7928.29h-34.93a1.18,1.18,0,0,0-1.18,1.18v30.78a1.18,1.18,0,0,0,1.18,1.18h34.93a1.18,1.18,0,0,0,1.18-1.18v-30.78A1.18,1.18,0,0,0,2272.84,7928.29Zm-7.4,2.56a1.58,1.58,0,1,1-1.58,1.58A1.58,1.58,0,0,1,2265.44,7930.85Zm-4.64,0a1.58,1.58,0,1,1-1.58,1.58A1.58,1.58,0,0,1,2260.8,7930.85Zm10.85,28.22h-32.56v-22.49h32.56v22.49Zm-1.58-25.06a1.58,1.58,0,1,1,1.58-1.58A1.58,1.58,0,0,1,2270.08,7934Z" transform="translate(-2236.73 -7928.29)"/><path fill="#bebfc6" d="M2249.43,7953.58a1.34,1.34,0,0,1-.77-0.24l-6-4.2a1.35,1.35,0,0,1,0-2.21l6-4.2a1.35,1.35,0,0,1,1.54,2.21l-4.43,3.09,4.43,3.09a1.35,1.35,0,0,1-.77,2.45h0Z" transform="translate(-2236.73 -7928.29)"/><path fill="#bebfc6" d="M2261.24,7953.58a1.35,1.35,0,0,1-.77-2.45l4.43-3.09-4.43-3.09a1.35,1.35,0,1,1,1.54-2.21l6,4.2a1.35,1.35,0,0,1,0,2.21l-6,4.2a1.34,1.34,0,0,1-.77.24h0Z" transform="translate(-2236.73 -7928.29)"/><path fill="#bebfc6" d="M2253.19,7954.6a1.35,1.35,0,0,1-1.24-1.86l4.29-10.43a1.35,1.35,0,0,1,2.49,1l-4.29,10.43a1.35,1.35,0,0,1-1.25.83h0Z" transform="translate(-2236.73 -7928.29)"/></svg>