<?xml version="1.0" encoding="UTF-8" standalone="no"?>
<svg width="25px" height="25px" viewBox="0 0 25 25" version="1.1" xmlns="http://www.w3.org/2000/svg" xmlns:xlink="http://www.w3.org/1999/xlink">
    <!-- Generator: Sketch 43.2 (39069) - http://www.bohemiancoding.com/sketch -->
    <title>Icon Dollar Sign</title>
    <g id="Page-1" stroke="none" stroke-width="1" fill="none" fill-rule="evenodd">
        <g id="Icon-Dollar-Sign-25x25px">
            <path d="M20.0029886,16.3927077 C20.0029886,17.9766965 19.4301711,19.2493477 18.2845188,20.2106993 C17.1388666,21.172051 15.5349774,21.7473591 13.4728033,21.9366408 L13.4728033,25 L11.4255828,25 L11.4255828,21.9964136 C8.99480753,21.9466027 6.86293007,21.5182348 5.02988643,20.7112971 L5.02988643,16.7662881 C5.89659728,17.1946624 6.94012141,17.5732201 8.16049014,17.9019725 C9.38085886,18.2307249 10.4692122,18.4249848 11.4255828,18.4847579 L11.4255828,13.852361 L10.4243873,13.4638374 C8.45187298,12.6867863 7.05469628,11.8425031 6.2328153,10.9309623 C5.41093432,10.0194216 5,8.89122011 5,7.54632397 C5,6.10180589 5.56534601,4.91383211 6.69605499,3.98236701 C7.82676397,3.0509019 9.40325747,2.48555589 11.4255828,2.28631201 L11.4255828,0 L13.4728033,0 L13.4728033,2.22653915 C15.7541457,2.32616109 17.8162889,2.78441512 19.6592947,3.601315 L18.2546324,7.0980275 C16.7005302,6.4604471 15.1066031,6.07192738 13.4728033,5.93245666 L13.4728033,10.3407053 C15.4154311,11.0878698 16.7976647,11.7354027 17.6195457,12.2833234 C18.4414267,12.831244 19.0441304,13.4339477 19.4276748,14.0914525 C19.8112193,14.7489573 20.0029886,15.5160347 20.0029886,16.3927077 Z M15.5050807,16.6168559 C15.5050807,16.1984438 15.3357259,15.8447912 14.9970114,15.5558876 C14.6582968,15.266984 14.1502325,14.9681227 13.4728033,14.6592947 L13.4728033,18.3801554 C14.8276617,18.151025 15.5050807,17.5632643 15.5050807,16.6168559 Z M9.49790795,7.54632397 C9.49790795,7.98466049 9.64982912,8.34578459 9.95367603,8.62970711 C10.2575229,8.91362963 10.7481536,9.20501943 11.4255828,9.50388524 L11.4255828,5.99222953 C10.1404598,6.18151121 9.49790795,6.69953751 9.49790795,7.54632397 Z" id="$"></path>
        </g>
    </g>
</svg>