<?xml version="1.0" encoding="UTF-8"?>
<svg width="60px" height="45px" viewBox="0 0 60 45" version="1.1" xmlns="http://www.w3.org/2000/svg" xmlns:xlink="http://www.w3.org/1999/xlink">
    <!-- Generator: Sketch 46.2 (44496) - http://www.bohemiancoding.com/sketch -->
    <title>Cap</title>
    <g id="Page-1" stroke="none" stroke-width="1" fill="none" fill-rule="evenodd">
        <g id="Careers-Page-desktop" transform="translate(-449.000000, -8726.000000)" fill="#06CF74">
            <g id="Group-62" transform="translate(249.000000, 8685.000000)">
                <path d="M231.875,56.84375 C230.373125,56.84375 229.15625,55.626875 229.15625,54.125 C229.15625,52.623125 230.373125,51.40625 231.875,51.40625 C233.376875,51.40625 234.59375,52.623125 234.59375,54.125 C234.59375,55.626875 233.376875,56.84375 231.875,56.84375 L231.875,56.84375 Z M230,41 L200,56 L230,71 L254.34125,58.829375 L252.5,74.75 L256.25,74.75 L256.25,57.875 L260,56 L230,41 Z M211.25,67.911875 L211.25,76.625 C211.25,80.375 219.644375,86 230,86 C240.355625,86 248.75,80.375 248.75,76.625 L248.75,67.911875 L230,77.286875 L211.25,67.911875 Z" id="Fill-1"></path>
            </g>
        </g>
    </g>
</svg>