<svg id="icons" xmlns="http://www.w3.org/2000/svg" width="25.58px" height="40.49px" viewBox="0 0 25.58 40.49"><path fill="#bebfc6" d="M455.5,7224.09h13.34a1.82,1.82,0,0,1,.18.74,1.55,1.55,0,0,1-.09.55H455.44a1.73,1.73,0,0,1-.09-0.57,1.94,1.94,0,0,1,.15-0.72h0Zm-6.09,18.77a2.15,2.15,0,0,0,4.29,0,3.83,3.83,0,0,1,2.18-3.45l14.55-7.39c6.26-3.28,5.94-11.48-.13-14.62l-1.49-.76-4.73,2.4,4.28,2.17c2.91,1.74,3.37,5.15.13,7l-14.54,7.39a8.12,8.12,0,0,0-4.54,7.28h0Zm10.89-30.55-4.42-2.25a3.83,3.83,0,0,1-2.18-3.45,2.15,2.15,0,0,0-4.29,0,8.12,8.12,0,0,0,4.54,7.28l1.62,0.82,4.73-2.4h0Zm10.38,30.55a3.83,3.83,0,0,0-2.18-3.45l-4.42-2.25,4.73-2.4,1.62,0.82a8.12,8.12,0,0,1,4.54,7.28,2.15,2.15,0,0,1-4.29,0h0Zm-10.38-12.43-4.41-2.24c-3.16-1.62-2.87-5.39.13-7l14.41-7.32a8.12,8.12,0,0,0,4.54-7.28,2.15,2.15,0,0,0-4.29,0,3.83,3.83,0,0,1-2.18,3.45l-14.42,7.33a8.12,8.12,0,0,0-.13,14.62l1.62,0.82,4.73-2.4h0Zm-2.62-3.25h9l-2.53,1.29h-4l-2.53-1.29h0Zm2.53-6.18h4l2.53,1.29h-9Z" transform="translate(-449.41 -7204.49)"/></svg>