<svg xmlns="http://www.w3.org/2000/svg" viewBox="0 0 23.6 30.1"><path d="M12.5 1c5.3 0 10.1 3.6 10.1 9.2 0 5.3-2.7 11.1-8.7 11.1-1.4 0-3.2-.7-3.9-2-1.3 5.1-1.2 5.8-4 9.7l-.2.1-.2-.2c-.1-1.1-.3-2.1-.3-3.2 0-3.4 1.6-8.4 2.4-11.8-.4-.9-.5-1.9-.5-2.9 0-1.7 1.2-3.9 3.1-3.9 1.4 0 2.2 1.1 2.2 2.4 0 2.2-1.5 4.3-1.5 6.4 0 1.5 1.2 2.5 2.6 2.5 3.9 0 5.1-5.6 5.1-8.6 0-4-2.8-6.2-6.7-6.2-4.5 0-7.9 3.2-7.9 7.7 0 2.2 1.3 3.3 1.3 3.8 0 .4-.3 2-.9 2-.1 0-.2 0-.3-.1-2.4-.7-3.3-4-3.3-6.2C1 4.9 6.7 1 12.5 1m0-1C6.3 0 0 4.1 0 11.1c0 2.2.8 6.2 4 7.1h.1c.1 0 .3.1.5.1.6 0 1-.3 1.2-.8-.7 2.8-1.4 5.8-1.4 8.2 0 .8.1 1.7.2 2.5 0 .3.1.5.1.8 0 .2.1.4.3.6l.2.2c.2.2.5.3.7.3.1 0 .2 0 .3-.1h.2c.2-.1.4-.2.5-.4 2.6-3.5 2.9-4.7 3.7-8.3 1 .7 2.3 1 3.4 1 3.1 0 5.6-1.4 7.4-4 1.4-2.1 2.3-5.1 2.3-8.1C23.6 3.8 18 0 12.5 0zM6.4 15.1c-.1-.4-.2-.7-.5-1.1-.4-.6-.9-1.4-.9-2.6.1-3.8 3-6.6 7-6.6 3.6 0 5.7 1.9 5.7 5.2 0 2.5-1 7.6-4.1 7.6-.8 0-1.6-.5-1.6-1.5 0-.9.3-1.8.7-2.8.4-1.1.8-2.3.8-3.6 0-2-1.3-3.4-3.2-3.4-2.5 0-4.1 2.5-4.1 4.9 0 1.1.2 2.1.5 3-.1.2-.2.6-.3.9z" fill="#D6555C"/></svg>