<?xml version="1.0" encoding="utf-8"?>
<!-- Generator: Adobe Illustrator 18.1.1, SVG Export Plug-In . SVG Version: 6.00 Build 0)  -->
<svg version="1.1" xmlns="http://www.w3.org/2000/svg" xmlns:xlink="http://www.w3.org/1999/xlink" x="0px" y="0px"
	 viewBox="0 0 24 26" enable-background="new 0 0 24 26" xml:space="preserve">
<g fill="#FFFFFF">
	<rect x="0" y="8" width="5" height="17.8"/>
	<path d="M17.3,7.8c-1.8,0-3.4,1.6-4.5,3.1V8H7v17.8h6V15.3c0-1.4,0.9-2.6,2.3-2.6c1.4,0,2.7,1.1,2.7,2.6v10.4h6v-12
		C23,9.7,20.4,7.8,17.3,7.8z"/>
	<path d="M2.6,0C1.1,0,0,1.1,0,2.6C0,4,1.1,5.1,2.6,5.1C4,5.1,5,4,5,2.6C5,1.1,4,0,2.6,0z"/>
</g>
</svg>
