<?xml version="1.0" encoding="utf-8"?>
<!-- Generator: Adobe Illustrator 19.2.1, SVG Export Plug-In . SVG Version: 6.00 Build 0)  -->
<svg version="1.1" id="Layer_1" xmlns="http://www.w3.org/2000/svg" xmlns:xlink="http://www.w3.org/1999/xlink" x="0px" y="0px"
	 viewBox="0 0 35.8199997 65" enable-background="new 0 0 35.8199997 65" xml:space="preserve">
<title>logo-icon-teachingderee.org</title>
<ellipse opacity="0.2" fill="#0B273A" enable-background="new    " cx="17.9099998" cy="60.7799988" rx="15.829999" ry="4.2200012"/>
<polygon fill="#E9E9E9" points="26.7199993,42.6599998 26.8600006,42.5099983 26.8600006,27.7299995 8.96,27.7299995 
	8.96,42.5099983 9.1000004,42.6599998 "/>
<polygon fill="#D7D8D7" points="8.96,27.7299995 5.8200002,27.7299995 0,33.5499992 8.96,42.5099983 "/>
<polygon fill="#FFFFFF" points="26.8600006,42.5099983 35.8199997,33.5499992 30,27.7299995 26.8600006,27.7299995 "/>
<polygon fill="#052737" points="9.1000004,42.6599998 17.9099998,51.4599991 26.7199993,42.6599998 "/>
<path fill="#29B3BE" d="M35.7000008,0.0299988c-0.7330093,3.6564751-2.5319061,7.0141792-5.1699982,9.6500015
	c-2.5697021,2.4049416-5.7774506,4.0192299-9.2399979,4.6500015c0.5900879-3.2394829,2.0447083-6.2592773,4.2099991-8.7399979
	C27.9699974,2.8300018,33.7800026-0.3199997,35.7000008,0.0299988z"/>
<path fill="none" stroke="#052636" stroke-width="3.1700001" stroke-linecap="round" stroke-linejoin="round" d="
	M17.3500023,13.3400002c0-4-1.5999985-7.1599998-3.5800018-7.1599998"/>
<path fill="#7A2E31" d="M8.9599991,17.4300003c-2.6497116,0.7692528-4.9505081,2.4338837-6.5099983,4.7099991
	c-1.424881,1.9658508-2.2607803,4.2966614-2.4099998,6.7200012l0,0v4.4800034l9-3L8.9599991,17.4300003z"/>
<path fill="#913637" d="M26.9099998,17.3499985c-2.9205093-0.6815758-5.9754944-0.5079956-8.8000031,0.5
	c-2.921936-1.0526352-6.0935211-1.1990166-9.0999985-0.4199982v12.9199982l9,3l9-3L26.9099998,17.3499985z"/>
<path fill="#9E3B3E" d="M35.7999992,28.8600006c-0.0648956-1.7983704-0.525856-3.5602684-1.3499985-5.1599998
	c-1.4675674-3.1145477-4.2212067-5.4336014-7.5400009-6.3500023v13l9,3v-4.4899979H35.7999992z"/>
</svg>
