<?xml version="1.0" encoding="utf-8"?>
<!-- Generator: Adobe Illustrator 19.2.1, SVG Export Plug-In . SVG Version: 6.00 Build 0)  -->
<svg version="1.1" id="Layer_1" xmlns="http://www.w3.org/2000/svg" xmlns:xlink="http://www.w3.org/1999/xlink" x="0px" y="0px"
	 viewBox="0 0 300.230011 65" enable-background="new 0 0 300.230011 65" xml:space="preserve">
<title>logo-teachingdegree.org</title>
<g enable-background="new    ">
	<path fill="#0B273A" d="M60.8095703,29.3105469v14.0996094H56.909668V29.3105469h-4.949707v-3.375h13.7998047v3.375H60.8095703z"/>
</g>
<g enable-background="new    ">
	<path fill="#0B273A" d="M78.8149414,41.4599609c-1.5166016,1.4335938-3.2958984,2.1503906-5.3374023,2.1503906
		s-3.7290039-0.6289062-5.0625-1.8876953c-1.3334961-1.2578125-2-2.9453125-2-5.0625
		c0-2.1162109,0.6791992-3.7998047,2.0375977-5.0498047s2.9624023-1.875,4.8125-1.875s3.4208984,0.5585938,4.7124023,1.6748047
		c1.2915039,1.1171875,1.9375,2.6503906,1.9375,4.5996094v2h-9.7998047c0.1162109,0.734375,0.5,1.3339844,1.1499023,1.8007812
		s1.3833008,0.6992188,2.2001953,0.6992188c1.3164062,0,2.3999023-0.4414062,3.25-1.3242188L78.8149414,41.4599609z
		 M75.215332,33.4853516c-0.5170898-0.4335938-1.1464844-0.6503906-1.8876953-0.6503906
		c-0.7416992,0-1.4208984,0.2255859-2.0375977,0.6748047c-0.6166992,0.4501953-0.9750977,1.0585938-1.074707,1.8251953h5.8999023
		C76.0317383,34.5351562,75.7314453,33.9189453,75.215332,33.4853516z"/>
	<path fill="#0B273A" d="M94.7900391,43.4101562h-3.5253906v-1.625c-0.9667969,1.2167969-2.1621094,1.8251953-3.5874023,1.8251953
		c-1.4248047,0-2.6210938-0.4130859-3.5874023-1.2373047c-0.9667969-0.8251953-1.4501953-1.9257812-1.4501953-3.3007812
		s0.5-2.4033203,1.5-3.0869141s2.3666992-1.0253906,4.1000977-1.0253906h2.800293v-0.0751953
		c0-1.4326172-0.7587891-2.1494141-2.2753906-2.1494141c-0.6499023,0-1.3374023,0.1289062-2.0625,0.3876953
		c-0.7246094,0.2578125-1.3374023,0.5791016-1.8374023,0.9619141l-1.6748047-2.4248047
		c1.7661133-1.2832031,3.7832031-1.9248047,6.0498047-1.9248047c1.6333008,0,2.9663086,0.4082031,4,1.2246094
		c1.0332031,0.8173828,1.550293,2.1083984,1.550293,3.875V43.4101562z M91.0146484,38.2851562v-0.6503906h-2.3496094
		c-1.5,0-2.25,0.4667969-2.25,1.4003906c0,0.4833984,0.1787109,0.8544922,0.5371094,1.1123047
		c0.3583984,0.2587891,0.8710938,0.3876953,1.5375977,0.3876953s1.2539062-0.2041016,1.7626953-0.6123047
		C90.7607422,39.5146484,91.0146484,38.96875,91.0146484,38.2851562z"/>
	<path fill="#0B273A" d="M105.4150391,40.2851562c1.25,0,2.375-0.625,3.375-1.875l2.2250977,2.5
		c-1.7338867,1.7998047-3.6088867,2.7001953-5.625,2.7001953c-2.0170898,0-3.7211914-0.6376953-5.112793-1.9130859
		c-1.3916016-1.2744141-2.0874023-2.9414062-2.0874023-5c0-2.0576172,0.7041016-3.7324219,2.1123047-5.0244141
		s3.0791016-1.9375,5.0126953-1.9375c0.9663086,0,1.9458008,0.2001953,2.9375,0.5996094
		c0.9912109,0.4003906,1.8623047,0.9921875,2.6123047,1.7753906l-1.949707,2.5498047
		c-0.4335938-0.5166016-0.9624023-0.9160156-1.5874023-1.2001953c-0.625-0.2832031-1.2460938-0.4248047-1.862793-0.4248047
		c-0.9833984,0-1.8291016,0.3212891-2.5375977,0.9628906s-1.0625,1.5332031-1.0625,2.6748047s0.3540039,2.0292969,1.0625,2.6621094
		C103.6357422,39.96875,104.4648438,40.2851562,105.4150391,40.2851562z"/>
	<path fill="#0B273A" d="M118.0146484,36.1601562v7.25h-3.75V24.8603516h3.75v6.5996094
		c1.1333008-1.1494141,2.4038086-1.7246094,3.8125-1.7246094c1.4082031,0,2.5957031,0.5,3.5625,1.5
		c0.9663086,1,1.4501953,2.3330078,1.4501953,4v8.1748047h-3.75v-7.3496094c0-2.0664062-0.7587891-3.1005859-2.2749023-3.1005859
		c-0.75,0-1.4042969,0.2714844-1.9628906,0.8125C118.293457,34.3144531,118.0146484,35.1103516,118.0146484,36.1601562z"/>
	<path fill="#0B273A" d="M131.3017578,28.2480469c-0.4248047-0.4257812-0.637207-0.9462891-0.637207-1.5625
		c0-0.6171875,0.2124023-1.1376953,0.637207-1.5625c0.425293-0.4257812,0.9458008-0.6376953,1.5625-0.6376953
		s1.1376953,0.2119141,1.5625,0.6376953c0.425293,0.4248047,0.6376953,0.9453125,0.6376953,1.5625
		c0,0.6162109-0.2124023,1.1367188-0.6376953,1.5625c-0.4248047,0.4248047-0.9458008,0.6367188-1.5625,0.6367188
		S131.7270508,28.6728516,131.3017578,28.2480469z M134.7392578,43.4101562h-3.75V29.9599609h3.75V43.4101562z"/>
	<path fill="#0B273A" d="M142.7890625,35.9101562v7.5h-3.75V29.9599609h3.75v1.5
		c1.1333008-1.1494141,2.4082031-1.7246094,3.8251953-1.7246094c1.4165039,0,2.6040039,0.5,3.5625,1.5
		c0.9580078,1,1.4375,2.3330078,1.4375,4v8.1748047h-3.75v-7.5996094c0-2.0664062-0.7587891-3.1005859-2.2749023-3.1005859
		c-0.75,0-1.4042969,0.2714844-1.9628906,0.8125C143.0678711,34.0644531,142.7890625,34.8603516,142.7890625,35.9101562z"/>
	<path fill="#0B273A" d="M165.7138672,41.1347656c-1.1835938,1.3173828-2.6542969,1.9755859-4.4130859,1.9755859
		s-3.2412109-0.5957031-4.4501953-1.7880859c-1.2080078-1.1914062-1.8125-2.7832031-1.8125-4.7744141
		s0.6210938-3.625,1.8632812-4.9003906c1.2412109-1.2744141,2.6621094-1.9121094,4.2617188-1.9121094
		c1.6005859,0,2.9257812,0.6582031,3.9755859,1.9746094v-1.7744141h3.75v11.7246094
		c0,1.2001953-0.2089844,2.2666016-0.625,3.2001953c-0.4169922,0.9326172-0.9755859,1.6660156-1.6748047,2.2001953
		c-1.3837891,1.0996094-3.0175781,1.6494141-4.9003906,1.6494141c-1,0-2.0214844-0.1621094-3.0625-0.4873047
		c-1.0419922-0.3251953-1.9541016-0.7871094-2.7373047-1.3876953l1.4501953-2.8251953
		c1.2324219,0.9335938,2.5371094,1.4003906,3.9121094,1.4003906s2.4628906-0.3417969,3.2626953-1.0253906
		S165.7138672,42.6191406,165.7138672,41.1347656z M165.1884766,36.3974609c0-1.0751953-0.2998047-1.9208984-0.9003906-2.5371094
		c-0.5996094-0.6162109-1.3417969-0.9248047-2.2246094-0.9248047c-0.8837891,0-1.6464844,0.3085938-2.2871094,0.9248047
		c-0.6425781,0.6162109-0.9628906,1.4580078-0.9628906,2.5244141c0,1.0673828,0.3125,1.9296875,0.9375,2.5878906
		s1.3876953,0.9873047,2.2871094,0.9873047c0.9003906,0,1.6503906-0.3251953,2.25-0.9746094
		C164.8886719,38.3349609,165.1884766,37.4726562,165.1884766,36.3974609z"/>
	<path fill="#0B273A" d="M186.9130859,28.2226562c1.6669922,1.5253906,2.5,3.6464844,2.5,6.3623047
		c0,2.7167969-0.8125,4.8671875-2.4375,6.4501953c-1.625,1.5839844-4.1044922,2.375-7.4375,2.375h-5.9746094V25.9355469h6.1748047
		C182.8544922,25.9355469,185.2460938,26.6972656,186.9130859,28.2226562z M184.0507812,38.6103516
		c0.9580078-0.9003906,1.4375-2.2080078,1.4375-3.9248047s-0.4794922-3.0380859-1.4375-3.9628906
		c-0.9589844-0.9248047-2.4296875-1.3876953-4.4121094-1.3876953h-2.1757812v10.625h2.4755859
		C181.7216797,39.9599609,183.0917969,39.5097656,184.0507812,38.6103516z"/>
	<path fill="#0B273A" d="M204.8134766,41.4599609c-1.5166016,1.4335938-3.2958984,2.1503906-5.3378906,2.1503906
		c-2.0410156,0-3.7285156-0.6289062-5.0625-1.8876953c-1.3330078-1.2578125-2-2.9453125-2-5.0625
		c0-2.1162109,0.6796875-3.7998047,2.0380859-5.0498047s2.9619141-1.875,4.8125-1.875
		c1.8496094,0,3.4208984,0.5585938,4.7119141,1.6748047c1.2919922,1.1171875,1.9375,2.6503906,1.9375,4.5996094v2h-9.7998047
		c0.1162109,0.734375,0.5,1.3339844,1.1503906,1.8007812c0.6494141,0.4667969,1.3828125,0.6992188,2.2001953,0.6992188
		c1.3164062,0,2.3994141-0.4414062,3.25-1.3242188L204.8134766,41.4599609z M201.2138672,33.4853516
		c-0.5175781-0.4335938-1.1464844-0.6503906-1.8876953-0.6503906c-0.7421875,0-1.4208984,0.2255859-2.0380859,0.6748047
		c-0.6162109,0.4501953-0.9746094,1.0585938-1.0742188,1.8251953h5.8994141
		C202.0302734,34.5351562,201.7294922,33.9189453,201.2138672,33.4853516z"/>
	<path fill="#0B273A" d="M219.3134766,41.1347656c-1.1835938,1.3173828-2.6542969,1.9755859-4.4130859,1.9755859
		s-3.2412109-0.5957031-4.4501953-1.7880859c-1.2080078-1.1914062-1.8125-2.7832031-1.8125-4.7744141
		s0.6210938-3.625,1.8632812-4.9003906c1.2412109-1.2744141,2.6621094-1.9121094,4.2617188-1.9121094
		c1.6005859,0,2.9257812,0.6582031,3.9755859,1.9746094v-1.7744141h3.75v11.7246094
		c0,1.2001953-0.2089844,2.2666016-0.625,3.2001953c-0.4169922,0.9326172-0.9755859,1.6660156-1.6748047,2.2001953
		c-1.3837891,1.0996094-3.0175781,1.6494141-4.9003906,1.6494141c-1,0-2.0214844-0.1621094-3.0625-0.4873047
		c-1.0419922-0.3251953-1.9541016-0.7871094-2.7373047-1.3876953l1.4501953-2.8251953
		c1.2324219,0.9335938,2.5371094,1.4003906,3.9121094,1.4003906s2.4628906-0.3417969,3.2626953-1.0253906
		S219.3134766,42.6191406,219.3134766,41.1347656z M218.7880859,36.3974609c0-1.0751953-0.2998047-1.9208984-0.9003906-2.5371094
		c-0.5996094-0.6162109-1.3417969-0.9248047-2.2246094-0.9248047c-0.8837891,0-1.6464844,0.3085938-2.2871094,0.9248047
		c-0.6425781,0.6162109-0.9628906,1.4580078-0.9628906,2.5244141c0,1.0673828,0.3125,1.9296875,0.9375,2.5878906
		s1.3876953,0.9873047,2.2871094,0.9873047c0.9003906,0,1.6503906-0.3251953,2.25-0.9746094
		C218.4882812,38.3349609,218.7880859,37.4726562,218.7880859,36.3974609z"/>
	<path fill="#0B273A" d="M233.8632812,33.2597656c-1.1171875,0-1.9501953,0.3964844-2.5,1.1875
		c-0.5507812,0.7919922-0.8251953,1.8378906-0.8251953,3.1376953v5.8251953h-3.75V29.9599609h3.75v1.7753906
		c0.4833984-0.5498047,1.0869141-1.0166016,1.8125-1.4003906c0.7246094-0.3828125,1.4619141-0.5830078,2.2119141-0.5996094
		l0.0253906,3.5244141H233.8632812z"/>
	<path fill="#0B273A" d="M249.4628906,41.4599609c-1.5166016,1.4335938-3.2958984,2.1503906-5.3378906,2.1503906
		c-2.0410156,0-3.7285156-0.6289062-5.0625-1.8876953c-1.3330078-1.2578125-2-2.9453125-2-5.0625
		c0-2.1162109,0.6796875-3.7998047,2.0380859-5.0498047s2.9619141-1.875,4.8125-1.875
		c1.8496094,0,3.4208984,0.5585938,4.7119141,1.6748047c1.2919922,1.1171875,1.9375,2.6503906,1.9375,4.5996094v2h-9.7998047
		c0.1162109,0.734375,0.5,1.3339844,1.1503906,1.8007812c0.6494141,0.4667969,1.3828125,0.6992188,2.2001953,0.6992188
		c1.3164062,0,2.3994141-0.4414062,3.25-1.3242188L249.4628906,41.4599609z M245.8632812,33.4853516
		c-0.5175781-0.4335938-1.1464844-0.6503906-1.8876953-0.6503906c-0.7421875,0-1.4208984,0.2255859-2.0380859,0.6748047
		c-0.6162109,0.4501953-0.9746094,1.0585938-1.0742188,1.8251953h5.8994141
		C246.6796875,34.5351562,246.3789062,33.9189453,245.8632812,33.4853516z"/>
	<path fill="#0B273A" d="M265.6630859,41.4599609c-1.5166016,1.4335938-3.2958984,2.1503906-5.3378906,2.1503906
		c-2.0410156,0-3.7285156-0.6289062-5.0625-1.8876953c-1.3330078-1.2578125-2-2.9453125-2-5.0625
		c0-2.1162109,0.6796875-3.7998047,2.0380859-5.0498047s2.9619141-1.875,4.8125-1.875
		c1.8496094,0,3.4208984,0.5585938,4.7119141,1.6748047c1.2919922,1.1171875,1.9375,2.6503906,1.9375,4.5996094v2h-9.7998047
		c0.1162109,0.734375,0.5,1.3339844,1.1503906,1.8007812c0.6494141,0.4667969,1.3828125,0.6992188,2.2001953,0.6992188
		c1.3164062,0,2.3994141-0.4414062,3.25-1.3242188L265.6630859,41.4599609z M262.0634766,33.4853516
		c-0.5175781-0.4335938-1.1464844-0.6503906-1.8876953-0.6503906c-0.7421875,0-1.4208984,0.2255859-2.0380859,0.6748047
		c-0.6162109,0.4501953-0.9746094,1.0585938-1.0742188,1.8251953h5.8994141
		C262.8798828,34.5351562,262.5791016,33.9189453,262.0634766,33.4853516z"/>
</g>
<g enable-background="new    ">
	<path fill="#0B273A" d="M269.0800781,42.75c0,0.4501953-0.3154297,0.7802734-0.7197266,0.7802734
		c-0.4199219,0-0.7353516-0.3300781-0.7353516-0.7802734s0.3154297-0.7792969,0.7353516-0.7792969
		C268.7646484,41.9707031,269.0800781,42.2998047,269.0800781,42.75z"/>
	<path fill="#0B273A" d="M279.984375,39.4501953c0,2.3701172-1.6650391,4.0048828-4.0048828,4.0048828
		s-4.0048828-1.6347656-4.0048828-4.0048828c0-2.3544922,1.6650391-3.9746094,4.0048828-3.9746094
		S279.984375,37.0957031,279.984375,39.4501953z M273.1445312,39.4648438c0,1.7402344,1.1855469,2.9404297,2.8349609,2.9404297
		c1.6503906,0,2.8349609-1.2001953,2.8349609-2.9404297c0-1.7246094-1.1845703-2.9248047-2.8349609-2.9248047
		C274.3300781,36.5400391,273.1445312,37.7402344,273.1445312,39.4648438z"/>
	<path fill="#0B273A" d="M284.7099609,37.2607422c0.5253906-1.1552734,1.5-1.7851562,2.8349609-1.7998047v1.1845703
		c-1.6650391-0.0302734-2.7001953,1.0048828-2.8349609,2.5644531v4.2001953h-1.1699219v-7.9042969h1.1699219V37.2607422z"/>
	<path fill="#0B273A" d="M297.5039062,42.5849609c0,2.3105469-1.5742188,3.7646484-3.9746094,3.7646484
		c-1.2451172-0.0146484-2.2802734-0.4199219-3.2402344-1.1396484l0.5400391-0.8994141
		c0.7802734,0.6445312,1.6054688,0.9892578,2.6552734,1.0048828c1.7246094,0,2.8496094-1.0507812,2.8496094-2.7001953v-1.2001953
		c-0.5546875,1.0498047-1.5742188,1.6503906-2.9091797,1.6503906c-2.1298828,0-3.6005859-1.5751953-3.6005859-3.8251953
		c0-2.2050781,1.4550781-3.7646484,3.5703125-3.7792969c1.3496094,0,2.3701172,0.5996094,2.9394531,1.6494141v-1.6044922h1.1699219
		V42.5849609z M296.3339844,39.2851562c0-1.6494141-1.125-2.8046875-2.6992188-2.8046875
		c-1.5898438,0-2.7001953,1.1699219-2.7148438,2.8046875c0.0146484,1.6201172,1.125,2.7900391,2.7148438,2.7900391
		C295.2089844,42.0751953,296.3339844,40.9052734,296.3339844,39.2851562z"/>
</g>
<ellipse opacity="0.2" fill="#0B273A" enable-background="new    " cx="17.9099998" cy="60.7799988" rx="15.829999" ry="4.2200012"/>
<polygon fill="#E9E9E9" points="26.7199993,42.6599998 26.8600006,42.5099983 26.8600006,27.7299995 8.96,27.7299995 
	8.96,42.5099983 9.1000004,42.6599998 "/>
<polygon fill="#D7D8D7" points="8.96,27.7299995 5.8200002,27.7299995 0,33.5499992 8.96,42.5099983 "/>
<polygon fill="#FFFFFF" points="26.8600006,42.5099983 35.8199997,33.5499992 30,27.7299995 26.8600006,27.7299995 "/>
<polygon fill="#052737" points="9.1000004,42.6599998 17.9099998,51.4599991 26.7199993,42.6599998 "/>
<path fill="#29B3BE" d="M35.6999969,0.0299988c-0.7369461,3.6572189-2.5392227,7.0147362-5.1800003,9.6500015
	c-2.5646667,2.4065208-5.7697296,4.0212097-9.2300034,4.6500015c0.5900879-3.2394829,2.0447083-6.2592773,4.2099991-8.7399979
	C27.9700012,2.8300018,33.7700043-0.3199997,35.6999969,0.0299988z"/>
<path fill="none" stroke="#052636" stroke-width="3.1700001" stroke-linecap="round" stroke-linejoin="round" d="
	M17.3499985,13.3400002c0-4-1.5999985-7.1599998-3.5800018-7.1599998"/>
<path fill="#7A2E31" d="M8.9499969,17.4300003c-2.6467743,0.7752495-4.9457321,2.4385452-6.5100021,4.7099991
	c-1.4147034,1.9712067-2.2495193,4.2989922-2.4100037,6.7200012l0,0v4.4800034l9-3L8.9499969,17.4300003z"/>
<path fill="#913637" d="M26.8600006,17.3499985c-2.9238815-0.6812668-5.9819717-0.5077095-8.8099976,0.5
	c-2.9216919-1.0538712-6.0936508-1.2002678-9.0999985-0.4199982v12.9199982l9,3l9-3L26.8600006,17.3499985z"/>
<path fill="#9E3B3E" d="M35.8000031,28.8600006c-0.0686493-1.7990417-0.5329971-3.5608368-1.3600006-5.1599998
	c-1.4729767-3.1260033-4.2442551-5.4475861-7.5800018-6.3499985v13.0000038l9,3v-4.4900055H35.8000031z"/>
</svg>
