<svg version="1.1" id="Layer_1" xmlns="http://www.w3.org/2000/svg" xmlns:xlink="http://www.w3.org/1999/xlink" x="0px" y="0px"
	 viewBox="0 0 76 70" enable-background="new 0 0 76 70" xml:space="preserve">
<title>CyberSecurity.org Footer Logo</title>
<path fill="#003652" d="M53.2599983,44.7200012h-4.7399979C48.1441383,45.7279549,47.6327744,46.6800346,47,47.5499992l0,0
	c-0.1933327,0.3066635-0.3966675,0.6066666-0.6100006,0.9000015l-0.0499992,0.0699997
	c-0.1933327,0.2666664-0.3933334,0.5266647-0.5999985,0.7799988l-0.0999985,0.1199989
	c-0.2099991,0.2599983-0.4399986,0.5200005-0.6699982,0.7700005l0,0c-0.253334,0.2799988-0.5200043,0.5533333-0.7999992,0.8199997
	c-0.7537155,0.7336159-1.5447655,1.4278717-2.3699989,2.079998l0,0c-2.4682884,1.9205284-5.1532936,3.54496-8,4.8400002
	c-0.5275421,0.1639786-1.0994148,0.1024513-1.5800018-0.1699982c-2-1.1399994-4-2.3199997-5.9400005-3.579998
	c-2.0403061-1.3154602-3.8594913-2.9456367-5.3899994-4.8300018h-5.5300055
	c1.3697519,2.1562996,3.0209761,4.1202812,4.9100008,5.8400002c3.6558418,3.2135887,7.8057194,5.8169708,12.2900009,7.7100029
	c0.4947929,0.1809845,1.0410156,0.1594238,1.5200005-0.0600014c0.5699997-0.2799988,1.1399994-0.5699997,1.7099991-0.8600006l0,0
	c1.3400002-0.6899986,2.6599998-1.4099998,4-2.0999985c3.7248917-1.9993744,6.9992599-4.7427635,9.6199989-8.0600014
	l0.1100006-0.1399994l0.4399986-0.5699997l0.1699982-0.2299995c0.1666641-0.2266655,0.329998-0.456665,0.4900017-0.6899986
	l0.1199989-0.1899986l0.3899994-0.6199989l0.1100006-0.1699982c0.1399994-0.2400017,0.2799988-0.4799995,0.4199982-0.7299995
	l0.1199989-0.2200012c0.1300011-0.2400017,0.2599983-0.4900017,0.3800011-0.7400017l0,0
	C52.6251869,46.6284409,52.9939423,45.6897964,53.2599983,44.7200012z"/>
<path fill="#003652" d="M14.3500004,12.4899998h37.3300018c0.1877747-0.0003252,0.3402634,0.1516342,0.3405876,0.3394108
	c0.0000114,0.0068674-0.0001831,0.0137329-0.0005875,0.0205889l-0.5099983,9.9399996
	c-0.1199989,1.5499992-0.2599983,2.7600002-0.4000015,4.3000011h4.4799995
	c0.2000008-2.2399998,0.4000015-4.1399994,0.5600014-6.3800011c0.2099991-3,0.3800011-5.9099998,0.5200005-8.8699999
	l0.0900002-1.8000002c0.0441818-1.0594654-0.7788658-1.9541502-1.8383331-1.998333
	c-0.0272064-0.0011349-0.0544357-0.0016909-0.081665-0.001667H11.7299995
	c-1.0603714-0.0057526-1.9246359,0.849184-1.9303885,1.9095554C9.7995195,9.9663706,9.7996492,9.9831867,9.8000002,10
	c0.0799999,2.2799997,0.21,6,0.3500004,8.0699997c0.0533333,0.7600002,0.1066666,1.5233326,0.1599998,2.2900009h4.4700003
	c-0.1466665-2.2333336-0.29-4.4700003-0.4300003-6.71C14.3299999,13.3100004,14.3500004,13,14.3500004,12.4899998z"/>
<path fill="#3DCCC6" d="M62.1300011,22.2099991c-0.8023071-0.0046291-1.57304,0.3123074-2.1399994,0.8799992H10.5200005
	c0.1533327,1.9266663,0.3166666,3.8499985,0.4899998,5.7700005h4.4400005c0-0.3400002-0.0699997-0.6900005-0.1000004-1
	c0-0.1299992,0-0.2600002,0-0.3899994H60c1.1984634,1.183691,3.1295776,1.1717167,4.3132706-0.0267448
	c1.1836853-1.1984615,1.1717148-3.1295776-0.0267487-4.3132687c-0.5691986-0.5621853-1.3364983-0.8782177-2.1365204-0.8799858
	L62.1300011,22.2099991z"/>
<path fill="#3DCCC6" d="M67.5500031,30.6900005c-0.8023071-0.0046291-1.5730362,0.3123074-2.1399994,0.8799992H11.25
	c0.1899996,2.0699997,0.3800001,4.1399994,0.6099997,6.2099991h4.4299994v-0.1599998l-0.1599998-1.7000008h49.2600021
	c1.1984863,1.18367,3.1296005,1.1716614,4.3132706-0.026825c1.18367-1.1984825,1.1716537-3.1295967-0.026825-4.3132668
	c-0.5667267-0.5597172-1.3299255-0.8755245-2.126442-0.8799076V30.6900005z"/>
<path fill="#3DCCC6" d="M62.1300011,39.6100006c-0.8023071-0.0046272-1.57304,0.3123093-2.1399994,0.8800011H12.1800003v0.3400002
	c0.2734127,2.027565,0.8392973,4.0047913,1.6800003,5.8699989H19c-0.3400002-0.5999985-0.6700001-1.2200012-1-1.8600006h42
	c1.1929398,1.1892586,3.1240883,1.1862717,4.3133469-0.0066681c1.1892548-1.1929359,1.1862717-3.1240883-0.0066681-4.313343
	c-0.570076-0.5683212-1.341713-0.8882294-2.1466789-0.8899879L62.1300011,39.6100006z"/>
</svg>
