<svg version="1.1" id="Layer_1" xmlns="http://www.w3.org/2000/svg" xmlns:xlink="http://www.w3.org/1999/xlink" x="0px" y="0px"
	 viewBox="0 0 300 70" enable-background="new 0 0 300 70" xml:space="preserve">
<title>CyberSecurity.org Logo</title>
<path fill="#003652" d="M49.7299995,44.1899986H45C44.625618,45.1904411,44.1176834,46.1356735,43.4900017,47l0,0
	c-0.1933365,0.3066673-0.3966675,0.6066704-0.6100006,0.9000015l-0.0499992,0.0699997
	c-0.1933327,0.2666664-0.3933334,0.5266685-0.5999985,0.7799988l-0.0999985,0.1199989
	c-0.2099991,0.2599983-0.4399986,0.5200005-0.6699982,0.7700005l0,0c-0.253334,0.2799988-0.5200005,0.5533295-0.7999992,0.8199997
	c-0.7537155,0.7336159-1.5447655,1.4278755-2.3699989,2.0800018l0,0c-2.4682884,1.9205284-5.1532936,3.54496-8,4.8400002
	c-0.5275421,0.1639786-1.0994148,0.1024513-1.5799999-0.1699982c-2-1.1399994-4-2.3199997-5.9400005-3.579998
	c-2.0403061-1.3154602-3.8594913-2.9456367-5.3899994-4.8300018h-5.560009
	c1.3697519,2.1562996,3.0209761,4.1202812,4.9099998,5.8400002C20.3776379,57.8624115,24.5207539,60.4759178,29,62.3800011
	c0.4947929,0.1809845,1.0410137,0.1594238,1.5200005-0.0600014c0.5699997-0.2799988,1.1399994-0.5699997,1.7099991-0.8600006l0,0
	c1.3400002-0.6899986,2.6599998-1.4099998,4-2.0999985c3.7248917-1.9993744,6.9992599-4.7427635,9.6199989-8.0600014
	l0.1100006-0.1399994l0.4399986-0.5699997l0.1699982-0.2299995c0.1666679-0.2266693,0.329998-0.456665,0.4900017-0.6899986
	l0.1199989-0.1899986l0.3899994-0.6199989l0.1100006-0.1699982c0.1399994-0.2400017,0.2799988-0.4799995,0.4199982-0.7299995
	l0.1199989-0.2200012c0.1300011-0.2400017,0.2599983-0.4900017,0.3800011-0.7400017l0,0
	C49.0761795,46.1064949,49.4550209,45.1644211,49.7299995,44.1899986z"/>
<path fill="#003652" d="M10.8199997,12h37.3199997c0.1877747-0.0003252,0.3402634,0.1516342,0.3405876,0.3394108
	c0.0000114,0.0068674-0.0001831,0.0137329-0.0005875,0.0205889L48,22.2700005
	c-0.1199989,1.5499992-0.2599983,2.7600002-0.4000015,4.2999992H52c0.2000008-2.2399998,0.4000015-4.1399994,0.5600014-6.3800011
	c0.2099991-3,0.3800011-5.9099998,0.5200005-8.8699999l0.0900002-1.8000002
	c0.0386696-1.0652075-0.7935028-1.9600782-1.8587112-1.9987493c-0.0204201-0.0007415-0.0408516-0.0011582-0.0612869-0.0012507
	H8.1899996C7.1296134,7.5190778,6.2692537,8.377944,6.268333,9.4383307
	C6.2683091,9.4655619,6.2688651,9.4927902,6.2699995,9.5199986c0.0799999,2.2799997,0.21,6,0.3499999,8.0699997
	c0.0533333,0.7600002,0.1066666,1.5233326,0.1599998,2.289999h4.4699998c-0.1466665-2.2333336-0.29-4.4700003-0.4300003-6.71
	C10.8000002,12.79,10.8199997,12.4399996,10.8199997,12z"/>
<path fill="#3DCCC6" d="M58.5999985,21.6800003c-0.8023071-0.0046291-1.57304,0.3123074-2.1399994,0.8799992H7
	c0.1533332,1.9266663,0.3166671,3.8499985,0.4899998,5.7700005h4.4099998c0-0.3400002-0.0699997-0.6900005-0.1000004-1
	c0-0.1299992,0-0.2600002,0-0.3899994h44.6399994c1.1984634,1.183691,3.1295776,1.1717167,4.3132668-0.0267448
	c1.1836929-1.1984615,1.1717186-3.1295776-0.0267448-4.3132687c-0.5691986-0.5621853-1.3364983-0.8782177-2.1365204-0.8799858
	L58.5999985,21.6800003z"/>
<path fill="#3DCCC6" d="M64,30.1700001c-0.8023071-0.0046291-1.57304,0.3123074-2.1399994,0.8799992H7.71
	c0.1900001,2.0699997,0.3800001,4.1399994,0.6099997,6.2099991H12.75v-0.1599998l-0.1599998-1.7000008h49.2700005
	c1.2039833,1.1780739,3.135025,1.1570702,4.3130951-0.0469131c1.1780777-1.2039871,1.1570663-3.135025-0.0469131-4.313097
	C65.55793,30.483963,64.7950287,30.1718006,64,30.1700001z"/>
<path fill="#3DCCC6" d="M58.5999985,39.0900002c-0.8023071-0.0046272-1.57304,0.3123093-2.1399994,0.8800011H8.6499996v0.3400002
	c0.2734127,2.027565,0.8392973,4.0047913,1.6800003,5.8699989h5.0699997c-0.3400002-0.5999985-0.6700001-1.2200012-1-1.8600006h42
	c1.1929398,1.1892586,3.1240883,1.1862717,4.3133469-0.0066681c1.1892548-1.1929359,1.1862717-3.1240883-0.0066681-4.313343
	c-0.570076-0.5683212-1.341713-0.8882294-2.1466789-0.8899879L58.5999985,39.0900002z"/>
<path fill="#003652" d="M87.0599976,28.5599995c-2.6178207-0.007412-4.7459869,2.1087418-4.7534027,4.7265606
	c-0.0001831,0.0644951,0.0009537,0.1289902,0.0034027,0.1934395c-0.127037,2.6313324,1.9030914,4.8674355,4.5344315,4.9944725
	c0.0718002,0.0034676,0.1436768,0.0053101,0.2155685,0.0055275c1.6516495-0.0889168,3.207283-0.8041458,4.3499985-2
	l2.6699982,2.8800011c-1.9013062,1.9976997-4.5134354,3.165432-7.2699966,3.25
	c-4.8953552,0.1828308-9.0120316-3.6374245-9.1948624-8.5327759c-0.0058136-0.1556702-0.0075226-0.3114662-0.0051346-0.4672241
	c0-5,4-8.8500004,9.3700027-8.8500004c2.6608963,0.0245781,5.2034378,1.103447,7.0699997,3l-2.6500015,3.1700001
	C90.3612671,29.5528717,88.7800827,28.689415,87.0599976,28.5599995z"/>
<path fill="#003652" d="M98,47.3800011C96.5460968,47.4032936,95.1302567,46.9148293,94,46l1.8499985-3.0699997
	c0.482872,0.4696922,1.1264877,0.7378654,1.8000031,0.75c0.6927872,0.0258751,1.332634-0.3690948,1.6200027-1l0.3300018-0.6199989
	L94,28.8099995h4.5699997l3.2200012,8.8000011l2.8700027-8.7999992h4.4199982l-5.8000031,14.8500023
	C102.5661087,45.9530602,100.3995514,47.479496,98,47.3800011z"/>
<path fill="#003652" d="M125.4800034,35.6300011c0,4.1199989-2.4499969,6.8499985-6.1999969,6.8499985
	c-1.5808029,0.0459633-3.0901566-0.6586494-4.0699997-1.9000015v1.75h-4.4499969V23.7900009h4.4499969v6.7700005
	c0.9473572-1.2432556,2.4377747-1.9512062,4-1.8999996C123,28.6599998,125.4800034,31.4400005,125.4800034,35.6300011z
	 M121.0100021,35.5300026c0-2-1.1699982-3.3699989-2.9199982-3.3699989s-2.8700027,1.3699989-2.8700027,3.3699989
	s1.1699982,3.3499985,2.8700027,3.3499985S121,37.5299988,121,35.5400009L121.0100021,35.5300026z"/>
<path fill="#003652" d="M140.5599976,36.7599983h-9.3999939c0.3064728,1.4342041,1.6049347,2.4365997,3.0700073,2.3699989
	c1.1972809-0.0146904,2.3388672-0.5080566,3.1699982-1.3699989l2.3200073,2.329998
	c-1.520401,1.6252823-3.6767883,2.5024605-5.8999939,2.4000015c-4.4199982,0-7.1500015-2.7200012-7.1500015-6.8499985
	s2.8199997-7,6.9999924-7C138.4600067,28.6599998,140.8600006,31.8400002,140.5599976,36.7599983z M136.2599945,34.3899994
	c0.1002655-1.3327637-0.8988647-2.4944668-2.2316284-2.594738c-0.0892792-0.0067177-0.1788788-0.0084743-0.2683716-0.0052624
	c-1.4329224,0.0475998-2.5983734,1.1698971-2.6999969,2.6000004H136.2599945z"/>
<path fill="#003652" d="M151.6600037,28.6399994v4.0699997c-2.4700012-0.25-4.1199951,0.8499985-4.3500061,2.7200012v6.9000015
	h-4.4499969V28.8099995h4.4499969v2.25C148.2054749,29.5156155,149.8755798,28.5865002,151.6600037,28.6399994z"/>
<path fill="#003652" d="M160,28.3400002c-1.1000061,0-1.8200073,0.3999996-1.8200073,1.2000008
	c0,2.9000015,9.2200012,1.25,9.2200012,7.5499992c0,3.5699997-3.1499939,5.4000015-7,5.4000015
	c-2.9263763-0.0108261-5.7657928-0.9960022-8.0700073-2.7999992l1.7799988-3.5699997
	c1.7854462,1.528923,4.0073853,2.4561844,6.3500061,2.6500015c1.3500061,0,2.1999969-0.5,2.1999969-1.4199982
	c0-3-9.2200012-1.1699982-9.2200012-7.3699989c0-3.2700005,2.7700043-5.3500004,7-5.3500004
	c2.4729004,0.0099831,4.8950958,0.7020397,7,2l-1.7200012,3.6200008C163.9799957,29.1939335,162.0254211,28.5412674,160,28.3400002z
	"/>
<path fill="#003652" d="M182.5299988,36.7599983h-9.3999939c0.3064728,1.4342041,1.6049347,2.4365997,3.0700073,2.3699989
	c1.1972809-0.0146904,2.3388672-0.5080566,3.1699982-1.3699989l2.3200073,2.329998
	c-1.520401,1.6252823-3.6767883,2.5024605-5.8999939,2.4000015c-4.4199982,0-7.1499939-2.7200012-7.1499939-6.8499985
	s2.8200073-7,7-7C180.4299927,28.6599998,182.8300018,31.8400002,182.5299988,36.7599983z M178.2299957,34.3899994
	c0.1002655-1.3327637-0.8988647-2.4944668-2.2316284-2.594738c-0.0892792-0.0067177-0.1788788-0.0084743-0.2683716-0.0052624
	c-1.4329224,0.0475998-2.5983734,1.1698971-2.6999969,2.6000004H178.2299957z"/>
<path fill="#003652" d="M190.9100037,32.3400002c-1.6000061,0-2.6999969,1.3199997-2.6999969,3.2700005
	s1.1000061,3.2700005,2.6999969,3.2700005c1.1075134,0.0675774,2.1491547-0.529892,2.6499939-1.5200005l3.2700043,1.8699989
	c-1.0700073,2.079998-3.2700043,3.25-6.1499939,3.25c-4.1699982,0-6.9499969-2.7200012-6.9499969-6.8499985
	c-0.233963-3.6320286,2.5207062-6.7660351,6.1527405-7c0.2821198-0.0181732,0.5651245-0.0181732,0.8472595,0
	c2.4343872-0.1094532,4.7347107,1.1173859,6,3.2000008l-3.2200012,1.8699989
	C192.9263306,32.839241,191.9499359,32.3285065,190.9100037,32.3400002z"/>
<path fill="#003652" d="M212.0800018,28.8099995v13.5200024h-4.4499969v-2.2000008
	c-0.8826752,1.5400772-2.5460815,2.4641914-4.3200073,2.4000015c-2.9199982,0-4.8200073-2-4.8200073-5.170002v-8.5500011h4.4499969
	v7.2699986c-0.1602783,1.1821175,0.6680908,2.2703438,1.8502197,2.4306183
	c0.105957,0.01437,0.2128448,0.0208473,0.3197784,0.0193825c1.5800018,0,2.5200043-1.2799988,2.5200043-3v-6.7199993H212.0800018z"
	/>
<path fill="#003652" d="M224.2799988,28.6399994v4.0699997c-2.4700012-0.25-4.1199951,0.8499985-4.3500061,2.7200012v6.9000015
	h-4.4499969V28.8099995h4.4499969v2.25C220.82547,29.5156155,222.495575,28.5865002,224.2799988,28.6399994z"/>
<path fill="#003652" d="M230.6600037,28.8099995v13.5200024h-4.4199982V28.8099995H230.6600037z M230.4900055,25.0100002
	c0,1.1045704-0.8954315,2-2,2s-2-0.8954296-2-2s0.8954315-2,2-2c1.0967712,0.005476,1.9845123,0.8932304,1.9899902,1.9899998
	L230.4900055,25.0100002z"/>
<path fill="#003652" d="M242.8600006,41.6300011c-1.1195679,0.607502-2.3763428,0.9173965-3.6499939,0.9000015
	c-2.6199951,0-4.5200043-1.5200005-4.5200043-4.3199997v-5.7999992h-1.8699951v-2.9500046h1.8699951v-3.75h4.4199982v3.75h3.5
	v2.9500008h-3.5v5.0999985c0,1,0.4499969,1.4500008,1.2200012,1.4199982C240.90979,38.8850555,241.47612,38.7324486,242,38.4799957
	L242.8600006,41.6300011z"/>
<path fill="#003652" d="M247,47.3800011c-1.4563904,0.0176544-2.8724976-0.4779854-4-1.4000015l1.8500061-3.0699997
	c0.4828644,0.4696922,1.1264801,0.7378654,1.8000031,0.75c0.6927795,0.0258713,1.3326263-0.3690987,1.6199951-1l0.3300018-0.6199989
	L243,28.8099995h4.5700073l3.2200012,8.8000011l2.8699951-8.7999992h4.4200134l-5.8000031,14.8500023
	C251.5661163,45.953064,249.3995514,47.4795036,247,47.3800011z"/>
<path fill="#003652" d="M260.2099915,41.0699997c0.1530151,0.1535835,0.2361755,0.3632965,0.230011,0.5800018
	c0.0027466,0.2160912-0.079895,0.42453-0.230011,0.5800018c-0.1504822,0.1587448-0.3613586,0.246006-0.5799866,0.2400017
	c-0.2138977,0.0070152-0.4208679-0.0764923-0.5700073-0.2299995c-0.1489258-0.1595497-0.2281189-0.371891-0.2200012-0.5900002
	c-0.0076599-0.2150536,0.0716553-0.4241257,0.2200012-0.5800018c0.148407-0.1545792,0.3558655-0.2382889,0.5700073-0.2299995
	C259.8469238,40.8326416,260.0570679,40.9159851,260.2099915,41.0699997z"/>
<path fill="#003652" d="M269.3699951,33.4700012c0.7087402,0.391777,1.2940369,0.9736099,1.6900024,1.6800003
	c0.4147339,0.7490158,0.6250916,1.5939636,0.6099854,2.4500008c0.0147705,0.8655319-0.1954041,1.7200737-0.6099854,2.4799995
	c-0.3931885,0.7110558-0.9789429,1.2968063-1.6900024,1.6899986c-1.5340271,0.8054962-3.3659668,0.8054962-4.8999939,0
	c-0.7110596-0.3931923-1.296814-0.9789429-1.6900024-1.6899986c-0.4145813-0.7599258-0.6247559-1.6144676-0.6099854-2.4799995
	c-0.0151062-0.8560371,0.1952515-1.700985,0.6099854-2.4500008c0.3959656-0.7063904,0.9812622-1.2882233,1.6900024-1.6800003
	C266.0044556,32.6662254,267.8355408,32.6662292,269.3699951,33.4700012z M265.0899963,34.3800011
	c-0.5364075,0.3074989-0.9736023,0.7620544-1.2600098,1.3100014c-0.6007996,1.220047-0.6007996,2.6499519,0,3.8699989
	c0.2864075,0.5479469,0.7236023,1.0025024,1.2600098,1.3100014c1.144165,0.6224251,2.5258484,0.6224251,3.6700134,0
	c0.5289917-0.3104897,0.9589844-0.7647629,1.2399902-1.3100014c0.6007996-1.220047,0.6007996-2.6499519,0-3.8699989
	c-0.2864075-0.5479469-0.7236023-1.0025024-1.2600098-1.3100014c-1.144165-0.6224251-2.5258484-0.6224251-3.6700134,0H265.0899963z"
	/>
<path fill="#003652" d="M276.7799988,33.4500008c0.6300049-0.3904457,1.3589172-0.5917549,2.1000061-0.5800018V34
	c-0.8855286-0.0518532-1.7533875,0.2627525-2.3999939,0.8699989c-0.6187439,0.6567841-0.9746399,1.518013-1,2.420002v5h-1.2099915
	v-9.3899994h1.2099915v2.2000008C275.7402039,34.4333,276.192688,33.8589821,276.7799988,33.4500008z"/>
<path fill="#003652" d="M289,32.9000015v8.4399986c0.0170593,0.8334656-0.1828003,1.6570549-0.5799866,2.3899994
	c-0.3795776,0.6773758-0.9545898,1.2245331-1.6499939,1.5699997c-0.7705383,0.3797798-1.6211853,0.568428-2.480011,0.5499992
	c-1.4197388-0.0070114-2.7909851-0.5172462-3.8699951-1.4399986L281,43.5499992c0.443573,0.4158134,0.954071,0.7538834,1.5100098,1
	c0.5501404,0.2189522,1.1379395,0.3276787,1.730011,0.3199997c0.9530334,0.0450096,1.883728-0.2976799,2.5799866-0.9500008
	c0.6729736-0.6660423,1.0357361-1.5838242,1-2.5299988v-1.5599976c-0.3208008,0.6444931-0.8208313,1.1826973-1.4400024,1.5499992
	c-0.6551819,0.3808441-1.4023132,0.5745468-2.1600037,0.5600014c-0.7857666,0.0159912-1.56073-0.1846771-2.2399902-0.5800018
	c-0.6510925-0.3867378-1.1810608-0.947876-1.5299988-1.6199989c-0.3748169-0.725811-0.5637817-1.5332413-0.5499878-2.3499985
	c-0.0146484-0.8136559,0.174408-1.6180611,0.5499878-2.3400002c0.3520203-0.6679955,0.8859558-1.2227097,1.5400085-1.5999985
	c0.6842957-0.3919067,1.4615173-0.5922623,2.25-0.5800018c0.7502136-0.0159569,1.490448,0.1742821,2.1400146,0.5499992
	c0.5987854,0.3871574,1.0769043,0.9345779,1.3799744,1.579998v-2.0999985H289z M286.1600037,40.5
	c0.5140991-0.3019447,0.9332581-0.7419128,1.2099915-1.2700005c0.5745544-1.1488342,0.5745544-2.5011673,0-3.6500015
	c-0.2767334-0.5280876-0.6958923-0.9680557-1.2099915-1.2700005c-1.0830078-0.6113091-2.4069824-0.6113091-3.4899902,0
	c-0.5121155,0.3044281-0.9306946,0.7437668-1.2099915,1.2700005c-0.3002625,0.5661201-0.4516602,1.1992836-0.4400024,1.8400002
	c-0.0121765,0.6375847,0.1393127,1.267643,0.4400024,1.8300018c0.2820129,0.521656,0.7001648,0.9570999,1.2099915,1.2599983
	c1.0866394,0.6111259,2.4133606,0.6111259,3.5,0L286.1600037,40.5z"/>
</svg>
